<?xml version="1.0" encoding="UTF-8"?>
<svg width="260px" height="244px" viewBox="0 0 260 244" version="1.1" xmlns="http://www.w3.org/2000/svg" xmlns:xlink="http://www.w3.org/1999/xlink">
    <!-- Generator: Sketch 63.1 (92452) - https://sketch.com -->
    <title>Untitled</title>
    <desc>Created with Sketch.</desc>
    <g id="Page-1" stroke="none" stroke-width="1" fill="none" fill-rule="evenodd">
        <g id="DM-daisy" fill-rule="nonzero">
            <path d="M123.36,157.4 L123.45,158.4 C122.262226,158.48874 121.181481,159.119483 120.52,160.11 C106.7,179.57 92.44,201 96.22,228.64 C97.01,234.45 98.85,240.42 105.64,242.64 C111.469538,244.510638 117.854061,242.779375 121.94,238.22 C125.69,234.08 126.94,228.22 128.19,222.64 C129.63,216.37 130.99,210.06 132.14,203.64 C135.049505,188.403333 135.760064,172.828294 134.25,157.39 C133.51,150.44 122.62,150.49 123.36,157.4 Z" id="petal-left-7" fill="#231F20"></path>
            <path d="M114,141.15 C103.16,151.9 89.65,160.15 73.41,163.01 C70.09,163.59 65.57,163.09 62.82,164.8 C62.1268327,165.261315 61.5431493,165.868892 61.11,166.58 C59.4576853,166.078868 57.6671535,166.642627 56.6,168 C50.15,176.12 45.32,189 48.45,201 C50.24,207.88 57.27,210.73 62.52,207.89 C68.19,204.89 73.18,200.37 78.35,196.67 C96.44,183.76 118,171 124,147.7 C125.38,142.05 118,137.18 114,141.15 Z" id="petal-left-6" fill="#231F20"></path>
            <path d="M107.75,126.3 C76.53,122.83 44.08,119.86 18.12,132.99 C13.32,135.41 5.99,138.74 4.43,144.26 C4.22643425,144.97847 4.13204597,145.723464 4.15,146.47 C3.81130251,146.638294 3.49818471,146.853773 3.22,147.11 C-0.16,150.11 -0.32,155.34 3.98,159.48 C8.28,163.62 14.12,163.48 19.07,163.66 C31.3803294,164.2022 43.7124422,163.346735 55.83,161.11 C67.1937348,159.030291 78.2551021,155.546951 88.76,150.74 C93.8733701,148.441868 98.8247625,145.799121 103.58,142.83 C105.98,141.3 108.01,139.44 108.9,137.06 L110.07,137.19 C117.19,138 114.82,127.08 107.75,126.3 Z" id="petal-left-5" fill="#231F20"></path>
            <path d="M106.19,112.85 C102.543333,112.43 98.8966667,111.993333 95.25,111.54 C80.9736042,107.850458 66.2340501,106.270378 51.5,106.85 C48.97,106.65 46.5,106.47 43.92,106.31 C29.22,105.39 6.24,101.91 0.32,116.81 C-1.35,120.99 3.9,125.91 8.17,124.81 C22.79,121.07 38.06,118.27 53.78,117.74 C67.39,118.81 81.07,120.44 94.78,122.09 C96.78,122.61 98.72,123.17 100.7,123.79 C102.096413,124.360601 103.687405,124.179635 104.92,123.31 L108.53,123.74 C115.63,124.59 113.25,113.69 106.19,112.85 Z" id="petal-left-4" fill="#231F20"></path>
            <path d="M106.5,97.83 C105.17,97.66 103.85,97.43 102.5,97.17 C100.5,96.61 98.5,96.11 96.5,95.67 C84.26,92.1 72.18,85.67 59.8,83.31 C44.8,80.41 28.04,80.31 17.11,88.54 C14.11,90.83 15.39,97.72 20.52,98.54 C48.86,102.85 76.8,100.04 105.32,108.7 C106.383751,109.059684 107.536249,109.059684 108.6,108.7 L108.81,108.7 C115.94,109.61 113.55,98.69 106.5,97.83 Z" id="petal-left-3" fill="#231F20"></path>
            <path d="M123.79,96.19 C117.99,81.7033333 111.773333,67.3066667 105.14,53 C99.59,41.09 94.29,27.21 84.89,17 C80.89,12.65 74.8,6.8 69.05,7.83 C62.95,8.92 62.85,16.56 62.6,21.83 C62,34.92 65.86,47.34 75.49,59 C87.36,73.36 100.54,87 113,100.91 C115.49,103.67 118.43,104.01 120.38,102.91 C123.13,102.38 125.24,99.84 123.79,96.19 Z" id="petal-left-2" fill="#231F20"></path>
            <path d="M123.2,2.16 C121.05546,1.36143998 118.661659,2.3867258 117.76,4.49 C110.28,4.18 109.6,12.49 109.29,18.49 C108.889641,26.5659404 109.170636,34.6612566 110.13,42.69 C112.251392,59.8772523 117.02123,76.6324041 124.27,92.36 C124.51,93.16 124.76,93.96 125.04,94.77 C125.636528,96.7628178 127.295573,98.2559582 129.34,98.64 C129.43,98.78 129.51,98.92 129.61,99.06 C132.83,103.77 138.61,101.64 139.29,97.76 C142.12,82.38 139.96,65.76 136.88,49.38 C137.17,47.49 137.4,45.61 137.54,43.73 C138.46,31.33 141.71,8.07 123.2,2.16 Z" id="petal-left-1" fill="#231F20"></path>
            <path d="M156.31,163.85 C156.063881,163.473778 155.786214,163.119167 155.48,162.79 C155.08,161.41 154.64,160.03 154.11,158.64 C151.48,151.71 137.78,151.64 140.44,158.64 C141.19298,160.604051 141.840568,162.606902 142.38,164.64 C139.78,170.95 141.53,179.34 142.43,186.17 L142.55,187.17 C142.400031,188.917817 142.420125,190.676067 142.61,192.42 C143.56,200.69 149.24,214.75 161.77,218.12 C177.14,222.24 173.77,205.23 172.33,198.36 C169.86,186.69 163.51,175.21 156.31,163.85 Z" id="petal-right-7" fill="#231F20"></path>
            <path d="M192.33,148.91 C184.16,140.3 172.8,132.39 162.01,134.91 C159.01,135.59 158.49,138.63 159.65,141.31 C158.907174,142.003477 158.4476,142.947564 158.36,143.96 C157.66,149.52 162.31,154.96 166.2,159.47 C170.113035,164.069388 174.42297,168.315746 179.08,172.16 C186.39,178.16 202.47,190.22 205.8,177.48 C208,168.85 198.86,155.8 192.33,148.91 Z" id="petal-right-5" fill="#231F20"></path>
            <path d="M230.23,112.38 C222.52,112.32 214.81,114.24 207.82,116.17 C193.69,120.06 180.4,126 165.43,128 C162.57,128.38 160.49,130.23 161.14,133.45 C161.67,136.1 164.91,139.28 167.74,138.89 C170.57,138.5 173.2,138.02 175.86,137.43 C176.059872,137.785547 176.294341,138.120503 176.56,138.43 C181.93,144.95 190.1,145.73 197.23,146.71 C205.081301,147.857498 213.029977,148.192602 220.95,147.71 C228.38,147.19 233.62,145 237.6,139.34 C239.6,136.52 241.42,133.54 243.2,130.58 C244.6,128.27 245.85,125.89 245.25,122.76 C243.91,115.84 236.32,112.43 230.23,112.38 Z" id="petal-right-4" fill="#231F20"></path>
            <path d="M256.28,85.69 C243.623867,80.451505 229.483419,80.0493226 216.55,84.56 C210.58726,85.6902571 204.761303,87.4501117 199.17,89.81 C186.57,95.12 175.59,102.68 165.61,111.38 C161.69,114.79 165.98,123.28 171.92,121.38 L176.43,119.89 C177.198355,119.838162 177.94281,119.601445 178.6,119.2 L178.73,119.12 C192.49,114.52 206.27,109.76 220.84,106.91 C234.34,104.27 251,105.63 259.2,94.29 C260.87,91.89 259.94,87.15 256.28,85.69 Z" id="petal-right-3" fill="#231F20"></path>
            <path d="M217.84,17.79 C210.62,14.52 203.21,20.39 198.4,23.62 C186.78,31.4 177.71,42.18 170.76,54.2 C163.99,65.93 155.76,80.25 159.23,95.91 C160.040466,99.5182172 163.621106,101.787448 167.23,100.98 L167.74,100.85 C169.94,102.08 172.55,102.09 174.18,100.15 C174.33,99.98 174.47,99.8 174.62,99.62 C178.68,98.55 182.39,94.78 185.02,92.82 C190.04126,89.19225 194.65483,85.0313193 198.78,80.41 C199.62,79.41 200.38,78.41 201.1,77.41 C202.99613,78.2481987 205.211165,77.8526567 206.7,76.41 C216.281874,65.7220386 222.306234,52.3209829 223.94,38.06 C224.7,32 226.32,21.62 217.84,17.79 Z" id="petal-right-2" fill="#231F20"></path>
            <path d="M182.14,18 C184.26,13.05 185.08,6.71 178.92,2.23 C173,-2.12 166.77,0.56 163.5,4.69 C156.14,13.89 153.9,26.85 151.59,38.74 C149.803333,47.92 148.4,57.2533333 147.38,66.74 C146.271497,71.9196537 145.808026,77.21654 146,82.51 C145.94,83.39 145.87,84.27 145.82,85.15 C145.75263,86.1887304 145.970481,87.2261164 146.45,88.15 C146.5,88.59 146.55,89.04 146.61,89.49 C147.61,96.49 158.5,96.49 157.51,89.49 C157.32,88.18 157.2,86.9 157.11,85.63 C157.49,79.59 158.026667,73.59 158.72,67.63 C163.2,49.63 175.12,34.39 182.14,18 Z" id="petal-right-1" fill="#231F20"></path>
            <path d="M159.15,110.83 C158.275418,109.042805 156.838599,107.591933 155.06,106.7 C153.393059,104.378454 150.546278,103.213332 147.73,103.7 C136.1,105.33 125.04,111.84 121.29,122.7 C119.43,128.07 120.64,134.32 127.12,137.93 C133.89,141.71 140.94,139.93 146.37,137.24 C151.296036,134.831775 155.322322,130.910614 157.86,126.05 C159.83,122.22 161.85,115.69 159.15,110.83 Z" id="center" fill="#99CCCC"></path>
        </g>
    </g>
</svg>