<svg id="Layer_1" data-name="Layer 1" xmlns="http://www.w3.org/2000/svg" viewBox="0 0 465 465"><defs><style>.cls-1{fill:#c36;}</style></defs><path class="cls-1" d="M400.94,329.53a9,9,0,0,1-11.66,0L373.39,316l-91.52,79.46H509.14L416.86,316Z" transform="translate(-163.73 -73.55)"/><polygon class="cls-1" points="103.05 151.67 103.05 311.18 195.73 230.71 103.05 151.67"/><polygon class="cls-1" points="344.41 141.17 118.5 141.17 231.39 237.3 344.41 141.17"/><polygon class="cls-1" points="267.26 230.86 360.29 310.98 359.93 151.66 267.26 230.86"/><path class="cls-1" d="M396.23,73.55c-128.41,0-232.5,104.09-232.5,232.5s104.09,232.5,232.5,232.5,232.5-104.09,232.5-232.5S524.64,73.55,396.23,73.55ZM533.07,413.46H257.74c-.3,0-.61,0-.91,0l-.12,0a7.58,7.58,0,0,1-.81-.13l-.15,0c-.26-.06-.51-.12-.76-.2l-.2-.08c-.23-.08-.45-.16-.67-.26l-.08,0-.11-.06a9,9,0,0,1-.92-.5,1,1,0,0,0-.17-.1,9.77,9.77,0,0,1-.9-.69,1.54,1.54,0,0,1-.19-.17,8.47,8.47,0,0,1-.67-.67l-.16-.18a8.84,8.84,0,0,1-.68-.9l-.1-.17a9.17,9.17,0,0,1-.48-.87l-.09-.2a8.41,8.41,0,0,1-.41-1.09l0-.12a8.68,8.68,0,0,1-.23-1c0-.1,0-.19,0-.28a9.23,9.23,0,0,1-.08-1.18V205.72c0-.07,0-.13,0-.2s0-.41,0-.62,0-.48.09-.72.08-.38.13-.57.13-.5.21-.74c0-.09,0-.17.07-.26s.09-.18.13-.28a7.24,7.24,0,0,1,.32-.7c.09-.17.18-.34.28-.5a6.57,6.57,0,0,1,.4-.62c.12-.16.23-.32.35-.47s.32-.37.49-.54.27-.28.41-.41a6.61,6.61,0,0,1,.58-.47l.45-.35c.21-.14.42-.25.63-.37s.35-.21.53-.29l.1-.06a6,6,0,0,1,.59-.22c.18-.07.36-.15.55-.21s.56-.14.84-.2.3-.07.45-.09a8.42,8.42,0,0,1,1.33-.11H532.62a9.92,9.92,0,0,1,1.33.1l.46.1c.28.06.56.12.83.2s.37.14.56.21l.57.21a.6.6,0,0,0,.11.06c.18.09.35.2.53.3s.43.23.63.37.3.23.46.34.39.31.57.47l.41.41c.17.18.34.36.49.54l.35.48c.14.2.28.4.41.61s.19.34.28.51.22.46.32.69.09.19.13.29,0,.17.07.25c.08.25.15.49.21.74s.09.38.12.57.07.48.09.72,0,.41.05.62,0,.13,0,.19l.46,198.47s0,.08,0,.11,0,.12,0,.18A9,9,0,0,1,533.07,413.46Z" transform="translate(-163.73 -73.55)"/></svg>