<svg id="Layer_1" data-name="Layer 1" xmlns="http://www.w3.org/2000/svg" viewBox="0 0 465 465"><defs><style>.cls-1{fill:#33669a;}.cls-2{fill:#fff;}</style></defs><circle class="cls-1" cx="232.5" cy="232.5" r="232.5"/><path id="LinkedIn" class="cls-2" d="M529.47,318.44v95.19H474.28V324.81c0-22.31-8-37.54-28-37.54-15.25,0-24.32,10.26-28.32,20.19-1.45,3.55-1.83,8.49-1.83,13.46v92.71H361s.74-150.43,0-166h55.2v23.53c-.11.18-.26.37-.36.54h.36v-.54c7.33-11.29,20.43-27.43,49.75-27.43C502.24,243.71,529.47,267.44,529.47,318.44ZM303.22,167.58C284.33,167.58,272,180,272,196.26c0,15.94,12,28.7,30.5,28.7h.37c19.25,0,31.23-12.76,31.23-28.7C333.71,180,322.1,167.58,303.22,167.58Zm-28,246.05h55.19v-166H275.25Z" transform="translate(-163.96 -73.55)"/></svg>