<svg viewBox="0 0 312.86 137.04" xmlns="http://www.w3.org/2000/svg"><g fill="#231f20"><path d="m36.35 111.45c.38-.15.56-.34.56-.56a3.55 3.55 0 0 0 -.11-.79c0 .3-.09.41-.28.34s-.32 0-.39.11a.31.31 0 0 0 -.06.45 2.76 2.76 0 0 1 .28.45z" transform="translate(-7.57 -7.4)"/><path d="m33.77 112v1c.23-.08.35-.19.39-.34a1 1 0 0 1 .28-.45c.23-.15.27-.3.12-.44a.45.45 0 0 0 -.34-.12.45.45 0 0 0 -.45.35z" transform="translate(-7.57 -7.4)"/><path d="m34.89 108.53a2.88 2.88 0 0 0 -.61.73 1.82 1.82 0 0 0 0 .73c.15-.22.28-.43.39-.62a1.6 1.6 0 0 0 .22-.84z" transform="translate(-7.57 -7.4)"/><path d="m40.28 104.94c-.15.45-.26.82-.34 1.12a1 1 0 0 0 .34-1.12z" transform="translate(-7.57 -7.4)"/><path d="m35.74 111.73a3.13 3.13 0 0 1 0 .5c.07-.15.15-.3.23-.44a.83.83 0 0 0 -.12-.68.81.81 0 0 0 -.11.62z" transform="translate(-7.57 -7.4)"/><path d="m34.56 101.12a3.91 3.91 0 0 1 -.06.68c0 .22-.09.48-.17.78.38-.15.56-.37.56-.67a2.39 2.39 0 0 1 .12-.79c.14-.3.11-.45-.12-.45s-.33.15-.33.45z" transform="translate(-7.57 -7.4)"/><path d="m21.2 43.88a8.24 8.24 0 0 0 1.29-.56l1.18-.67c.6-.38 1.2-.73 1.8-1.07a21 21 0 0 1 1.9-.95 5.78 5.78 0 0 0 1.63-.63c.49-.3 1-.6 1.52-.9.82-.45 1.64-.91 2.47-1.4a20.7 20.7 0 0 1 2.58-1.29 9.19 9.19 0 0 1 1.9-.9 20 20 0 0 0 2-.78c1-.45 1.93-.88 2.87-1.29a23.06 23.06 0 0 1 3-1.07c.37-.15.75-.28 1.12-.39a5.12 5.12 0 0 0 1.13-.51 10.35 10.35 0 0 1 1.79-.9 17.73 17.73 0 0 1 1.8-.56 2.53 2.53 0 0 1 1.23-.11q-.23.67-.33.9c-.23.6-.45 1.16-.68 1.68a12 12 0 0 0 -.56 1.69q-.9 2.58-1.74 5.05c-.56 1.64-1.14 3.33-1.74 5-.37.89-.75 1.77-1.12 2.63s-.71 1.74-1 2.64-.43 1.63-.62 2.42a17.06 17.06 0 0 1 -.73 2.3c-.15.37-.28.73-.39 1.06s-.24.7-.39 1.07c-.38 1-.75 2.13-1.13 3.25s-.74 2.21-1.12 3.26c-.15.52-.3 1-.45 1.51a5.54 5.54 0 0 0 -.24 1.64 4.91 4.91 0 0 0 0 .67.61.61 0 0 1 -.16.57.67.67 0 0 0 -.17.61c0 .27-.13.32-.51.17a.92.92 0 0 0 -.11.34 1.06 1.06 0 0 0 -.11.45 12.54 12.54 0 0 1 -.45 2.35c-.23.75-.45 1.54-.67 2.36s-.47 1.82-.73 2.75-.51 1.85-.73 2.75c-.45 1.5-.88 3-1.29 4.55s-.77 3-1.07 4.54c-.3 1.28-.54 2.53-.73 3.76s-.43 2.49-.73 3.76c-.15.83-.26 1.61-.34 2.36s-.11 1.53-.11 2.36a3.73 3.73 0 0 0 -.11.84 2.48 2.48 0 0 1 -.11.73q-.23 1.13-.51 2.13a12 12 0 0 0 -.39 2c-.08.75.19 1.16.78 1.24a.74.74 0 0 1 .34.28 1 1 0 0 0 .34.28 1.39 1.39 0 0 1 .56-.34 1.08 1.08 0 0 0 .56-.67 6.41 6.41 0 0 0 .06 1c0 .26-.13.47-.51.62-.15.07-.11.3.11.67.08.15.13.17.17.06s.1-.17.17-.17c.23 0 .41-.19.56-.56a2 2 0 0 1 .23-.56c0-.23.11-.34.33-.34s.3.15.45.45a1.74 1.74 0 0 0 .06.45c0 .15.17.26.39.33s0 .21-.11.4a.48.48 0 0 0 0 .62.39.39 0 0 1 -.06.44q-.16.23.06.57a1.35 1.35 0 0 1 .11-.57c.07-.15.15-.3.23-.44a1.13 1.13 0 0 1 .56-.45q.22-.22.33 0c.08.15.15.22.23.22a1.23 1.23 0 0 0 .78-.45l.12.11c-.08.15 0 .27.28.34s.31.23.16.45-.18.34.12.34c.15.07.24.07.28 0a.2.2 0 0 0 -.06-.23 1.21 1.21 0 0 1 .56-1.12 3 3 0 0 1 -.61-.28s0-.17.16-.39a8 8 0 0 0 .34-1c.07-.3.15-.64.22-1a2.47 2.47 0 0 1 .12-.73 1 1 0 0 1 .67-.62.37.37 0 0 0 .23-.11c.14-.75.29-1.48.44-2.19a19.23 19.23 0 0 0 .34-2.19 2 2 0 0 0 -.22-1.68 2.13 2.13 0 0 0 -1.07.44 2.32 2.32 0 0 0 -.17 1.13.94.94 0 0 0 .11 1c-.37.15-.5.35-.39.61a1.81 1.81 0 0 1 .17.62.71.71 0 0 1 .06.45 1.74 1.74 0 0 0 -.06.45c-.23.67-.6.79-1.12.34l-.23-.12v.25c0 .07-.07.11-.22.11a.35.35 0 0 0 -.23-.11c-.07 0-.11-.07-.11-.22 0-.45.15-.64.45-.56s.52-.12.67-.57a2.87 2.87 0 0 1 .06-.61 3 3 0 0 0 .06-.62.53.53 0 0 0 -.28.56.94.94 0 0 1 -.17.67c-.15.23-.3.3-.45.23v-.45a1.68 1.68 0 0 0 .22-1.07 4.73 4.73 0 0 0 -.67-1 .22.22 0 0 0 -.06-.17.22.22 0 0 1 0-.17.44.44 0 0 1 0-.22.41.41 0 0 0 0-.34 2.12 2.12 0 0 0 -.23.56c-.07.3-.13.56-.17.79a1 1 0 0 1 -.28.56 1.12 1.12 0 0 0 -.28.67.92.92 0 0 0 .28.79 3.91 3.91 0 0 0 -.22 1.23c-.15.3-.26.41-.34.34a.37.37 0 0 0 -.56.06.63.63 0 0 1 -.45.28 6.27 6.27 0 0 1 .45-2.36 4.3 4.3 0 0 0 .23-2.36.45.45 0 0 0 -.23.45 13.57 13.57 0 0 0 -.67 3.48 2.07 2.07 0 0 0 -.17.45c0 .15-.21.11-.51-.11a.6.6 0 0 0 -.44-.11c-.23 0-.34.14-.34.44a.23.23 0 0 1 -.34.12.7.7 0 0 1 -.56-.79 6.89 6.89 0 0 1 .56-2.24c.3-.68.64-1.39 1-2.14a2.73 2.73 0 0 0 .34-1.23 1.57 1.57 0 0 1 .56-1.12c.22-.23.45-.47.67-.73a1.08 1.08 0 0 0 .23-1 .29.29 0 0 1 .33-.33c.15.07.21.15.17.22a.48.48 0 0 0 -.05.23 3.81 3.81 0 0 1 -.12 1 4.49 4.49 0 0 0 -.11 1c.15-.16.23-.25.23-.29a.27.27 0 0 1 .11-.16c.07-.38.13-.79.17-1.24a8.49 8.49 0 0 1 .15-1.08c0-.23.11-.34.33-.34s.11.15.11.45a1.73 1.73 0 0 1 0 .45 1.74 1.74 0 0 0 -.06.45c-.07.37-.15.69-.22 1a3.33 3.33 0 0 0 -.11 1c0 .44.11.71.33.78s.23-.06.23-.17.07-.2.22-.28c.52-.07.67-.45.45-1.12 0-.23 0-.34.11-.34a.72.72 0 0 0 .34-.33 1.67 1.67 0 0 1 .34-.45c.15.07.16.17.05.28s-.09.2.06.28c.15-.08.2-.23.17-.45s.09-.3.39-.22.19.3.11.44a.56.56 0 0 0 .11.56v-.56c0-.22.08-.33.23-.33s.22.11.22.33 0 .49.12.56a.86.86 0 0 1 .39.57 6.64 6.64 0 0 0 .17.78 1 1 0 0 0 .28-.56 1.68 1.68 0 0 1 .17-.56c.14-.6.29-1.2.44-1.8l.45-1.79a7 7 0 0 0 .28-1.46 5.9 5.9 0 0 1 .29-1.44q.8-2.13 1.41-4.26c.41-1.42.8-2.88 1.18-4.38.29-1.05.61-2.09.95-3.14s.65-2.1 1-3.15c.23-.37.27-.59.12-.67s-.4-.45-.28-.67.2-.41.28-.56a2 2 0 0 0 .22-.9 1 1 0 0 1 .56-.79c.08 0 .11-.15.11-.45a3.65 3.65 0 0 1 .23-1 31.38 31.38 0 0 0 1.23-3.25c.3-.9.58-1.82.85-2.75a26.8 26.8 0 0 0 .61-2.75 10.14 10.14 0 0 0 .28-1.68 4.84 4.84 0 0 1 .4-1.58 5.24 5.24 0 0 0 .45-1.29 5.89 5.89 0 0 1 .33-1.18c.3-1 .56-1.9.79-2.8s.48-1.8.78-2.7.6-1.62.9-2.41.6-1.59.9-2.41c.6-1.72 1.21-3.42 1.85-5.11s1.25-3.38 1.85-5.11c.38-1 .73-1.9 1.07-2.8a19.64 19.64 0 0 0 .84-2.92q.22-.68.39-1.35c.12-.45.25-.89.4-1.34a3 3 0 0 1 2-2 18.42 18.42 0 0 0 2.74-1.17l2.7-1.34a13.47 13.47 0 0 1 1.62-.79 7.07 7.07 0 0 0 1.63-.9 2.46 2.46 0 0 1 .51-.39.54.54 0 0 1 .61.06c.15.07.25.05.28-.06a.88.88 0 0 1 .17-.28c.08-.07.15 0 .23.11s.15.15.22 0c.08-.37.24-.58.51-.62a2 2 0 0 0 .61-.16c.83-.38 1.65-.71 2.47-1a13.47 13.47 0 0 0 2.36-1.13c.15-.15.19-.26.11-.33s-.07-.15-.22 0l-1 .39-1 .39a1.12 1.12 0 0 1 -1.12.23.63.63 0 0 1 -.34.22c0 .08-.07.11-.22.11 0-.07.07-.18.22-.33h.34a1.32 1.32 0 0 1 1.12-.68c.52 0 .79-.22.79-.67a1.86 1.86 0 0 0 -1.07.34 1.31 1.31 0 0 1 -1.18.11l1.35-.67v-.34c0-.07-.08-.11-.23-.11a1.75 1.75 0 0 1 -.67.28 4.11 4.11 0 0 0 -.67.17 4.72 4.72 0 0 1 0-.73c0-.26.21-.36.51-.28s.6 0 .67-.23a1.39 1.39 0 0 1 .34-.56c.3-.07.58-.13.84-.17a2.86 2.86 0 0 0 .84-.28 5.48 5.48 0 0 1 .84-.34l.85-.22c.14.22.26.3.33.22.3-.14.58-.29.84-.44l.85-.45a2.25 2.25 0 0 0 .56-.28.85.85 0 0 1 .56-.17 2.21 2.21 0 0 1 -1.12.45.53.53 0 0 1 -.34.56 2.49 2.49 0 0 0 -1 .67 5.67 5.67 0 0 1 -.84.79 6.68 6.68 0 0 0 1.69-.45c.52-.23 1.08-.45 1.68-.68a8.25 8.25 0 0 1 -1 .9 4.09 4.09 0 0 1 .9-.33c.3-.08.45-.34.45-.79a.37.37 0 0 1 .17-.34c.11-.07.2 0 .28.12s.24.18.28.11a.16.16 0 0 1 .16-.11 1.22 1.22 0 0 0 .9-.34 3 3 0 0 1 .79-.56c.22 0 .26-.15.11-.45s-.45-.38-.45-.45.11-.19.34-.34a.38.38 0 0 0 -.45.12.37.37 0 0 1 -.45.11.31.31 0 0 1 .06-.4q.16-.16-.06-.39a4.66 4.66 0 0 1 -1.12.68 2.93 2.93 0 0 0 -1 .67c-.3.15-.49.19-.56.11-.23-.15-.23-.34 0-.56a8.58 8.58 0 0 0 .95-1.12 2.06 2.06 0 0 1 1.18-.79 12.33 12.33 0 0 0 1.18-.56 11.29 11.29 0 0 1 1.18-.56c.52-.15 1-.28 1.51-.39s1-.25 1.52-.4c.22-.07.46-.15.73-.22a4.62 4.62 0 0 0 .84-.34c-1.12.15-2.19.32-3.2.51s-2 .43-3.09.73l-2.47.89-2.47.9q-2.36.9-4.65 1.85t-4.5 1.72c-1.5.53-2.92 1.05-4.27 1.58s-2.73 1-4.15 1.57c-.45.15-.75 0-.9-.34a1.7 1.7 0 0 0 -1.34-1.23c-.08 0-.19-.08-.34-.23a1 1 0 0 0 -.62-.56 4.62 4.62 0 0 1 -.84-.34.94.94 0 0 0 -1.27.25q-.67.9-1.35 1.74a7.32 7.32 0 0 0 -1.12 2c-.08.3-.17.6-.28.9s-.25.6-.4.9a.72.72 0 0 1 -.56.56c-.82.37-1.63.71-2.41 1s-1.59.64-2.42 1c-1 .37-2.07.73-3.08 1.07a22.11 22.11 0 0 0 -3.09 1.29 8.81 8.81 0 0 1 -1.23.61q-.68.29-1.35.51a4.32 4.32 0 0 1 -1 .28 2.84 2.84 0 0 0 -.9.28c-1 .3-1.91.6-2.8.9s-1.8.63-2.7 1c-1.27.45-2.54.93-3.81 1.46a39.54 39.54 0 0 1 -3.82 1.34c-.82.23-1.66.51-2.53.85s-1.7.61-2.52.84a14.82 14.82 0 0 0 -5.05 1.91c-1.12.44-2.1.78-2.92 1a5.73 5.73 0 0 0 -1.35.39c-.45.19-.89.39-1.34.62a2.31 2.31 0 0 1 -.9.44 2.87 2.87 0 0 0 -2.58 1.46 3.85 3.85 0 0 0 -.68 4 4.56 4.56 0 0 0 2.25 2.59 3.83 3.83 0 0 0 3.48-.12 9.51 9.51 0 0 1 1.46-.52 3 3 0 0 1 1.63 0h.22q1.13-.22 2.25-.39a6.06 6.06 0 0 0 2.1-.73zm11.22 61.17c-.22-.22-.26-.43-.11-.62a.83.83 0 0 0 .23-.5 1.19 1.19 0 0 1 -.12 1.12zm5.95.45c.15.3.11.49-.11.56-.26-.22-.19-.41.11-.56zm-.56-.9a.53.53 0 0 0 .06.51c.11.18.05.43-.17.73a3.56 3.56 0 0 0 -.06-.73.54.54 0 0 1 .17-.51zm-1-2.58c0-.15.07-.22.23-.22s.26.07.11.22a1.14 1.14 0 0 1 -.06.39 1.25 1.25 0 0 0 0 .4.86.86 0 0 1 -.12-.4 1 1 0 0 0 -.17-.41zm-1.81 3.54a4.11 4.11 0 0 1 .22-.51.6.6 0 0 1 .22.39 2.93 2.93 0 0 1 -.33.85.89.89 0 0 1 -.11-.73zm-.45-.85a1.42 1.42 0 0 1 -.12 1.24 1.42 1.42 0 0 1 .13-1.24zm8-23.23a2 2 0 0 1 -.23.9 1.15 1.15 0 0 1 .21-.9zm-.34 4.71a3.08 3.08 0 0 1 .05 1 5.7 5.7 0 0 1 -.5 1.18 3.52 3.52 0 0 1 .43-2.18zm-2.7 5.06c-.07-.08-.07-.13 0-.17a.19.19 0 0 0 .12-.17.28.28 0 0 1 0 .45c-.1 0-.14-.04-.14-.11zm.12 3.7c-.15-.23-.08-.45.22-.67.08 0 .11 0 .11.11s-.05.41-.35.61zm1.18-3.76a2.24 2.24 0 0 1 -.51 1.18 3.15 3.15 0 0 1 .23-1.24 6.88 6.88 0 0 1 .54-1.13 4 4 0 0 0 -.28 1.19zm-.12-9.88a11.55 11.55 0 0 1 -.5 1.74.31.31 0 0 0 -.11.23.31.31 0 0 1 -.12.22 2.27 2.27 0 0 1 0-1 15.31 15.31 0 0 1 .34-1.63l.45-1.68a7.15 7.15 0 0 1 .45-1.29 1.48 1.48 0 0 1 .17.84 2.86 2.86 0 0 1 -.28.84c-.17.59-.3 1.17-.42 1.73zm1.31 11.06a1.38 1.38 0 0 1 -.56-.17c-.22-.11-.3-.24-.22-.39a1.48 1.48 0 0 1 .56-1.24.3.3 0 0 1 .45 0 3.91 3.91 0 0 1 .45.39 2.39 2.39 0 0 0 -.68 1.41zm.68-1.91a.49.49 0 0 0 -.06.22c-.07-.32 0-.55.17-.67a1.06 1.06 0 0 1 -.15.45zm1.12-9.88c-.08.3-.15.64-.22 1a3.53 3.53 0 0 1 -.28.62c-.12.19 0 .39.28.62.14 0 .11.11-.12.33a2.28 2.28 0 0 0 -.67 1.24 9.53 9.53 0 0 1 -.34 1.35c-.37 0-.45-.12-.22-.34a9.53 9.53 0 0 0 .34-1.35 3.41 3.41 0 0 1 .43-1.22 1.5 1.5 0 0 0 .12-.68c0-.22.15-.41.45-.56a1.12 1.12 0 0 1 0-1 2.34 2.34 0 0 0 .22-1l.22.11c-.1.3-.18.58-.25.88zm42.61-68.35a6.7 6.7 0 0 1 .79-.34 1 1 0 0 1 -.28.34.36.36 0 0 0 -.17.34c-.15.22-.3.3-.45.22v-.11c-.08-.23-.04-.38.11-.45zm-1.79-.34a.41.41 0 0 1 0 .34.17.17 0 0 0 .06.22 2.28 2.28 0 0 0 -.28-.22c-.07-.08-.01-.23.22-.34zm-.45.79c.07 0 .11.07.11.22-.23.23-.34.3-.34.23s-.11-.08-.11-.23c.17-.15.26-.22.34-.22zm-1.41.45a2.8 2.8 0 0 1 .85-.23 1 1 0 0 0 -.12.45q0 .22-.33 0-.22 0-.45.45c-.08-.37-.06-.6.05-.67zm-3.76 1.12a.28.28 0 0 1 .45 0c.08.15 0 .3-.22.45a1.19 1.19 0 0 1 -.51.11.73.73 0 0 0 -.5.22 1 1 0 0 1 .78-.78zm-2.8 3.81v.23c-.15.15-.27.15-.34 0 .14-.15.26-.23.34-.23z" transform="translate(-7.57 -7.4)"/><path d="m35.45 97.53a2.35 2.35 0 0 0 -.45 1.91 4.09 4.09 0 0 1 .33-.9 1.5 1.5 0 0 0 .12-1.01z" transform="translate(-7.57 -7.4)"/><path d="m39.27 100.22a3 3 0 0 0 .11-.89v-.12h-.11a.86.86 0 0 0 -.06.51.51.51 0 0 1 -.16.5z" transform="translate(-7.57 -7.4)"/><path d="m244.44 55.55c.15 0 .22 0 .22-.17s.08-.13.23-.05a5.8 5.8 0 0 0 .67.39 2.21 2.21 0 0 1 .56.39.91.91 0 0 0 .56.34c0-.37 0-.58.12-.62a3.29 3.29 0 0 1 1 .17l.11-.11a1.22 1.22 0 0 1 1.12-1c.08 0 .11 0 .11-.06s0 0 .12 0a4.46 4.46 0 0 0 2.24-1.91 1.5 1.5 0 0 1 1.35-1 .31.31 0 0 1 .17-.11s.09 0 .16-.12c.6-.29 1-.39 1.13-.28s.41 0 .78-.28a1.52 1.52 0 0 0 .56-1.34 3.62 3.62 0 0 0 -.89-1.74 8.05 8.05 0 0 0 -1.8-1.41 1.08 1.08 0 0 0 -.62-.28 1 1 0 0 1 -.61-.28 3.81 3.81 0 0 0 -1.13-.45c-.37-.07-.78-.15-1.23-.22a4.78 4.78 0 0 1 -.73-.06 6.56 6.56 0 0 0 -.73-.05 1.63 1.63 0 0 0 -1.8.78.19.19 0 0 0 -.05.23c0 .07 0 .18-.17.33a2.48 2.48 0 0 0 -.45.85 10.25 10.25 0 0 1 -.45 1.06 2.58 2.58 0 0 1 -.39.62c-.11.11-.17 0-.17-.39-.38.82-.64 1.42-.79 1.79a6.89 6.89 0 0 0 -.33 1.8 3 3 0 0 0 -.23 1.12 1.61 1.61 0 0 0 .56 1.12 6.72 6.72 0 0 1 .8.94z" transform="translate(-7.57 -7.4)"/><path d="m295.45 61.5a.69.69 0 0 0 -.5.23 3.2 3.2 0 0 1 -1.29.78l-1.52.45c-1.95.83-3.89 1.63-5.84 2.41a52.57 52.57 0 0 0 -5.72 2.75c-.52.3-1.05.58-1.57.85l-1.69.84c-.67.37-1.34.78-2 1.23a20.12 20.12 0 0 1 -2.13 1.24v-4.16a11.76 11.76 0 0 0 -1-3.59 18.54 18.54 0 0 0 -1.23-2.3 20 20 0 0 1 -1.24-2.3 3.7 3.7 0 0 0 -1.46-1.35c-.52-.29-1-.56-1.51-.78s-1-.49-1.52-.79a2.1 2.1 0 0 0 -1.68-.22 8 8 0 0 0 -3.55 1.46 25.71 25.71 0 0 0 -2.86 2.47 24.13 24.13 0 0 0 -2.8 3.64 37.78 37.78 0 0 0 -2.25 4.1 2.09 2.09 0 0 1 -.45.56v.45c-.75 1.8-1.38 3.42-1.91 4.88s-1.08 3.18-1.68 5.17-1.16 4.09-1.68 6.34v.45a11.59 11.59 0 0 0 .11 3.64 10.82 10.82 0 0 0 1.23 3.32c.15.3.28.56.4.78l.39.79a6.72 6.72 0 0 0 4 4.15l.39.17a1.27 1.27 0 0 1 .4.28c.67.3 1.32.62 2 1a7.43 7.43 0 0 0 2.08.73c.44.08.91.17 1.4.28a2.47 2.47 0 0 0 1.4-.05 9.72 9.72 0 0 0 2.19-.73 9 9 0 0 0 2-1.29c.37-.38.72-.77 1.06-1.18a3.78 3.78 0 0 0 .73-1.52.4.4 0 0 1 .45-.45c.37-.07.6-.2.67-.39a5.35 5.35 0 0 0 .23-.73 25.44 25.44 0 0 1 1.46-4.26 28.88 28.88 0 0 0 1.46-4.16c.37-1.34.74-2.71 1.12-4.09s.67-2.75.9-4.1a2.58 2.58 0 0 1 .67-.45 11.34 11.34 0 0 0 2-1.12 23.38 23.38 0 0 0 1.86-1.46c1-.82 2.15-1.61 3.31-2.36s2.33-1.46 3.53-2.13a40 40 0 0 1 3.76-2 14.58 14.58 0 0 0 3.43-2.19 13.6 13.6 0 0 1 1.45-1.07 3.45 3.45 0 0 0 1.24-1.4.51.51 0 0 1 .28-.28 1.15 1.15 0 0 0 .39-.28 1 1 0 0 1 .56-.28 1 1 0 0 0 .56-.28 1.47 1.47 0 0 0 .57-1.8 1.06 1.06 0 0 1 -.6.1zm-30.7 7a8.12 8.12 0 0 0 -.11 1.24c-.07.82-.13 1.68-.17 2.58a11.48 11.48 0 0 1 -.39 2.58 23.72 23.72 0 0 1 -.62 2.69q-.39 1.35-.84 2.58c-.22.68-.45 1.33-.67 2a3.35 3.35 0 0 0 -.11 2 1.82 1.82 0 0 1 -.23.79 5.11 5.11 0 0 0 -.45 1.68 2.85 2.85 0 0 1 -.45 1.18c-.22.34-.45.69-.67 1.07-.38.52-.75 1-1.12 1.57a5.92 5.92 0 0 1 -1.35 1.34c-.67.68-1.16.53-1.46-.44a17.12 17.12 0 0 1 -.67-3.82 3.75 3.75 0 0 1 .11-1.12c.15-.6.3-1.16.45-1.69s.3-1.08.45-1.68a15.88 15.88 0 0 1 .5-1.63 13.13 13.13 0 0 0 .51-1.63 9.17 9.17 0 0 1 .62-1.73 10 10 0 0 0 .61-1.74 26.82 26.82 0 0 1 1.24-2.75c.45-.86.9-1.74 1.34-2.64a18 18 0 0 1 1.18-2 4.42 4.42 0 0 1 1.74-1.46.36.36 0 0 1 .45-.11 2.19 2.19 0 0 1 .11 1.1z" transform="translate(-7.57 -7.4)"/><path d="m320.07 112.09c.45 0 .29-.38.36-.46-.75.09-.34.57-.36.46z" transform="translate(-7.57 -7.4)"/><path d="m305.1 105.56.13-.17-1.09.41z"/><path d="m305.76 112.89c.65.72 2.5-.09 3.73.18l.2.16.57-.57a25.28 25.28 0 0 1 -4.5.23z" transform="translate(-7.57 -7.4)"/><path d="m303 111.41-.16-.08a6.43 6.43 0 0 1 -.7 0c.17.26-.85.21.86.08z" transform="translate(-7.57 -7.4)"/><path d="m302.79 111.33c.73 0-.47-.23 0 0z" transform="translate(-7.57 -7.4)"/><path d="m299.66 110.9c-1 .13-.79.29-.23.56l1-.24c-.24-.16-1.09-.22-.77-.32z" transform="translate(-7.57 -7.4)"/><path d="m298.52 112 .49-.1c-.08-.09-.21-.12-.49.1z" transform="translate(-7.57 -7.4)"/><path d="m299.5 111.8c-.09.21.12 0 .57-.14l-1.06.22c.14.12.15.34.49-.08z" transform="translate(-7.57 -7.4)"/><path d="m300.66 111.78c.54.16 1.23.26.27.5 1.84-.08 1.57-.59-.27-.5z" transform="translate(-7.57 -7.4)"/><path d="m305.4 113.63.72.21.62-.23c-.31.11-1.38-.21-1.34.02z" transform="translate(-7.57 -7.4)"/><path d="m293.46 111.05c-.06.15.32.4.39.6l.71-.17c-.37-.11-1.06-.21-1.1-.43z" transform="translate(-7.57 -7.4)"/><path d="m293.85 111.65-1.06.25c.94.04 1.12-.08 1.06-.25z" transform="translate(-7.57 -7.4)"/><path d="m290.77 105.37 1.74-.54-2.08.54z"/><path d="m281.37 103.77.47-.18.6-.34z"/><path d="m286.59 110.36a6.43 6.43 0 0 0 -1.92.52 4 4 0 0 1 2.05.16c.45-.29-.6-.5-.13-.68z" transform="translate(-7.57 -7.4)"/><path d="m284.67 110.88a3.49 3.49 0 0 0 -.94.32 7 7 0 0 0 .94-.32z" transform="translate(-7.57 -7.4)"/><path d="m290.15 111.37.41.43h.44a1.2 1.2 0 0 0 -.85-.43z" transform="translate(-7.57 -7.4)"/><path d="m290.58 111.82h-.9z" transform="translate(-7.57 -7.4)"/><path d="m291 111.81s.06.06.11 0z" transform="translate(-7.57 -7.4)"/><path d="m294.89 113.21c.45-.28-.27-.5.67-.85-.62.23-1.92.48-.67.85z" transform="translate(-7.57 -7.4)"/><path d="m292.81 112.06-1.21.29 1.12.11c-.02-.11-.22-.28.09-.4z" transform="translate(-7.57 -7.4)"/><path d="m283.48 105.08.55-.13-.42-.04z"/><path d="m285.66 111.61a5.19 5.19 0 0 1 -1.63.22 14.32 14.32 0 0 0 2 .14c.04-.13.32-.37-.37-.36z" transform="translate(-7.57 -7.4)"/><path d="m288.05 111.75h-.11c.06.06.12.07.11 0z" transform="translate(-7.57 -7.4)"/><path d="m270.64 104.47.03-.07h-.12z"/><path d="m286.08 112.05a1.53 1.53 0 0 0 1.05-.14 10.39 10.39 0 0 1 -1.13.09c-.06 0-.07.07.08.05z" transform="translate(-7.57 -7.4)"/><path d="m282.08 111.38a7.71 7.71 0 0 0 .84.24c-.25-.13-.75-.35-.84-.24z" transform="translate(-7.57 -7.4)"/><path d="m287.78 111.65h.07c-.16-.11-.14-.06-.07 0z" transform="translate(-7.57 -7.4)"/><path d="m287.13 111.91a5.66 5.66 0 0 0 .81-.14.48.48 0 0 1 -.16-.12 3.52 3.52 0 0 0 -.65.26z" transform="translate(-7.57 -7.4)"/><path d="m277.06 112.44c.39.22 2.47.51 1.53.87-1.47.2-1.21-.15-1.92-.36.6.5-1.88.71-1.56 1.44l1.29-.25c0 .11-.44.29-.09.39.09-.39 1.37-.75 2.46-.32 1.08-.3.38-1.6-.56-2.33-.03.17-.03.33-1.15.56z" transform="translate(-7.57 -7.4)"/><path d="m278.24 111.8 2.25.07-.16.06.46-.05a5.15 5.15 0 0 1 -1.58-.55c-.76.19-.92.34-.97.47z" transform="translate(-7.57 -7.4)"/><path d="m283 111.65c.1 0 .13.08 0 0a.54.54 0 0 1 -.1.16c-.63-.09-.1-.11.1-.16 0 0 0 0 0-.06l-2.17.23a13.22 13.22 0 0 0 2.06 0c-.36.42-1.46.6-.79 1.07 1.34 0 .94-.35 1.74-.53-2.16.09.63-.24-.94-.5.43-.06.81-.08 1.17-.1a9.11 9.11 0 0 1 -1.11-.21z" transform="translate(-7.57 -7.4)"/><path d="m293.73 114.13c-.07 0-.07-.07-.07-.1s-.2.09.07.1z" transform="translate(-7.57 -7.4)"/><path d="m293.77 113.51-.15.06a5.72 5.72 0 0 1 -1.77-.66 3.13 3.13 0 0 0 1 1 1.12 1.12 0 0 1 .8-.19c.44.14 0 .21 0 .35.35-.15 1.09-.34.12-.56z" transform="translate(-7.57 -7.4)"/><path d="m291.85 112.91s-.05-.06-.07-.1 0 .05.07.1z" transform="translate(-7.57 -7.4)"/><path d="m286.89 113.56-.05-.22c1 .09.81-.18.94-.36l-1.81.2z" transform="translate(-7.57 -7.4)"/><path d="m269.54 104.36.8-.18.25-.45z"/><path d="m268.08 103.83-.62.24.53.16z"/><g transform="translate(-7.57 -7.4)"><path d="m143.26 120.13-.52.15a2.44 2.44 0 0 0 .52-.15z"/><path d="m217.82 112c-.78-.35-1.66-.91-1.56-.46l.25.42a3.45 3.45 0 0 1 1.31.04z"/><path d="m178.38 115.79.23.12.51-.43z"/><path d="m176.89 117.37a4.92 4.92 0 0 0 1 .24z"/><path d="m122.43 122.36-.57.5c.96-.09.52-.28.57-.5z"/><path d="m251.49 111.76a8.67 8.67 0 0 0 -1.67-.25c.81.24 1.46.62 1.67.25z"/><path d="m144.43 115.42c-.32.1-.45.2-.43.3.33-.1.51-.2.43-.3z"/><path d="m247.89 111.51.35.1a7.83 7.83 0 0 1 1.58-.1 2.62 2.62 0 0 0 -1.93 0z"/><path d="m47.27 132.7h-.18c-.01.04.07.03.18 0z"/><path d="m25.55 132.79a3.12 3.12 0 0 0 -.89.23c.21-.02.56-.15.89-.23z"/><path d="m266.11 111.4c.49 0 .07-.05 0 0z"/><path d="m268.33 113.34a.35.35 0 0 1 .2-.21c-.11.05-.19.11-.2.21z"/><path d="m242.94 114.23c.06.09.06.07 0 0z"/><path d="m266.86 111.6a5.15 5.15 0 0 0 -.64-.13 3.28 3.28 0 0 0 .64.13z"/><path d="m266.75 111.4h.44c.06-.03.01-.08-.44 0z"/><path d="m266.11 111.4h-.7a6.91 6.91 0 0 1 .81 0c-.1.04-.14.02-.11 0z"/><path d="m87.23 124.91a.53.53 0 0 1 -.12 0c-.47.22-.25.16.12 0z"/><path d="m205 116.77h.06-.07z"/><path d="m203.18 117.14a1.88 1.88 0 0 1 1.76-.41l-.63-1.23z"/><path d="m273.15 111.34c.85.88-3.56 0-2.19.88-1-.83-1.75-.36-3.07-1.06 0 .2.47.39-.7.28a1.32 1.32 0 0 1 -.26.18h-.07.06c-.05 0-.06 0 0 0a1.23 1.23 0 0 1 .6.31c-.58.46-2.44.44-3.07.67-.69-.1.29-.23-.08-.44l-.94.35c-.09-.45-1.84-.74-.21-1h-1.47a6 6 0 0 0 -2.78-.15c-.7-.1-1.75.5-1.15.15l-2.3.28v-.11c-2.28-.06-4.68.75-7.28-.06a9.65 9.65 0 0 1 -2.83.13l-.25-.39c-1 .14-3-.36-3.38.05-1.06-1-4.77-.18-6.49-.35l-.07.51a22.9 22.9 0 0 0 -3.8.35l.1.45c-1.27.38-3.28-.29-5.29-.22.14-.18.65-.14 1 0-2.42-1-5.06.83-7.25.12a2.06 2.06 0 0 1 -1.32 0h.13a1.6 1.6 0 0 0 -.22 0c-.24-.07-.49-.16-.76-.23a2.94 2.94 0 0 0 .64.23 13 13 0 0 0 -1.68.21l-.27-.48h-.14c-.62-.16-.49.24-.16.59a4.27 4.27 0 0 0 -.82.31c-.51-.77-1.63.29-2.32-.52-.41.41-3.13.36-3.44 1.22 0-.11-.21-.16.13-.17a4 4 0 0 0 -2 .08l-.31-.6-1.5.85c-.93-.34-1.31-.55-.41-1-2.19.8-1.79.33-3.64 1.11l.08-.4c-.67 0-1.73.6-2.15.28-1.52-.7-7.43.13-11.31-.45.79 1.14-1.81-.47-1.93.45-.23-.26-.78-.4-.16-.66-2 .35-3-.31-4.3.51-.24-.27.4-.42.19-.58-.15.07-.61.27-.82.12s.28-.25.58-.38c-2 .13-2.17 1-2.28 1.79a2.06 2.06 0 0 0 -2.26.3c-.36-.24-1-.49.28-.64-.7 0-4.31-.19-4.35.45a2 2 0 0 0 -1.16.08c-1.58 0-1.72 0-3.27.11l.44.09c-.57.79-1.28.22-2.52.4v-.09c-2.89-.38-1.22.34-4.07-.12l.18.47c-.21 1-2.53-.46-4.15 0l.61.24c-.41.19-1-.08-1.62-.42.19-.52.38-1 .54-1.56a1 1 0 0 1 .22-.34 1.43 1.43 0 0 0 .22-.34 3.94 3.94 0 0 0 .79-1 8.63 8.63 0 0 0 .45-1.12c.22-.9.45-1.82.67-2.75s.45-1.85.68-2.75c.14-.67.29-1.33.45-2s.29-1.26.44-1.86a44.06 44.06 0 0 0 .85-6.62 53.61 53.61 0 0 1 .73-6.62c.07-.52.14-1 .22-1.57a15.8 15.8 0 0 1 .34-1.69.45.45 0 0 0 .11-.33 4.82 4.82 0 0 0 -.11-1.24 4.47 4.47 0 0 1 -.12-.89 3 3 0 0 0 -.11-.79v-1.14a23.72 23.72 0 0 0 2.08-1.18 11.54 11.54 0 0 0 1.85-1.52.69.69 0 0 1 .23-.16 1.46 1.46 0 0 0 .22-.17 9.18 9.18 0 0 0 1.79-1.46q.67-.67 1.35-1.41a10.45 10.45 0 0 1 1.46-1.29.65.65 0 0 0 .17 0c-.1.25-.19.52-.28.76-.52 1.46-1.09 3.18-1.69 5.17s-1.15 4.09-1.68 6.34v.45a11.9 11.9 0 0 0 .11 3.64 10.85 10.85 0 0 0 1.24 3.32l.39.78.39.79a6.75 6.75 0 0 0 4.1 4.13l.4.17a1.15 1.15 0 0 1 .39.28c.67.3 1.33.62 2 1a7.55 7.55 0 0 0 2.08.73c.45.08.92.17 1.4.28a2.5 2.5 0 0 0 1.41-.05 10.06 10.06 0 0 0 2.19-.73 8.74 8.74 0 0 0 2-1.29c.37-.38.73-.77 1.07-1.18a4.06 4.06 0 0 0 .73-1.52c0-.3.14-.45.44-.45s.6-.2.68-.39a5.53 5.53 0 0 0 .22-.73 26.37 26.37 0 0 1 1.46-4.26 26.65 26.65 0 0 0 1.46-4.16c.37-1.34.75-2.71 1.12-4.09a39.79 39.79 0 0 0 .9-4.1 2.58 2.58 0 0 1 .67-.45 11.43 11.43 0 0 0 2-1.12c.63-.45 1.25-.94 1.85-1.46 1-.82 2.15-1.61 3.31-2.36s2.34-1.46 3.54-2.13l.25-.14c-.09.59-.18 1.18-.25 1.77-.15 1.16-.3 2.34-.45 3.53-.08.83-.13 1.65-.17 2.47s-.06 1.65-.06 2.47.13 1.5.17 2.25a14 14 0 0 1 -.06 2.24 14.29 14.29 0 0 0 .45 3.59c.3 1.13.64 2.21 1 3.26.23.75.42 1.33.56 1.74s.3.77.45 1.06a6.59 6.59 0 0 0 .51.85c.18.26.47.61.84 1.06a2.49 2.49 0 0 0 .5.56c.19.15.4.3.62.45a3.18 3.18 0 0 1 1.13.68c.29.22.61.44.95.67a3.13 3.13 0 0 0 1.07.45c.67.07 1.32.17 2 .28a4.43 4.43 0 0 0 1.85-.06 8.92 8.92 0 0 0 4.27-1.34c.52-.38 1-.73 1.4-1.07l1.29-1.07a14.53 14.53 0 0 0 1.36-1.63 6.29 6.29 0 0 0 .88-1.4 2.46 2.46 0 0 0 .69 1c.08.08.12.3.12.68s-.15.71-.23 1-.15.59-.22.89c.15 1 .56 1.54 1.23 1.69a1.63 1.63 0 0 1 1.46.67 1.48 1.48 0 0 0 2.13.67 3.36 3.36 0 0 0 1-.84 1.64 1.64 0 0 1 1.06-.61c.15-.16.23-.27.23-.34.3-.75.62-1.48 1-2.19s.69-1.44 1.07-2.19c.52-1.27 1-2.52 1.51-3.76s1-2.52 1.41-3.87.76-2.32 1.18-3.37.84-2.17 1.29-3.37c.29-.67.59-1.38.89-2.13s.6-1.46.9-2.13a17.52 17.52 0 0 0 1-1.85c.3-.64.6-1.25.9-1.85a25.31 25.31 0 0 0 1.46-3.26 14.3 14.3 0 0 0 .39-1.4 2.79 2.79 0 0 0 -.17-1.63c-.3-.52-.6-1-.89-1.46a4.83 4.83 0 0 0 -1.29-1.27 18.63 18.63 0 0 0 -2.46-1.74 4.27 4.27 0 0 0 -2.58-.62 3.17 3.17 0 0 0 -2.08.17 3.93 3.93 0 0 0 -1.17 1.29c-.16.45-.27.75-.34.9-.6 1.49-1.22 3-1.85 4.54s-1.29 3-2 4.55a56.78 56.78 0 0 0 -2.8 7.85l-.3 1.07a9.13 9.13 0 0 1 -.49.84 1.87 1.87 0 0 0 -.56.62q-.22.39-.45.84l-.9 1.8a11.69 11.69 0 0 1 -1 1.68c-.52.75-1 1.48-1.46 2.19a16.45 16.45 0 0 1 -1.56 2.08 16 16 0 0 1 -1.91 2 8.68 8.68 0 0 1 -1.68 1 4.28 4.28 0 0 1 -1.35.78 2 2 0 0 1 -1.57-.22h-.34a2.47 2.47 0 0 1 -1.57-1.24 18.9 18.9 0 0 1 -2.13-6.51 3.57 3.57 0 0 1 -.06-1 7.52 7.52 0 0 0 .06-1c.07-.89.13-1.79.17-2.69a13.75 13.75 0 0 1 .39-2.69 6.13 6.13 0 0 1 .62-1.58 4.88 4.88 0 0 1 1.07-1.23 2.22 2.22 0 0 0 .44-.56 18.41 18.41 0 0 0 2-2.86q.84-1.52 1.74-3.09a6.94 6.94 0 0 0 .45-.79l.45-.89c.52-.9 1-1.8 1.46-2.7s.89-1.75 1.34-2.58l.9-1.8c.3-.59.64-1.19 1-1.79a11.72 11.72 0 0 0 .95-1.91l.85-2.13c.45-1.12 1-2.28 1.57-3.48.3-.52.6-1 .9-1.52a4.16 4.16 0 0 0 .56-1.62c.15-.45.37-.68.67-.68s.52-.22.67-.67a7.79 7.79 0 0 1 .45-1c.15-.27.3-.55.45-.85.52-.82 1-1.64 1.46-2.47a15.59 15.59 0 0 0 1.12-2.58c.15-.37.3-.73.45-1.06s.3-.69.45-1.07q.45-1.12.84-2.13c.26-.68.54-1.42.84-2.25a17.14 17.14 0 0 0 .73-2.63c.19-.94.4-1.86.62-2.75a5.35 5.35 0 0 0 .11-2.87 10.8 10.8 0 0 0 -1-2.52 3.43 3.43 0 0 0 -.45-.56 3.31 3.31 0 0 1 -.44-.56 3.25 3.25 0 0 0 -2.7-1.13 5.26 5.26 0 0 0 -3 1 1.42 1.42 0 0 0 -.34.23.45.45 0 0 1 -.33.11c-.6 0-1.09.41-1.46 1.23-.38.45-.77.9-1.18 1.35a17.45 17.45 0 0 0 -1.27 1.53 15.74 15.74 0 0 1 -1.23 1.52 11.35 11.35 0 0 0 -1.24 1.62q-1.23 2-2.69 4c-.75 1.05-1.46 2.14-2.13 3.26s-1.31 2.24-1.91 3.37c-.75 1.34-1.44 2.73-2.08 4.15s-1.25 2.84-1.85 4.26c-1 2.4-1.87 4.94-2.69 7.64a11.42 11.42 0 0 1 -.57 1.68 11.82 11.82 0 0 0 -.56 1.68c-.15.53-.3 1-.45 1.46s-.29.9-.44 1.35a22.39 22.39 0 0 0 -.85 3.31v.31c-1.44.64-2.87 1.32-4.27 2.1-.52.3-1 .58-1.57.85l-1.68.84c-.67.37-1.35.78-2 1.23a21.17 21.17 0 0 1 -2.13 1.24v-4.12a11.76 11.76 0 0 0 -1-3.59 20 20 0 0 0 -1.24-2.3 18.54 18.54 0 0 1 -1.23-2.3 3.77 3.77 0 0 0 -1.46-1.35c-.53-.29-1-.56-1.52-.78s-1-.49-1.51-.79a2.11 2.11 0 0 0 -1.69-.22 8 8 0 0 0 -3.53 1.46 24.83 24.83 0 0 0 -2.86 2.47 24.19 24.19 0 0 0 -2.81 3.64q-.66 1.06-1.26 2.16a5.48 5.48 0 0 1 -.54.59c-1 .83-2.07 1.63-3.08 2.42s-2 1.51-3.09 2.19a8.85 8.85 0 0 0 -1.91 1.45 8.5 8.5 0 0 1 -1.79 1.46 7.36 7.36 0 0 1 -1.46 1 11.32 11.32 0 0 0 -1.57 1 4.14 4.14 0 0 0 -.28-.78 3.84 3.84 0 0 1 -.28-.79v-.34a1.87 1.87 0 0 0 -1-1.46c-.38-.44-.73-.87-1.07-1.29a7.13 7.13 0 0 0 -1.07-1.06c-.15 0-.22-.11-.22-.34a2 2 0 0 0 1-.45c.26-.22.47-.41.62-.56a9.92 9.92 0 0 0 2.58-2.69c.45-.6.86-1.18 1.24-1.74a15.82 15.82 0 0 1 1.23-1.63 14.64 14.64 0 0 0 1.68-2c.53-.75 1-1.46 1.46-2.13a4.93 4.93 0 0 0 .9-2c.67-1.13 1.37-2.27 2.08-3.43a14.87 14.87 0 0 0 1.63-3.76c0-.07.07-.18.22-.33.3-.68.62-1.31 1-1.91s.7-1.2 1.07-1.8a3.62 3.62 0 0 0 .34-1.91 3 3 0 0 1 .33-1.34 4.13 4.13 0 0 0 .34-.9 4.13 4.13 0 0 1 .34-.9 1.07 1.07 0 0 1 .17-.28 1.63 1.63 0 0 0 .16-.28 1.8 1.8 0 0 0 .29-.62c0-.18.09-.43.16-.73a7.05 7.05 0 0 0 .23-1.74 13.11 13.11 0 0 1 .11-1.74 6 6 0 0 0 -1.91-4.82 3.49 3.49 0 0 1 -.9-1.8 2.11 2.11 0 0 0 -.67-1.23 5 5 0 0 0 -2.19-1.18 5.27 5.27 0 0 0 -2.3-.06 7.94 7.94 0 0 0 -3.82 2c-.37.38-.71.72-1 1a7.31 7.31 0 0 1 -1.12.9 8.17 8.17 0 0 0 -.73 1.07 7.24 7.24 0 0 1 -.73 1.06 22.35 22.35 0 0 0 -1.51 2.36c-.41.75-.81 1.54-1.18 2.36-.6 1.27-1.22 2.54-1.85 3.81s-1.26 2.55-1.85 3.82c-.24.56-.5 1.1-.77 1.62a2 2 0 0 1 -.35 0 19.07 19.07 0 0 0 -3.93-.05q-2 .17-3.93.39l-1.63.05-1.51.23c-.38 0-.53-.11-.45-.34a2.79 2.79 0 0 1 .22-1.23 5.84 5.84 0 0 0 .56-1.29 5.38 5.38 0 0 1 .68-1.41 4.74 4.74 0 0 0 1.07-2.52 4.84 4.84 0 0 0 -.4-2.19 6.85 6.85 0 0 0 -1.29-1.91 15.65 15.65 0 0 0 -1.88-1.66 2.2 2.2 0 0 0 -1.12-.51 4.25 4.25 0 0 1 -1.13-.28c-.15-.07-.24-.09-.28-.06a.21.21 0 0 1 -.17.06 5 5 0 0 0 -1.12.9c-.52.9-1.12 1.87-1.79 2.92-.45.75-.88 1.49-1.29 2.24s-.85 1.5-1.3 2.25c-.67 1-1.3 2-1.9 3s-1.16 2-1.69 3.09a.75.75 0 0 1 -.67.33 10.13 10.13 0 0 1 -1.52.12h-1.51l-3.2.22a21.36 21.36 0 0 1 -3.2 0c.3-.67.6-1.33.9-2a16.72 16.72 0 0 1 1-1.86l.84-1.68a8.19 8.19 0 0 0 .62-1.68 2.78 2.78 0 0 1 .67-1.24q.23-.45.45-.84a3.44 3.44 0 0 0 .34-.84 3.58 3.58 0 0 0 -.06-2.25 8.28 8.28 0 0 0 -1.06-1.9 3.67 3.67 0 0 0 -1.3-1c-.48-.23-1-.45-1.4-.68a1 1 0 0 0 -1.35.12 2.41 2.41 0 0 0 -1 1.23.44.44 0 0 1 -.33.45 2 2 0 0 0 -.56.56l-.45.67c-.53.83-1 1.61-1.52 2.36s-1 1.53-1.63 2.36q-1.34 1.9-2.69 3.87t-2.58 4.1a.6.6 0 0 1 -.67.45 21.46 21.46 0 0 0 -3-.23c-1 0-2 0-3-.11a28.37 28.37 0 0 1 -3.65-.23 28.91 28.91 0 0 1 -3.54-.67c-.9-.15-1.76-.34-2.58-.56a15.1 15.1 0 0 0 -2.58-.45 3.89 3.89 0 0 1 -1.68-.67 1.6 1.6 0 0 0 -.85-.51c-.26 0-.58-.09-1-.17a1.16 1.16 0 0 0 -1.12.68 1.85 1.85 0 0 0 -.4 1.68 3 3 0 0 0 .73 1.68 6.4 6.4 0 0 0 .57.73l.67.85a3.59 3.59 0 0 0 2.77 1.82l.85.23a3.22 3.22 0 0 0 .84.11 2 2 0 0 1 .9.22 6.75 6.75 0 0 1 .74.44 7.94 7.94 0 0 0 .79.45c.82.23 1.62.41 2.41.56a5.34 5.34 0 0 0 2.41-.11h.79a14.22 14.22 0 0 0 1.63.11h1.51c.38 0 .77 0 1.18-.05a5.14 5.14 0 0 1 1.29.05 1.84 1.84 0 0 0 -.28.62.93.93 0 0 1 -.28.5 21 21 0 0 0 -1.57 2.81q-.67 1.45-1.35 3c-.37 1-.78 1.95-1.23 2.92s-.86 2-1.24 3-.72 2.14-1.14 3.14a30.31 30.31 0 0 0 -1.06 3.26c-.27.91-.5 1.79-.71 2.67-.52.5-1 1-1.53 1.59l-1.86 2.08c-.63.71-1.25 1.44-1.85 2.19-.45.52-.75.86-.9 1a1.52 1.52 0 0 0 -.89 1.23 2 2 0 0 0 -1.18.23 1.94 1.94 0 0 0 -.51.89l.45-.22c0 .3-.19.52-.56.67v-.11c0-.07 0-.11-.06-.11s-.05 0-.05-.11a.8.8 0 0 1 -.23.16 1.09 1.09 0 0 0 -.22.17 8.74 8.74 0 0 0 -.39.9 1.88 1.88 0 0 1 -.4.67 7.44 7.44 0 0 0 -.78.34c-.15.08-.28.15-.4.23s0 .26.28.56a1.06 1.06 0 0 0 -.95.22c-.26.23-.5.45-.73.68a12.45 12.45 0 0 1 -.84 1l-.84.84a1.1 1.1 0 0 1 -.79-.22q.12 0 0-.12a2.35 2.35 0 0 1 -.34-1.62c.08-.64.23-1.48.45-2.53.3-1.27.55-2.22.73-2.86a18.62 18.62 0 0 1 1.18-2.75 9.49 9.49 0 0 0 .68-1.8 17 17 0 0 1 .56-1.9 15.18 15.18 0 0 0 .5-1.69 25.57 25.57 0 0 1 1.52-3.81c.22-.53.41-1 .56-1.52a13.14 13.14 0 0 1 1.12-2.3l.84-1.68c.41-.83.69-1.42.84-1.8a7.44 7.44 0 0 1 .57-1.29 8.24 8.24 0 0 0 .56-1.29c.15-.52.29-1 .45-1.46a3 3 0 0 0 0-1.57 2.94 2.94 0 0 1 -.34-1.35c0-.3-.19-.45-.56-.45-.45-.15-.71-.33-.79-.56a1.1 1.1 0 0 0 -1-.56 2.43 2.43 0 0 1 -1.23-.56 1.75 1.75 0 0 1 -1.13 1.46 1.63 1.63 0 0 0 .34-.56.87.87 0 0 1 .28-.34c.11-.07.1-.19 0-.34s-.19-.07-.34 0a.8.8 0 0 0 -.34.34 4.69 4.69 0 0 0 -.22.56 4 4 0 0 1 -.23.56 1 1 0 0 0 -.28.45 1 1 0 0 1 -.28.45 42.34 42.34 0 0 0 -4.6 5.39 3.92 3.92 0 0 1 -.56.45 2 2 0 0 0 -.56.56 34.14 34.14 0 0 1 -2.64 3.37 16.92 16.92 0 0 0 -2.41 3.47 7.49 7.49 0 0 1 -.84 1.46q-.51.67-1 1.35-2.48 3.48-5 6.9t-5.11 6.79a6.64 6.64 0 0 1 -1.12 1.24v-.34c-.41-.17-.46-1.89-.05-2.75a24 24 0 0 1 1.4-2.52q1.24-2.25 2.53-4.44t2.75-4.32c.52-.75 1-1.46 1.57-2.13a11.37 11.37 0 0 0 1.35-2.25 11.74 11.74 0 0 1 3-3.47 6.31 6.31 0 0 0 .5-.57c.19-.22.36-.41.51-.56a23.06 23.06 0 0 1 1.57-2.19c.52-.63 2-1.32 2.57-2.07.37-.52.71-1 1-1.46a1.74 1.74 0 0 0 .11-.18l.09-.08h.07a4.64 4.64 0 0 0 2-.36 3.45 3.45 0 0 0 1.85-4.33c-.73-2.16-2.92-3-5-2.88-.4-.08-.8-.14-1.18-.18a2.07 2.07 0 0 0 -1.28.35h-.12c-.45.22-.92.46-1.4.73a5.38 5.38 0 0 0 -1.29 1c-.75.67-2.48 1.35-3.19 2s-1.54 1.39-2.29 2.1q-2.58 2.8-4.88 5.78c-1.54 2-3 4.06-4.44 6.23-.37.6-.77 1.2-1.18 1.8s-.84 1.2-1.29 1.79c-.3.38-.6.75-.89 1.13s-.44 1.12-.74 1.49c-2.16 4.38-3 6.7-3.44 9.58a35.48 35.48 0 0 0 -.32 7.33.46.46 0 0 1 .45.34 4.7 4.7 0 0 0 1.23 2c.15.22.32.45.5.67a7.53 7.53 0 0 1 .51.68 3.58 3.58 0 0 0 2.24 1.45 3.46 3.46 0 0 0 2.41-.06 2.53 2.53 0 0 0 1.57-1.12c.23-.37.41-.33.56.11a1.08 1.08 0 0 0 1.58.57 5.84 5.84 0 0 0 1.4-1.13 5.08 5.08 0 0 1 1.48-1.12l.12-.11a3.24 3.24 0 0 1 .56-1 4.24 4.24 0 0 0 .56-.84 1.71 1.71 0 0 1 .78-.9 6.12 6.12 0 0 0 1.35-1.57 27.58 27.58 0 0 1 1.63-2.71q.9-1.29 1.8-2.52a.79.79 0 0 1 .79-.23c.15.08.2.15.16.23a.91.91 0 0 0 0 .33 1.43 1.43 0 0 1 0 .68 5 5 0 0 0 0 .67l-.45.23a10.09 10.09 0 0 1 .28 1.79c0 .6.09 1.2.17 1.8a3.73 3.73 0 0 1 .11.84 3.73 3.73 0 0 0 .11.84 5 5 0 0 0 .45.9 6.94 6.94 0 0 1 .45.79c.07 0 .11 0 .11.05s0 .06.12.06a4.53 4.53 0 0 0 1.12.89 7.32 7.32 0 0 0 5.78 1.13 12 12 0 0 0 5.5-3.26l1.18-1.18a10.43 10.43 0 0 1 1.41-1.17l.67-.68a3 3 0 0 0 .56-.78 5.32 5.32 0 0 1 1.23-1.69l1.18-1.18a6.49 6.49 0 0 0 1.07-1.4 1.09 1.09 0 0 0 .17-.22.68.68 0 0 1 .17-.23c.23-.26.44-.53.67-.79-.1.9-.21 1.8-.34 2.7a18 18 0 0 0 0 2.75c.08.94.19 1.85.34 2.75a18.69 18.69 0 0 0 .61 2.58 14.65 14.65 0 0 0 1.07 2.47 8.36 8.36 0 0 0 3.48 3.7c.3.15.58.29.84.4s.54.24.84.39a1.53 1.53 0 0 0 1 .23 1.79 1.79 0 0 1 .79.22 3.52 3.52 0 0 0 2 .45 10.4 10.4 0 0 0 2.08-.56 5.88 5.88 0 0 0 1.29-.62l1.29-.84a3.91 3.91 0 0 0 .39-.45 2.33 2.33 0 0 1 .51-.46.35.35 0 0 0 .11-.22.53.53 0 0 1 .06-.51l.28-.5c.15-.45.3-.88.45-1.3a1.52 1.52 0 0 0 -.34-1.4 1.06 1.06 0 0 0 -.11-.45h-.34c-.37-.07-.67.11-.9.56a6.75 6.75 0 0 1 -.89 1.46c-.45.53-.79.68-1 .45s-.58-.28-.85-.39a2.31 2.31 0 0 1 -.73-.51c-.37-.15-.56-.26-.56-.33a13.35 13.35 0 0 1 -1.06-5.28 40.42 40.42 0 0 1 .45-6.56 67.31 67.31 0 0 1 1.46-7.3c.63-2.51 1.36-5 2.18-7.46a39.84 39.84 0 0 1 1.58-4l1.79-4a22.94 22.94 0 0 1 1-2.36 22.94 22.94 0 0 0 1-2.36 6.16 6.16 0 0 1 .68-1.51 12.1 12.1 0 0 0 .78-1.52 1.26 1.26 0 0 1 .67-.45 3.51 3.51 0 0 1 1.41-.16 1.83 1.83 0 0 0 1.29-.4 1.28 1.28 0 0 1 .9-.28 7.52 7.52 0 0 0 1 .06 28.19 28.19 0 0 0 3.92-.68c.38-.07.75-.12 1.13-.16s.74-.1 1.12-.17q.1.33 0 .45a17.57 17.57 0 0 0 -1.35 2.58c-.37.9-.75 1.76-1.12 2.58a33.14 33.14 0 0 1 -1.35 3.2q-1 2.19-2.3 5.33c-.86 2.1-1.72 4.47-2.58 7.13a74 74 0 0 0 -2.19 8.58 41.58 41.58 0 0 0 -.78 5.73 23.4 23.4 0 0 0 .33 6.06 15.57 15.57 0 0 0 2.08 5.33 8.2 8.2 0 0 0 4.55 3.42.43.43 0 0 0 .44 0 .38.38 0 0 1 .45.12 1.22 1.22 0 0 0 .68.22h.66a9.2 9.2 0 0 0 1.07-.06 2.27 2.27 0 0 1 1.06.17 1.19 1.19 0 0 0 1 0 3.22 3.22 0 0 0 .87-.11 1 1 0 0 0 .62-.67.66.66 0 0 1 .45-.23 4.94 4.94 0 0 0 .95-.5l.53-.39c-.06.24-.13.48-.19.72-.19.79-.39 1.59-.62 2.42-.37 1.12-.71 2.26-1 3.42s-.56 2.3-.78 3.42c-.38 1.35-.71 2.7-1 4-.09.38-.16.77-.24 1.15l-.27.18c-.44-.07-.14-.24-.11-.32a8.79 8.79 0 0 0 -5.24 1l-.29-.47c-.59.34-4-.4-6.64.44 0-.06.06-.16.27-.25a17.42 17.42 0 0 1 -4.91.23c-1.58 0-2.91.11-3.36 1.07l-1.93.68c2.58-.16-.3.82.79 1-1 .22-2.67-.24-1.44-.47l.2.06c.35-1-3.22.05-3.23-.6-5 .65-10 .67-14.76 1.35l.64.64-1.65.2c-.46-.11-.66-.49.52-.63-.67-.32-1.92.63-1.93.79-2.34 0 .78-1 .07-.89l-1 .19h.23a3.84 3.84 0 0 1 -2.18.9c-.91 0-.52-.38-.88-.36 0 0-.13-.06-.54.05l-2.09.24 1.01.63c-.88.41-2 .25-.9.76-.78-.4-2.73-.22-4.59 0a29.36 29.36 0 0 1 -4.1.6 11.81 11.81 0 0 1 -4.06 1.05c.41 0 .75.65-.61.8.27-1.4-2.57-.16-3.83-.92 1.09.46-3.82.79-2.13 1.43-1.15.08-.15-.48-1.07-.65-2.6.93-6 .73-9.24 1.55 0 .19.58.34-.08.74l-1.91-.52c-.64.21-.41 1.11-1.72.74.2.12.5.29.07.43a60.59 60.59 0 0 0 -9.89 1.78 38.68 38.68 0 0 1 -10 1.51c1 .14.38.3-.29.47.45 0 .08.42.22.64h-2.88c-.35.75-2.93.7-3.07 1.38l.84-.3c-1 1 2 1.25 2.05 2.22 1.09-1.12 3.66.46 5.5-1.2.51.09-.33.39 0 .55a3 3 0 0 1 2.3-.84l-.11.13a66 66 0 0 1 8.56-1.35l-.37-.41a4.42 4.42 0 0 1 1.43.06c.79-.89-2.3.41-1.6-.54 1.27.74 5.75-1.1 6.7-.17 1.25-.24-.48-.47.78-.71l.39.23.24-.44c.84-.1 1.32.19 1.4.43a4.45 4.45 0 0 0 -.76.24c1.13.13 3-.7 3.37-.66l-1.24.05c3.37-.94 7.61-1.39 10.83-2.5l-.29-.18c2.47-.83 2.08-.1 4.83-.75l-.09.07a5.46 5.46 0 0 1 2-.65c-.66.37 1.4.28.53.72 2.68-.9 1.3-.57 3-1.7l.48.3a3.4 3.4 0 0 1 2-1c-1.1.51 1 .41-.24 1 3 .29 4.22-1.47 5.74-.5 1.2-1.21-2.62-.21-1.9-.53-.68-.24 1-.92 1.94-.94s1.78 1.07 4.14.72c-.24 0-.24.1-.48.13.92.14 1.68-.59 2.82-.32.52-.7 1.41-.17 1.48-1l-2.14.49c1.19-.38 2.22-1.46 4.3-1.3a4.23 4.23 0 0 1 -1.1.65c.62.15 1.11-.32 1.76-.16-.07.81-2.61.54-3.84 1.32.68.24 2.41-.92 1.86 0 .8-1.22 2.34-.2 3.83-1.25v.49a4.14 4.14 0 0 1 1.21-.46l-.76.73c1.22-.71 2.54.09 3.75-.32-2.6.32-.66-.51-1.8-.71 3.13-1 2 1 5.56.36-.48.12-1.86-.07-1.12-.38a6.88 6.88 0 0 1 2.07.29c2.36-.38-.43-.44.55-.85.88.48 1.14-.37 2.16-.68l.07.48c2.74 0 .6-1.08 3.09-1l-1 .79 1.25-.33-.2.58a6.24 6.24 0 0 1 3.16-.52c-.35-.3.08-.89 1.28-1 .85.19-.41.51 1.29.24-.36.35-.73.77-1.52.42-.06.16-.35.34-.41.51a8.59 8.59 0 0 0 2.84-.26 2.79 2.79 0 0 1 -.68 0c.8-.32 1.6-.61 2.4-.91.41.14.12.31-.17.48a14.68 14.68 0 0 1 1.55-.46c-.15.41-.06.8-1.09 1.09l2.31-.66c.18.15 1.26.35 1 .52 1.33.1 3.13-1.07 4.89-.93a1.51 1.51 0 0 1 .62-.27c1.58-.06 3 .24 4.82-.39-.27 1.33-.51 2.65-.71 4a27.17 27.17 0 0 0 -.28 5.28 16.66 16.66 0 0 0 .33 3.31 31.49 31.49 0 0 0 .9 3.31 2.49 2.49 0 0 0 .45 1 9 9 0 0 0 2.92 2.92 3.54 3.54 0 0 1 .9.73 3.74 3.74 0 0 0 .89.73 1.08 1.08 0 0 0 .56.56c.23.07.49.15.79.22s.6.08.67.23.06.16-.05.28-.09.2.05.28a.61.61 0 0 0 .45-.12 2.69 2.69 0 0 1 1.46-.22h.23a1 1 0 0 0 .5-.34.42.42 0 0 1 .51-.11c.3.15.43.11.39-.11s0-.34.17-.34a.58.58 0 0 0 .33-.22 1.48 1.48 0 0 0 .34-.45l.23-.23a.75.75 0 0 0 .89-.11l.57-.56.39-.39a.69.69 0 0 1 .5-.17c.45 0 .64-.19.56-.56s.19-.34.57-.34a2.56 2.56 0 0 1 .78-.33 1 1 0 0 1 .11-.45.36.36 0 0 0 -.11-.45c-.22-.08-.32-.17-.28-.28a2.5 2.5 0 0 1 .17-.4 1 1 0 0 0 .34-.67 3.89 3.89 0 0 1 .78-.79 6.76 6.76 0 0 0 .79-.67c.3-.15.37-.34.22-.56s-.32-.26-.28-.34a1.85 1.85 0 0 1 .28-.33.35.35 0 0 0 -.11-.23 1.51 1.51 0 0 1 -.67.34c.22-.3.48-.67.78-1.12.15-.15.26-.19.34-.12s.26.15.33 0a.31.31 0 0 1 .12-.22.35.35 0 0 0 .11-.22c-.23-.08-.28-.16-.17-.23s.13-.19.06-.34-.17-.05-.28.06-.17.09-.17-.06a3.36 3.36 0 0 0 -.23-.39.71.71 0 0 1 -.11-.39.1.1 0 0 1 .11-.11.19.19 0 0 0 .23.05.17.17 0 0 1 .22.06c.3.3.45.22.45-.23a.93.93 0 0 1 .23.68 2.41 2.41 0 0 0 .84-.84 2.6 2.6 0 0 1 .73-.85c.15-.15.11-.3-.11-.44s-.12.05-.12.16-.07.17-.22.17c0-.52.22-.78.67-.78h.51s.09-.19.17-.57c-.16.15-.27.19-.34.12a2.49 2.49 0 0 1 .34-.45.77.77 0 0 0 0-.56.67.67 0 0 1 0-.56l-.12-.12a.78.78 0 0 1 -.89-.45 1.93 1.93 0 0 1 -.79.9c-.15.15-.26.15-.34 0a.29.29 0 0 1 -.17 0s0-.06.06-.06a4.23 4.23 0 0 0 .39-.73 1.28 1.28 0 0 1 .73-.62 1.19 1.19 0 0 1 .12.56h.44c.38-.3.6-.18.68.34a.19.19 0 0 1 0 .08.5.5 0 0 0 .07-.36c0-.19.1-.32.4-.39.15 0 .15-.08 0-.23-.3-.3-.23-.45.22-.45.15.08.34 0 .56-.22a.53.53 0 0 1 .56-.34c0-.07 0-.11.06-.11s.06 0 .06.11a.52.52 0 0 0 -.34.56 1.72 1.72 0 0 0 .84-.67 7.32 7.32 0 0 0 .51-1 1.91 1.91 0 0 0 .28-.34 1.49 1.49 0 0 1 .28-.33 2 2 0 0 0 .67-.56 4.3 4.3 0 0 0 .56-1l.45-1.13c.13-.28.26-.55.4-.82l.07-.16.45-.93h.2v.64c1-.24.93-.56 1.53-.89a1.77 1.77 0 0 1 1.75.88c1.87 0-1.34-.72.86-1a11.65 11.65 0 0 0 4.49-.67c1.11.15-.16.4.24.56l.93-.57c.24 0 .17.16.14.24.8-.24 0-.64 1.3-.89.31-.73 2.69.9 4.23 0 .4.16-.17.4 0 .64a16.58 16.58 0 0 0 3.6-1.25l1.55.35c-1.15-.43.26-1.06 1.49-1.58-.41-.21-.76-.4-1-.49l2-.43c.24.1.05.32-.26.61l.36-.17c.72.2.37.59-.13 1l-.74-.37c-.47.41-.92.86-.8 1.23a2.18 2.18 0 0 1 .65-.2c-.12.11-.2.21-.14.27s.27-.09.59-.26l.49.69.1-.29 2.63.33c1.84-.79 3.42-1.94 6.38-2.34-.71.55-.12.86-.14 1.48-.84-.64-2.29.37-3.83.31.8 0 .64.33.44.44l2.72-.71c0 .51.59.36 1.32.55-.58-1 2-.73 3.13-1.07.08.33-.18.68-1.54.64 1.53.71 1.9-1.23 3.4-.64-.33 0-.52 0-.64.15.77-.32 2.67-.15 2.24.16h-.34c2.22 0 6.73-.2 7-1.06a4.82 4.82 0 0 1 -.39 1.21l3.86-3c-.33.74 1.05 2.43-.77 2.9a5 5 0 0 0 2.28-.09c-.36-.1-.92-1-.43-1.12a11.42 11.42 0 0 0 2.62 1.08c-.54-.14 0-1.3.89-1.28-.13.17.09 1.13-.22 1.25l2.1-1.16c-.53.21-.08 1 .4 1.26-.22-.21 1.83 0 2.39-.13l-.9-.25c2.4.13 2.33-1.62 4.71-1.61-.29.24-.69 1.44.52 1.56.54-.59 2.4-2.82 4.5-3.3l.4.32 1.61-.4a32.9 32.9 0 0 1 -5.3 3.5c.9.24.25.38 1.59.32.48.3-.72.49-1.11.51l3.12.14c-.15-.67 2.37-.71 2.24-1.27l-3.37.76c-.15-.67 1.93-2 4.14-1.86.56.26-.41 1.2-.36 1.43a4.72 4.72 0 0 1 2.3-.3l-.93.37c1.23.24 2-.91 3.48-.29.51 0 1.53.85 1.62.45-.84-.75-1-3.13-.48-3.71a22 22 0 0 1 3.27 1.08c.85.6-1.25 1.45-.53 2 0-.19.5-.42.69-.49.54.15-.22.57.95.48.18-.69 2.36 0 .54-.59 1.14-.2 1.21.13 2.55.09-.43-.44 1.19-1.51 2.33-1.72-.06.18.19.4.32.5 2.34 0 3.59.36 5.77.36.2.16 1.25.36.81.65a2.91 2.91 0 0 1 1.27-.37c1.3.59-1.5.1-.51.8.09-.39 1.74-.55 2.7-.8-.3-.61-2.22-.11-3.17.14 0-.84 1.65-1.73 3.93-2.12 1.81-.22.79.54 1.1.42 3.4.14 2.9-1.48 5.72-.88 1.12.54.05 1.07.3 1.46-1.47.21-2.26-.34-3.26-.31l1.23.25a3.92 3.92 0 0 1 -2 .16c.94.49 5.74.07 8.37.53.46-.18 1.27-.36.89-.58l-.83.08c-.77-.44 1.56-.6.51-.8a8.58 8.58 0 0 1 3.93-.53l.29.62c0-.18-1-.37-1.46-.19.65-.27 2.4.84 3.12 0l-1.1-.43c1.12-.3 2.5-1 3.89-.75-.72-.59-.41.09-1.39-.62zm-55.54-49.28a.92.92 0 0 0 .12-.45c.14-.45.29-.89.45-1.34s.29-.9.44-1.35c.15-.6.3-1.27.45-2a4.19 4.19 0 0 1 .28-1.57l.62-1.46a2.31 2.31 0 0 1 .67-1 8.29 8.29 0 0 0 1-2 18.36 18.36 0 0 0 .57-2.13 12.46 12.46 0 0 1 2.24-4.61 12 12 0 0 0 1.55-2.46c.42-.86.85-1.7 1.3-2.52.67-1.28 1.36-2.53 2.07-3.76s1.48-2.49 2.3-3.76c.23-.23.41-.3.56-.23a10.4 10.4 0 0 1 -.61 1.91 18.52 18.52 0 0 0 -.73 1.91c-.15.3-.3.61-.45.95a5.34 5.34 0 0 0 -.34 1.07 3.54 3.54 0 0 1 -.28.78 5.91 5.91 0 0 1 -.39.68l-.23.45a4.9 4.9 0 0 1 -.33.56c-.38.82-.71 1.59-1 2.3s-.64 1.44-1 2.19q-1.12 2.36-2.14 4.65a43.89 43.89 0 0 1 -2.24 4.44l-.34.67a13.46 13.46 0 0 1 -1.79 3.71 2.14 2.14 0 0 0 -.45 1.12c-.15.37-.28.71-.39 1a1.77 1.77 0 0 1 -.62.78.31.31 0 0 0 -.11.23.78.78 0 0 1 -.12.33 3.27 3.27 0 0 1 -.25.59 3.24 3.24 0 0 1 -.78.55.33.33 0 0 1 -.03-.23zm-38.61 24.25c.14-.6.29-1.16.44-1.69s.3-1.08.45-1.68a13.68 13.68 0 0 1 .51-1.63 15.15 15.15 0 0 0 .5-1.63 9.92 9.92 0 0 1 .62-1.73 10 10 0 0 0 .62-1.74 24.81 24.81 0 0 1 1.23-2.75q.68-1.29 1.35-2.64a16.55 16.55 0 0 1 1.18-2 4.42 4.42 0 0 1 1.74-1.46.36.36 0 0 1 .45-.11 2.29 2.29 0 0 1 .11 1.23 7 7 0 0 0 -.11 1.24c-.08.82-.13 1.68-.17 2.58a12.08 12.08 0 0 1 -.39 2.58 26.08 26.08 0 0 1 -.62 2.69q-.4 1.35-.84 2.58c-.23.68-.45 1.33-.68 2a3.53 3.53 0 0 0 -.11 2 1.79 1.79 0 0 1 -.22.79 5.11 5.11 0 0 0 -.45 1.68 3.16 3.16 0 0 1 -.45 1.18c-.23.34-.45.69-.68 1.07s-.74 1-1.12 1.57a5.68 5.68 0 0 1 -1.36 1.25c-.68.68-1.17.53-1.46-.44a17.14 17.14 0 0 1 -.68-3.82 3.67 3.67 0 0 1 .14-1.12zm-97.93-25.73s0 0 0 0zm.43 61.86.35.08c-.72.24-.53.09-.35-.08zm75.84-54.44c.53-1.12 1-2.24 1.46-3.37s.9-2.2 1.35-3.25a8.24 8.24 0 0 1 .84-1.68 5.63 5.63 0 0 0 .73-1.69l.9-1.79a8.32 8.32 0 0 0 .67-1.91 2.7 2.7 0 0 1 .34-.79 4.68 4.68 0 0 0 .45-.9 12.68 12.68 0 0 0 1-2c.3-.74.63-1.49 1-2.24a22.94 22.94 0 0 0 1-2.36l.9-2.47a19 19 0 0 1 1.23-2.47c.45-.74.9-1.53 1.35-2.35l.39-.79.39-.78 1.13-1.8a6.31 6.31 0 0 1 1.57-1.68 3.47 3.47 0 0 1 .22 1.46 7.56 7.56 0 0 1 -.11 2.3c-.15.71-.3 1.47-.45 2.3a20.78 20.78 0 0 1 -.9 2.92 21.24 21.24 0 0 0 -.9 3c-.07.15-.15.31-.22.5s-.15.36-.22.51a13.1 13.1 0 0 0 -1.18 1.85l-1.07 2c-.22.38-.45.75-.67 1.12a5 5 0 0 1 -.79 1 1.91 1.91 0 0 0 -.45.68 3 3 0 0 1 -.3.68l-.45.9a6.31 6.31 0 0 1 -.56.9.74.74 0 0 0 -.34.67 1.41 1.41 0 0 1 -.23.79 12.53 12.53 0 0 1 -1.74 2.92 28.66 28.66 0 0 0 -2 2.8 21 21 0 0 1 -2.08 2.81c-.78.89-1.55 1.83-2.3 2.8zm-1.74 16s0 .13 0 .28c0 1 0 1.92-.06 2.86a25.85 25.85 0 0 1 -.28 2.86 35.82 35.82 0 0 1 -1.79 7.75 67.48 67.48 0 0 0 -2.25 7.85 17 17 0 0 1 -.67 2.53q-.45 1.29-.9 2.64c-.38 1-.69 2.07-1 3.08-.16.62-.34 1.25-.55 1.88-1.25-.07-3-.6-3.85.17-.17-.06-.23-.13-.24-.19-.94.28-3.07.59-3.61 1.08-.38-.59-1.28-.57-2.28-.38.06-.24.1-.47.15-.71a8 8 0 0 0 .34-1.4c.07-.49.15-1 .22-1.4a14 14 0 0 1 .45-2.42c.23-.78.45-1.59.68-2.41a5.76 5.76 0 0 1 .56-1.23 6.68 6.68 0 0 0 .56-1.24l1-2.69a1 1 0 0 0 .28-.56 1 1 0 0 1 .28-.56 4.31 4.31 0 0 0 .73-1.58q.16-.78.39-1.68a36.16 36.16 0 0 1 3-7 58.73 58.73 0 0 0 3.37-7l.51-1.23a9.54 9.54 0 0 1 .61-1.24 10.79 10.79 0 0 0 3 .9 3 3 0 0 1 .62.06 2.35 2.35 0 0 0 .5 0 .93.93 0 0 1 .23.68c-.02.21-.04.3 0 .3zm-.22-7.69a3.62 3.62 0 0 1 .28 1.34 1.56 1.56 0 0 1 -.11.79 1.55 1.55 0 0 1 -.68.22.2.2 0 0 0 -.16.06.24.24 0 0 1 -.17.06 1.61 1.61 0 0 1 -1-.06q-.22-.17 0-.84a11.24 11.24 0 0 0 .33-1.52 2 2 0 0 1 1-1.29c.13.39.32.8.51 1.25zm-23.18 22.23a2.46 2.46 0 0 0 -.95.67 7.54 7.54 0 0 1 -.95.9 1 1 0 0 0 -.9-.56 1.19 1.19 0 0 1 -.79-.28 5.82 5.82 0 0 0 -.67-.5c.52-.38.63-.72.33-1a1 1 0 0 1 -.67-.62c-.07-.27-.15-.58-.22-1a1.1 1.1 0 0 1 -.06-.61 3 3 0 0 0 .06-.62 24.09 24.09 0 0 1 .45-6.45 60.85 60.85 0 0 1 1.74-6.85c.71-2.28 1.47-4.53 2.3-6.74s1.53-4.28 2.13-6.22l.5-1.24a10.07 10.07 0 0 1 .62-1.23 8.79 8.79 0 0 1 .51-1.07 10.55 10.55 0 0 0 .5-1.07c.3-.74.58-1.49.84-2.24a19.73 19.73 0 0 1 1-2.25 4.44 4.44 0 0 1 .5-1 4.44 4.44 0 0 0 .51-1 17.44 17.44 0 0 0 .95-2 10.67 10.67 0 0 1 1-1.91 2.66 2.66 0 0 1 .44-.68.5.5 0 0 0 .29-.28c0-.11.13-.13.28 0s.24 0 .28-.12a.26.26 0 0 1 .28-.22 6 6 0 0 0 1.12-.34 5.94 5.94 0 0 1 1.12-.33 10.46 10.46 0 0 0 1.41-.51 9.3 9.3 0 0 0 1.17-.62 7.41 7.41 0 0 1 3.68-1.06.59.59 0 0 0 .67-.67c0-.08.07-.11.23-.11a2.63 2.63 0 0 1 1.06-.4 3.86 3.86 0 0 0 1.04-.31c.3 0 .61-.06.91-.09a16.35 16.35 0 0 0 -1.36 2.9 4.62 4.62 0 0 0 -.34.84 1.67 1.67 0 0 1 -.45.73 10.8 10.8 0 0 0 -.9 1.8 17.34 17.34 0 0 1 -.78 1.79c-.38.9-.75 1.8-1.12 2.7s-.72 1.79-1 2.69a8.65 8.65 0 0 1 -.45 1c-.15.27-.3.55-.45.85-.6 1.34-1.16 2.69-1.69 4s-1.08 2.65-1.68 3.92c-.38.9-.77 1.8-1.18 2.7s-.8 1.76-1.18 2.58a.26.26 0 0 1 -.05.17.22.22 0 0 0 -.06.17c-.22.45-.71 1.66-1.46 3.64s-1.68 4.21-2.8 6.68a6.7 6.7 0 0 1 -.34.79 2.25 2.25 0 0 1 -.34.56 33 33 0 0 0 -2.3 6c-.4 1.46-.86 2.94-1.35 4.42a2.47 2.47 0 0 1 -.27-.21.93.93 0 0 0 -1.16-.09zm10.22 37a1 1 0 0 1 -.12.45c-.07.15-.22.19-.45.11v-.22a1.13 1.13 0 0 0 .29-.4c0-.11.13-.16.28-.16zm3.14-1.29a1.15 1.15 0 0 1 -.45.73 2.28 2.28 0 0 1 -.28.22q-.17.12.39.12c.15 0 .19 0 .11.16a.41.41 0 0 0 0 .4c-.37.07-.6.22-.67.45a1 1 0 0 1 -.56.56c-.15-.15-.17-.27-.06-.34a1.36 1.36 0 0 0 .28-.22.31.31 0 0 0 -.22-.12h-.45a.43.43 0 0 0 -.22.06c-.08 0-.19 0-.34-.06.15-.37.34-.37.56 0 .22-.15.3-.3.22-.45a.67.67 0 0 1 .13-.76c.22-.18.45-.35.67-.5l.67-.45a7.94 7.94 0 0 1 .79-.45 1 1 0 0 0 -.57.69zm-2-.06a.71.71 0 0 0 .45-.67c0-.3.18-.49.56-.56a4.91 4.91 0 0 1 -.34.95 1.1 1.1 0 0 1 -.69.32zm2.11-12.19c-.6 1.42-1.22 2.77-1.85 4s-1.33 2.58-2.08 3.93a12.57 12.57 0 0 1 -1.63 2.64c-.63.78-1.25 1.62-1.85 2.52l-.22.23c-.23.29-.41.29-.56 0a4.58 4.58 0 0 1 -.57-1.58c-.14-.44-.28-.91-.39-1.4s-.2-.92-.28-1.29c-.07-1.05-.11-2-.11-3a21 21 0 0 1 .22-3c.25-1.27.49-2.55.73-3.82 1-.12 1.85-.3 1.88-.87l.84.22c-.23 0-.26.09-.5.09 1.65.53 1.12-1.07 3.2-1 .72 0 1.24.21.76.41l1.58-.46c.47 0 .37.23-.09.24l1.92-.23c-.32.82-.67 1.59-1 2.37zm3.14 3.25a1.68 1.68 0 0 1 -.45.68 4.48 4.48 0 0 0 .4-.79 3.55 3.55 0 0 1 .39-.78c-.15.37-.26.64-.34.89zm.9-2.58-.11.12c-.15.14-.32.29-.51.44a.76.76 0 0 0 -.16.79c0 .15-.1.26-.29.34a.72.72 0 0 0 -.39.33.4.4 0 0 1 0-.56 6.27 6.27 0 0 0 .68-1.34 1.08 1.08 0 0 1 .56-.45h.22c.07.14.07.26 0 .33zm30.29-6.13a2.92 2.92 0 0 1 1.16.06 1.4 1.4 0 0 1 -1.16-.06zm80.58-4.73c-.81-.18-.52-.11 0 0z"/><path d="m178 117.4a.45.45 0 0 1 -.17-.26c-.16.09-.16.18.17.26z"/><path d="m122.54 122.27h-.06a.2.2 0 0 0 0 .09z"/><path d="m236.24 116.2a1.66 1.66 0 0 1 -.68-.24c-.01.12.15.22.68.24z"/><path d="m271.27 111.2-1.08.13a2.12 2.12 0 0 1 1 .16c-.06-.11-.26-.28.08-.29z"/><path d="m280.63 114.23c.16-.06.33 0 .49-.07v-.22c-.72.06-1.19.19-.49.29z"/><path d="m272.26 112.81c.09.41.76.27 1.52.2h-.13c.22-.57-.59-.38-1.39-.2z"/><path d="m274 113a4 4 0 0 1 .69 0c.05-.24-.32-.06-.69 0z"/><path d="m264.9 111.38c.4-.52-2.4.61-.43.35.36.11.22-.52.43-.35z"/></g><path d="m264.61 106.65.69.1-.27-.5z"/><path d="m266.9 113.76 1.21.14c0-.08.13-.13.32-.17-.74-.02-1.56-.12-1.53.03z" transform="translate(-7.57 -7.4)"/><path d="m269.4 113.65a7.55 7.55 0 0 0 -1 .08 2.52 2.52 0 0 0 1-.08z" transform="translate(-7.57 -7.4)"/><path d="m262.44 106.75 1.21.14-.36-.1z"/><path d="m253.91 113.67-1.32.14c-.14.18.22.28.71.21.32-.12.81-.19.61-.35z" transform="translate(-7.57 -7.4)"/><path d="m257.27 115.27.63-.24c-.36-.1-.38-.21-.59-.38z" transform="translate(-7.57 -7.4)"/><path d="m254.05 115.19c-.13.17-1.91.49-.24.45.13-.17 1.45-.32.24-.45z" transform="translate(-7.57 -7.4)"/><path d="m226.61 107.12.34-.01-.06-1.02z"/><path d="m217.71 116.41c-.94.27-1.44.14-1 .8 1.56.21.36-.64 1.77-.36.37-.25-1.15-.23-.77-.44z" transform="translate(-7.57 -7.4)"/><path d="m217.71 116.41a3.36 3.36 0 0 0 .47-.17 1.69 1.69 0 0 0 -.47.17z" transform="translate(-7.57 -7.4)"/><path d="m13.37 125.9-1.04.01.72.19z"/><path d="m18.39 134.59c.21-.08.63-.23.83-.13l-.38-.58z" transform="translate(-7.57 -7.4)"/><path d="m134.48 113.46.24-.01-.48-.55z"/></g></svg>