<svg height="152" viewBox="0 0 293 152" width="293" xmlns="http://www.w3.org/2000/svg"><g fill="#24486c" fill-rule="evenodd" transform="translate(1)"><path d="m4.92740088 143.037888v-9.099278h2.75735683c4.13603529 0 9.03034359-1.999084 9.03034359-7.548264 0-5.480247-4.9287753-7.479331-9.03034359-7.479331h-7.68613216v24.126873zm1.96461674-13.26978h-1.96461674v-6.68659h2.61948899c2.3437533 0 3.92923343 1.275277 3.92923343 3.412229 0 2.412687-1.96461669 3.274361-4.58410568 3.274361zm20.12870488 13.683383c3.8947665 0 6.2040528-1.447612 8.2720705-4.446238l-3.2054274-2.171418c-1.1718766 1.723348-2.3782202 2.688423-4.7219735 2.688423-2.5850221 0-4.2049692-1.861216-4.5496388-4.342837h12.7527753c.1378679-.723806.2412688-1.58548.2412688-2.309287 0-4.825374-3.7224318-8.375471-8.754608-8.375471-5.204511 0-9.2026784 4.204969-9.2026784 9.685216 0 5.44578 3.6879648 9.271612 9.1682115 9.271612zm3.7913656-11.615365h-7.7550661c.5170044-2.033551 1.792282-3.51563 4.1360353-3.51563 1.9990837 0 3.5156299 1.344211 3.6190308 3.51563zm12.4421145 11.201762v-12.270238c.7238062-1.206344 1.9990837-1.999084 3.4122291-1.999084.6204053 0 1.2063436.137868 1.723348.413604l1.1718767-4.273903c-.6548723-.241269-1.4476123-.413604-2.3437533-.413604-1.792282 0-3.2054273 1.13741-4.2394361 2.826291l-.3791366-2.412687h-4.2394361v18.129621zm15.0969868 0v-14.06252h4.5151718v-4.067101h-4.5151718v-1.171877c0-.896141.1034009-1.688881.4825375-2.205886.2757357-.344669.7238061-.551471 1.5165462-.551471.9650749 0 1.723348.172335 2.5160881.585938l1.5165463-3.756898c-1.4131454-.654873-2.9641586-1.034009-4.5151718-1.034009-2.4816212 0-4.1015683.620405-5.1011101 1.861216-.930608 1.137409-1.3097445 2.757357-1.3097445 4.825374v1.447613h-1.9646168v4.067101h1.9646168v14.06252zm14.8552599.413603c3.8947666 0 6.2040529-1.447612 8.2720705-4.446238l-3.2054273-2.171418c-1.1718766 1.723348-2.3782203 2.688423-4.7219736 2.688423-2.585022 0-4.2049691-1.861216-4.5496387-4.342837h12.7527753c.1378678-.723806.2412687-1.58548.2412687-2.309287 0-4.825374-3.7224317-8.375471-8.7546079-8.375471-5.204511 0-9.2026784 4.204969-9.2026784 9.685216 0 5.44578 3.6879647 9.271612 9.1682114 9.271612zm3.7913657-11.615365h-7.7550661c.5170044-2.033551 1.7922819-3.51563 4.1360352-3.51563 1.9990837 0 3.51563 1.344211 3.6190309 3.51563zm16.509674 11.615365c2.585022 0 4.7219736-.654872 6.514255-2.240352l-2.6194885-3.343295c-1.0340088.999541-2.1369515 1.378678-3.481163 1.378678-2.585022 0-4.6185727-2.240352-4.6185727-5.273445 0-2.895225 1.9301498-5.273445 4.6875066-5.273445 1.4131454 0 2.5160881.517005 3.51563 1.447612l2.5160876-3.412229c-1.7922814-1.482079-3.894766-2.240352-6.3763872-2.240352-5.5147136 0-9.3405462 4.204969-9.3405462 9.478414 0 5.618115 3.8602995 9.478414 9.2026784 9.478414zm16.268405 0c1.413146 0 3.136494-.379136 4.30837-1.068476l-1.516546-3.61903c-.620405.310202-1.206344.517004-1.964617.517004-1.034008 0-1.447612-.654872-1.58548-1.723348-.055147-.413604-.066176-.805148-.068382-1.227575l-.000552-7.354698h4.618573v-4.067101h-4.618573v-3.998168h-4.136035l-.758273 3.998168h-2.171419v4.067101h2.171419v7.548264c0 1.068476.068934 2.136952.344669 3.033093.654873 2.343753 2.550556 3.894766 5.376846 3.894766zm20.955912-.413603v-9.099278h2.757357c4.136035 0 9.030344-1.999084 9.030344-7.548264 0-5.480247-4.928776-7.479331-9.030344-7.479331h-7.686132v24.126873zm1.964617-13.26978h-1.964617v-6.68659h2.619489c2.343753 0 3.929234 1.275277 3.929234 3.412229 0 2.412687-1.964617 3.274361-4.584106 3.274361zm17.957286 13.26978v-12.270238c.723806-1.206344 1.999084-1.999084 3.412229-1.999084.620406 0 1.206344.137868 1.723348.413604l1.171877-4.273903c-.654872-.241269-1.447612-.413604-2.343753-.413604-1.792282 0-3.205428 1.13741-4.239436 2.826291l-.379137-2.412687h-4.239436v18.129621zm16.268406.413603c5.514713 0 9.478414-4.136035 9.478414-9.478414s-3.963701-9.478414-9.478414-9.478414c-5.549181 0-9.512882 4.136035-9.512882 9.478414s3.963701 9.478414 9.512882 9.478414zm0-4.204969c-2.688423 0-4.515172-2.309286-4.515172-5.273445s1.826749-5.273445 4.515172-5.273445c2.688422 0 4.480704 2.309286 4.480704 5.273445s-1.792282 5.273445-4.480704 5.273445zm16.888352 12.408106v-10.374555c1.378678 1.58548 3.550097 2.171418 5.307912 2.171418 4.894308 0 8.478872-4.30837 8.478872-9.40948 0-5.273445-3.619031-9.547348-8.444405-9.547348-1.861216 0-4.30837.689339-5.618115 2.653956l-.379136-2.240352h-4.239436v26.746361zm5.204969-12.408106c-1.551013 0-2.998625-.517004-4.204969-1.964617v-6.169586c1.068476-1.792282 2.72289-2.412687 4.273903-2.412687 2.826291 0 4.515172 2.516088 4.515172 5.204511 0 2.550555-1.447612 5.342379-4.584106 5.342379zm20.024846 4.204969c3.894766 0 6.204053-1.447612 8.27207-4.446238l-3.205427-2.171418c-1.171877 1.723348-2.37822 2.688423-4.721973 2.688423-2.585022 0-4.20497-1.861216-4.549639-4.342837h12.752775c.137868-.723806.241269-1.58548.241269-2.309287 0-4.825374-3.722432-8.375471-8.754608-8.375471-5.204511 0-9.202679 4.204969-9.202679 9.685216 0 5.44578 3.687965 9.271612 9.168212 9.271612zm4.791366-11.615365h-7.755067c.517005-2.033551 1.792282-3.51563 4.136036-3.51563 1.999083 0 3.51563 1.344211 3.619031 3.51563zm12.131911 11.201762v-12.270238c.723807-1.206344 1.999084-1.999084 3.41223-1.999084.620405 0 1.206343.137868 1.723348.413604l1.171876-4.273903c-.654872-.241269-1.447612-.413604-2.343753-.413604-1.792282 0-3.205427 1.13741-4.239436 2.826291l-.379137-2.412687h-4.239436v18.129621zm16.475666.413603c1.413145 0 3.136493-.379136 4.30837-1.068476l-1.516547-3.61903c-.620405.310202-1.206343.517004-1.964616.517004-1.034009 0-1.447613-.654872-1.58548-1.723348-.068934-.517004-.068934-.999542-.068934-1.551013v-7.03126h4.618572v-4.067101h-4.618572v-3.998168h-4.136036l-.758273 3.998168h-2.171418v4.067101h2.171418v7.548264c0 1.068476.068934 2.136952.34467 3.033093.654872 2.343753 2.550555 3.894766 5.376846 3.894766zm12.304705-21.059313v-4.170502h-4.894309v4.170502zm-.310203 20.64571v-18.129621h-4.894308v18.129621zm12.683841.413603c3.894767 0 6.204053-1.447612 8.272071-4.446238l-3.205428-2.171418c-1.171876 1.723348-2.37822 2.688423-4.721973 2.688423-2.585022 0-4.204969-1.861216-4.549639-4.342837h12.752775c.137868-.723806.241269-1.58548.241269-2.309287 0-4.825374-3.722432-8.375471-8.754608-8.375471-5.204511 0-9.202678 4.204969-9.202678 9.685216 0 5.44578 3.687965 9.271612 9.168211 9.271612zm4.101569-11.615365h-7.755067c.517005-2.033551 1.792282-3.51563 4.136036-3.51563 1.999083 0 3.51563 1.344211 3.619031 3.51563zm13.122786 11.615365c3.51563 0 6.962326-1.826749 6.962326-5.824916 0-3.446696-2.964159-4.618573-5.307912-5.583648-1.516546-.620405-2.860758-1.206343-2.860758-2.343753 0-.861674.827207-1.378678 1.757815-1.378678 1.378678 0 2.653956.689339 3.584564 1.516546l2.688423-2.964159c-1.688881-1.58548-3.8603-2.37822-6.272987-2.37822-3.308828 0-6.479789 1.861216-6.479789 5.549181 0 3.17096 2.378221 4.411771 4.549639 5.342378 1.792282.792741 3.446696 1.344212 3.446696 2.619489 0 1.102943-1.309744 1.585481-2.309286 1.585481-1.757815 0-2.895225-.79274-4.273903-2.136952l-2.791824 2.895225c1.999084 1.999083 4.480705 3.102026 7.306996 3.102026z" fill-rule="nonzero"/><path d="m21.5633921 0v98.5755066l-21.5633921-16.1132844v-73.6155723zm8.6180913.07356113c12.2138168 0 21.5196328 2.93301428 27.9172956 8.79462209 6.3976628 5.86381818 9.5966465 13.76795568 9.5966465 23.71034948 0 6.1915424-1.4313126 11.7034696-4.2895221 16.5340133-2.8603412 4.8326067-7.101899 8.6319388-12.7226941 11.3978491-5.4472103 2.6816169-12.0308987 4.0632884-19.7510652 4.1470241l-.7506607.0040517h-2.4212023l-.0013496-23.3316601c2.5931014 2.2231402 6.4200003 5.261553 10.8511864 8.0929091 7.6628518-4.8962653 13.5185953-10.4117291 14.3117557-11.2594799.7931603-.8476034 10.6253644-9.5271388 2.3852672-16.4559135-8.1533593-6.8558402-16.5190064 1.4518929-16.6942218 1.6275522l-.0028011.0028171-.0443312-.0437273c-.5013941-.4879763-5.1926683-4.8835913-10.8419916-4.2269372l.036-.0044702.000486-18.98899997zm-14.7790605 43.05322297c-1.7013073 0-3.0804846 1.3791477-3.0804846 3.0805508 0 1.7012708 1.3791773 3.0804184 3.0804846 3.0804184s3.0804846-1.3791476 3.0804846-3.0804184c0-1.7014031-1.3791773-3.0805508-3.0804846-3.0805508z" transform="translate(111.753436)"/></g></svg>