<svg xmlns="http://www.w3.org/2000/svg" viewBox="0 0 173.41 46.34"><defs><style>.cls-1{fill:#2b456b;}.cls-2{fill:#cd3366;}</style></defs><g id="Layer_2" data-name="Layer 2"><g id="Layer_1-2" data-name="Layer 1"><path class="cls-1" d="M130.93,2.09a2.21,2.21,0,0,1-.18.79,11.53,11.53,0,0,0-.72,2,4.54,4.54,0,0,1-.4,1,.2.2,0,0,0-.11.18.35.35,0,0,1-.11.25l-.21.54c-.15.4-.51,1.15-1.15,2.56a4,4,0,0,0-.47,1.07c-.07.19-.58,1.48-.83,2a7.5,7.5,0,0,0-.29.71,9,9,0,0,1-.61,1.41,2.19,2.19,0,0,0-.22.57s0,.08,0,.08-.14.1-.14.21l-.32.72a7.45,7.45,0,0,0-.61,1.51c0,.11,0,.18-.08.18s-.21.33-.18.44-.11.28-.21.57a23.27,23.27,0,0,0-1,3,13.31,13.31,0,0,1-.54,1.76,2.17,2.17,0,0,0-.1.62,4.29,4.29,0,0,0-.07.53,2.64,2.64,0,0,0-.18.94,10.16,10.16,0,0,1-.44,1.94,21,21,0,0,0-.25,2.56,15.38,15.38,0,0,0,.18,2.23,4,4,0,0,1,.07.65c0,.22-.07.25-.32.25a1.33,1.33,0,0,1-.47-.07c-.14-.07-.18-.07-.11,0s0,.18-.18,0a1.57,1.57,0,0,1-.57-.61.23.23,0,0,0-.22-.14c-.07,0-.18,0-.25-.15a2.16,2.16,0,0,0-.29-.43c-.32-.36-.43-.9-.43-2.45a27.61,27.61,0,0,1,.32-4.53c.51-2.52.62-3.21.8-3.89.25-1,.57-2,.75-2.59.11-.25.33-.9.51-1.44s.36-1.05.43-1.19a9.85,9.85,0,0,0,.61-1.55c.07-.21.29-.65.43-1,.51-1.11.58-1.22.58-1.26s.11-.28.21-.57a2.42,2.42,0,0,0,.25-.54,4,4,0,0,1,.19-.43l.25-.58a3.48,3.48,0,0,1,.25-.65,17.59,17.59,0,0,0,.86-2.12,1.43,1.43,0,0,0-.21.29,5.53,5.53,0,0,1-.58.83,1.61,1.61,0,0,0-.29.57s0,0,0,0-.15,0-.22.11c-.18.29-1.11,1.51-1.69,2.3l-.61.83a1.28,1.28,0,0,1-.29.36,8.86,8.86,0,0,0-1,1.4,4.08,4.08,0,0,1-.36.51.78.78,0,0,0-.26.36,10.64,10.64,0,0,1-1.11,1.47c0,.08-.18.26-.29.47a1.78,1.78,0,0,1-.4.47.84.84,0,0,0-.32.5,6.53,6.53,0,0,1-.36.76c-.11.22-.18.4-.14.47a1.26,1.26,0,0,1-.22.43c-.14.22-.29.32-.29.29a1.65,1.65,0,0,1,.18-.29.78.78,0,0,0,.18-.36c0-.07-.11.07-.25.25a1.59,1.59,0,0,0-.25.51.51.51,0,0,1-.15.21c0,.07-.28.43-.46.79a4.08,4.08,0,0,1-.51.8,1.64,1.64,0,0,0-.14.5c0,.22-.11.4-.15.4s-.07,0,0,.07a.73.73,0,0,1-.11.25c-.14.14-.14.14-.07,0s0-.11-.22.11a1.15,1.15,0,0,0-.29.54l-.32.72a2.89,2.89,0,0,0-.25.64.33.33,0,0,1-.07.22.89.89,0,0,0-.15.36c0,.18-.11.29-.14.29s-.15.14-.22.32-.21.29-.29.29a3.48,3.48,0,0,1-1.22-.11c-.11,0-.18,0-.22,0a.23.23,0,0,1-.18.07,3.42,3.42,0,0,1-.93-.9c-.11-.14-.15-.14-.07,0s-.11.22-.18,0-.26-.39-.43-.72a2.07,2.07,0,0,1-.51-1.29,11,11,0,0,1,.14-3.1,6.31,6.31,0,0,0,.18-.86,5.78,5.78,0,0,1,.26-1.52l.1-.32v.32a4.35,4.35,0,0,1-.1.83,8,8,0,0,0-.18,1.15c0,.36-.08.8-.08.9a6.88,6.88,0,0,0,.11,3c.08.11.08.11,0-.07a3.53,3.53,0,0,1,0-1.19,2.36,2.36,0,0,0,.15-.68c0-.54.36-2.59.54-3.39,0-.28.18-.39.18-.18s-.08.62-.18,1.19a23.34,23.34,0,0,0-.44,3c0,.39,0,.36.18.21s.11-.14,0-.18-.07-.83.07-1.08a.54.54,0,0,0,0-.36c0-.18,0-.25.07-.18s.08,0,0-.18,0-.21,0-.18.1,0,.07-.18a.32.32,0,0,1,0-.32,1,1,0,0,0,.08-.4,5,5,0,0,1,.25-1.4s.07-.15.07-.33a1.08,1.08,0,0,1,.11-.36A.78.78,0,0,0,111,17c0-.18.07-.36.11-.36s.07-.07,0-.11a6.22,6.22,0,0,1,.11-.65,6.34,6.34,0,0,1,.18-.75.57.57,0,0,1,.07-.22.22.22,0,0,0,0-.22.21.21,0,0,1,0-.21c.07,0,.07-.07,0-.11s0-.11.07-.11,0,0,0-.1,0-.15,0-.19a.16.16,0,0,0,0-.18,2.26,2.26,0,0,1,.14-.79,4.33,4.33,0,0,0,.18-.86c0-.11,0-.22.07-.22s.11-.18.11-.39c0-.51.07-.9.14-.87s.22-.32.22-.79c0-.18,0-.29.07-.25s.07,0,0-.22,0-.61.11-.54.18-.57.14-.83c0-.1,0-.17,0-.14a3.79,3.79,0,0,0,.25-1.51c0-.07-.18,0-.36.22s-.25.36-.21.43c.14.25-.15,2.19-.9,5.54l-.33,1.48c0,.18-.11.32-.14.32s-.11-.25,0-.43l.18-.69c0-.25.14-.82.25-1.26.32-1.43.5-2.44.58-2.95a1.9,1.9,0,0,1,.1-.61,2.06,2.06,0,0,0,.08-.72c0-.57,0-.65-.11-.5a3.48,3.48,0,0,0-.18.43c0,.14-.15.29-.22.29h-.25s-.07.07,0,.14,0,.18-.07.22a1.39,1.39,0,0,0-.32.47,5.11,5.11,0,0,1-.4.64.71.71,0,0,0-.21.33.42.42,0,0,1-.11.21,5,5,0,0,0-.36.58c-.15.22-.36.61-.54.83s-.58,1-1,1.72-.72,1.41-.76,1.48a34.39,34.39,0,0,0-1.73,3.35,20.19,20.19,0,0,1-1,2.09,6,6,0,0,0-.43.79c-.15.36-.36.75-.43.9a21,21,0,0,0-1,2.16c0,.11-.07.21-.11.21s-.1.08-.1.11a5.7,5.7,0,0,1-.44,1c-.21.5-.43.94-.43,1a8.57,8.57,0,0,1-.57,1.4c0,.15-.11.29-.11.33a3,3,0,0,1-.61,1.15.68.68,0,0,0-.22.4,3.37,3.37,0,0,1-.25.68c-.22.36-.22.36-.65.32s-.94-.25-1.66-1l-.54-.58.15-.5A4.34,4.34,0,0,0,98,27.5,1.33,1.33,0,0,1,98,27a.45.45,0,0,0,0-.18.08.08,0,0,1,.07-.07s.08-.07,0-.18,0-.18.07-.18.07,0,0-.11a10.84,10.84,0,0,1,.57-2.44c.08-.22.15-.4.15-.43s0-.26.18-.62a5.5,5.5,0,0,0,.36-1.18.46.46,0,0,1,.07-.18,3.24,3.24,0,0,0,.22-.58l.25-.94.29-.9.18-.57a.78.78,0,0,0,.07-.25,10,10,0,0,1,.36-1.37,25.17,25.17,0,0,0,.86-2.88l.29-1.15a3.4,3.4,0,0,0,.11-.43c0-.08.07-.11.07-.15s0-.11.11-.54a2.13,2.13,0,0,1,.14-.5,6.36,6.36,0,0,0,.25-1c0-.07,0-.21.08-.32a5.35,5.35,0,0,0,.36-1.8,10.7,10.7,0,0,1,.21-1.44,10.6,10.6,0,0,0,0-3.06A3.12,3.12,0,0,0,102.81,2c-.28-.33-.79-.29-1.4.1l-.54.29c-.07,0-2.05,1.91-2.52,2.45a41.58,41.58,0,0,0-2.81,3.78,4.78,4.78,0,0,0-.79,2,2.92,2.92,0,0,1-.36,1.15c-.14.15-.18.33-.22.9a4.19,4.19,0,0,1-.1.9A.72.72,0,0,0,94,14a.35.35,0,0,1-.1.36c-.26.25-.51.18-.76-.18a.9.9,0,0,0-.47-.4,1.07,1.07,0,0,1-.39-.21.65.65,0,0,0-.29-.18c-.15,0-.29-.8-.18-1.08a6.47,6.47,0,0,0,.07-1,2.13,2.13,0,0,1,.07-.72s0-.19,0-.4c-.07-.5.11-1,.72-2,.51-.83.9-1.51,1-1.66l.61-.9a22.13,22.13,0,0,1,3.24-3.49s.11-.11.18-.22.11-.21.14-.21a.55.55,0,0,0,.25-.18,6.79,6.79,0,0,1,1.41-.9c.47-.25.5-.25,1.62-.25a5,5,0,0,1,3.27.93,5,5,0,0,1,1.16,1.08,2.51,2.51,0,0,0,.25.51,6.63,6.63,0,0,1,.5,1.11,5.21,5.21,0,0,1,.22,1.84,19.33,19.33,0,0,1-.29,3.09l-.11.58a10.07,10.07,0,0,1-.29,1.37l-.32,1.51a16.4,16.4,0,0,1-.5,1.94.25.25,0,0,0,0,.11,4.73,4.73,0,0,0,.76-1.19c.79-1.47,1.22-2.23,2.37-4,1-1.55,2.66-4,2.84-4.14a.82.82,0,0,0,.15-.25c0-.07,0-.11.07-.11a2.54,2.54,0,0,0,.65-.86s0-.07.07,0,.18-.21.14-.29.11-.25.29-.43c.33-.32.36-.36.69-.29a1.18,1.18,0,0,0,.5,0,.16.16,0,0,1,.22.11c.07.11.14.11.36.07s.9.14,1,.36a.2.2,0,0,0,.18.11c.18,0,.32.61.25,1.22a34,34,0,0,1-.65,3.92,1.87,1.87,0,0,0-.14.44,2.9,2.9,0,0,1-.18.72,4.17,4.17,0,0,0-.11.79,5,5,0,0,1-.22.93,4.15,4.15,0,0,0-.21.72,5,5,0,0,1-.18,1.16,5.58,5.58,0,0,0-.29,1.58c0,.18,0,.32-.07.32a5.92,5.92,0,0,0-.4,1.66,1.82,1.82,0,0,1-.11.54,3,3,0,0,0-.21.94,1.83,1.83,0,0,1-.15.54.91.91,0,0,0,0,.25,1,1,0,0,1-.07.47,2,2,0,0,0-.18.79,11.65,11.65,0,0,1-.33,2.16.43.43,0,0,0-.07.21s.22-.25.4-.61l.39-.75a8.51,8.51,0,0,0,.51-.8,5.75,5.75,0,0,1,.39-.64c.4-.58.65-.87.65-.69a.55.55,0,0,1-.18.25.45.45,0,0,0-.18.29c0,.07,0,.18-.07.18a.42.42,0,0,0-.11.25c0,.11,0,.15-.11.11s-.14,0-.14.07a2.1,2.1,0,0,1-.33.8s-.07,0-.07.1,0,.15-.11.15-.1,0,0,.29c0,.07.08.1.08,0a.65.65,0,0,1,.14-.25c.29-.32.4-.43.4-.54a.07.07,0,0,1,.07-.07.17.17,0,0,0,.11-.15,4.14,4.14,0,0,1,.32-.57,6.59,6.59,0,0,0,.79-1.12,2.24,2.24,0,0,1,.33-.5c0-.07.1-.15.1-.22a.83.83,0,0,1,.26-.39,4.53,4.53,0,0,0,.39-.58c.15-.25.58-1,.83-1.33l.61-.87.51-.75A18,18,0,0,0,119.05,13a5,5,0,0,1,.68-.9c.18-.25.51-.62.65-.87a28.65,28.65,0,0,1,1.8-2.3,3.38,3.38,0,0,0,.22-.36s.07-.11.1-.18l.44-.5.46-.62.94-1.15c.76-1,1-1.33,1.37-1.69.11-.11.39-.5.68-.9a2.73,2.73,0,0,1,.61-.65,7.94,7.94,0,0,0,.94-1.4c.21-.43,0-.36-.47.18a8.76,8.76,0,0,0-1.08,1.22l-.83.87c-.29.32-.57.61-.57.64a1.34,1.34,0,0,1-.22.36,12.09,12.09,0,0,0-.75,1,3.62,3.62,0,0,1-.58.68s-.14.11-.18.25l-.18.29s-.76.9-.94,1.15a2.61,2.61,0,0,1-.36.4,1.19,1.19,0,0,0-.25.43,1.59,1.59,0,0,1-.36.47,5.45,5.45,0,0,0-.79,1l-.36.47c-.07,0-.11.11-.07.15s0,.07-.11.07a.13.13,0,0,0-.11.14.26.26,0,0,1-.11.18,3.75,3.75,0,0,0-.61.83c-.29.4-.61.86-.75,1a8.52,8.52,0,0,0-.62.83,4.32,4.32,0,0,1-.36.61c-.36.47-1.33,1.91-1.69,2.52s-.72,1.08-.72.86a33.65,33.65,0,0,1,2.27-3.49s.07-.07.07-.11a7.24,7.24,0,0,1,.76-1.11,8.46,8.46,0,0,0,.86-1.23l.18-.25.36-.47a1.55,1.55,0,0,1,.36-.39,3.51,3.51,0,0,0,.58-.83,1.28,1.28,0,0,1,.39-.47,15.44,15.44,0,0,0,1.16-1.58.38.38,0,0,1,.17-.22l.37-.47.43-.5c.07-.07.28-.4.54-.68l1.51-1.91a9,9,0,0,0,.54-.76s.18-.18.32-.36l.76-.79c.21-.29.65-.76,1-1.12a2.23,2.23,0,0,0,.58-.75c0-.15.39-.4.64-.4a.19.19,0,0,1,.18.11c0,.07.15.11.29.07s.29,0,.33.07.18.11.28.11c.36,0,.8.33.72.47s0,.11.08.11S130.93,1.66,130.93,2.09Zm-31.5-.47c.54-.43.32-.39-.25.07l-.54.4a26.22,26.22,0,0,0-2,2c-.65.75-.75.9-.68,1s0,.08-.07,0-.36.32-.87,1.08a7,7,0,0,0-.93,1.55,15.35,15.35,0,0,0,1.29-1.66l.4-.54L96.23,5c.57-.72.72-.86,1.11-1.33A29.43,29.43,0,0,1,99.43,1.62Zm3.46,15.52a2.56,2.56,0,0,1,.28-1.08s.08,0,0-.08a4.48,4.48,0,0,1,.14-.72l.26-1a.78.78,0,0,1,.21-.51c.07-.07.15-.14.11-.21,0-.29,0-.62.11-.58s.07-.07,0-.22,0-.28,0-.18.07.08,0-.17,0-.26.07-.15.07.11,0,0,0-.79.15-.64.11,0,.07-.4a2,2,0,0,1,.14-.57,1.4,1.4,0,0,0,.11-.58c0-.15,0-.25,0-.25s.22-.94.22-1.73c0-1.37-.07-1.4-.22-.4a11.73,11.73,0,0,1-.18,1.23l-.14.9c0,.39-.61,3-.87,3.88l-.36,1.3c-.1.4-.28,1-.36,1.37l-.36,1.29c-.07.36-.25,1-.39,1.44l-.51,1.55a10.2,10.2,0,0,1-.36,1.15,3,3,0,0,1-.1.44,7.44,7.44,0,0,0,.61-1.26s0-.11.07-.11A3.94,3.94,0,0,0,102,20c.25-1,.61-2.34.69-2.52a.5.5,0,0,0,0-.18.09.09,0,0,1,.07-.08S102.89,17.21,102.89,17.14Zm9.57-12.57-.4.44a13,13,0,0,0-.9,1.15L109,9.4c0,.11-.43.72-.82,1.4l-1.05,1.76a5.15,5.15,0,0,1-.46.83,6,6,0,0,0-.4.69,7.6,7.6,0,0,1-.36.75c-.22.36-1,1.77-1.12,2l-.9,1.77a3.63,3.63,0,0,0-.32.79,4.18,4.18,0,0,1-.25.68c-.11.22-.18.47-.22.54a2,2,0,0,1-.07.44c0,.1,0,.21,0,.21a.64.64,0,0,0,.14-.21L105,17.57c.25-.43.65-1.19.9-1.69l.61-1.16a4.74,4.74,0,0,0,.47-.79c.14-.36.32-.65.32-.68a2.23,2.23,0,0,0,.33-.51,51.13,51.13,0,0,1,3.49-5.61c.07,0,.07,0,.07-.07a10.87,10.87,0,0,1,1-1.51,1.1,1.1,0,0,0,.25-.65Z"/><path class="cls-2" d="M82.49,35.55c.08.07.21,0,.31,0,.34,0,.67-.1,1-.13a3.27,3.27,0,0,1,.44,0h1a.71.71,0,0,0,.14,0,.59.59,0,0,1,.63.19c.15.15.33.06.5,0a.09.09,0,0,0,0-.07s0,0-.08,0-.27,0-.26-.11.21-.06.32-.06c.3,0,.6,0,.9,0s.74-.05,1.1-.06a3.24,3.24,0,0,1,.7,0,4.6,4.6,0,0,0,1.05,0,8.49,8.49,0,0,1,.88.05h.23l.62,0a3.39,3.39,0,0,0,.45,0H93c.12,0,.22,0,.21.21s.13.14.2.15c.25,0,.5,0,.75,0h.75a1.32,1.32,0,0,0,.33-.08s.06-.09,0-.11,0-.12.08-.12l.44,0c.18,0,.25,0,.23.22s.1.2.2.21c.31,0,.6.15.92,0a1.35,1.35,0,0,1,.4,0L98.8,36c.13,0,.26,0,.38,0l.9,0a2.69,2.69,0,0,1,.57,0,9,9,0,0,0,1.55.1,7.19,7.19,0,0,1,1,.11l.45.05c.2,0,.4.06.6.07a3.08,3.08,0,0,0,.53,0,1.09,1.09,0,0,1,.18,0l1.39.24c.25,0,.5,0,.75.05l1,.08c.49,0,1,.11,1.46.18.09,0,.25,0,.25.08s-.17.08-.26.08-.29-.08-.44-.1c-.34,0-.69,0-1-.09s-.94-.13-1.41-.19c0,0-.06,0-.08,0-.57.23-1.08-.16-1.63-.13l-.27,0c-.56,0-1.11-.1-1.67-.13a1.86,1.86,0,0,0-.33,0l-.67.08H102c-.11-.26-.35-.09-.52-.16a.15.15,0,0,0-.09,0l-.58.31s-.09,0-.12,0a1.35,1.35,0,0,0-1.13.06.67.67,0,0,1-.63,0,.25.25,0,0,0-.35.06.24.24,0,0,1-.2.06,1.73,1.73,0,0,1-.46-.12,1.05,1.05,0,0,1-.3-.22c-.1-.11-.19-.11-.26,0a.42.42,0,0,1-.51.21c-.19,0-.39,0-.59,0a2,2,0,0,1-.84,0,2.5,2.5,0,0,0-.87-.09l-.72,0s-.07,0-.09,0c-.34-.2-.69.08-1,0a1.8,1.8,0,0,0-.8,0c-.27.06-.56,0-.8.24s-.31.06-.48.09-.08,0-.1,0a.11.11,0,0,0,0,.12c.13.15,0,.14-.09.14s-.22,0-.34,0-.48-.1-.71,0c0,0,0,0-.06,0-.36-.11-.64.12-.95.2s-.19.21-.19.36.1.08.12.07a.35.35,0,0,1,.39,0s.15,0,.24,0a.6.6,0,0,1,.57.16.27.27,0,0,1,0,.16,1.84,1.84,0,0,0-.09.25c0,.24.22.41.53.39a1,1,0,0,1,.3,0,.31.31,0,0,0,.39-.13,4.83,4.83,0,0,1,.34-.45.18.18,0,0,1,.26,0,.51.51,0,0,0,.17.07c.32.15.38.14.62-.12s.25-.25.5,0a.25.25,0,0,0,.33,0,.51.51,0,0,1,.45-.05.76.76,0,0,0,.68-.08c.1-.07.27,0,.41,0a1.08,1.08,0,0,0,.36,0c.26-.13.31-.14.54,0a.87.87,0,0,0,.19.1.36.36,0,0,1,.15.08s.07.14.1.14a2.12,2.12,0,0,0,.44-.05s0-.13,0-.19,0-.13.1-.13.07.07.09.11.12.28.19.41.17.23.32,0,.2-.29.32-.43a.2.2,0,0,1,.14-.08s.08.05.11.09,0,.09,0,.13.08.21.24.08a.65.65,0,0,1,.38-.13c.09,0,.19.1.28.18a1.28,1.28,0,0,1,.1.17.17.17,0,0,0,.27,0c.27-.23.43-.19.62.1.09.12.16.2.06.38a.47.47,0,0,0,0,.4c.06.08.22.07.31,0a2.78,2.78,0,0,0,.53-.3c.15-.1.26-.11.35.07a1,1,0,0,0,.08.14c.06.09.13.09.2,0l0,0c.23-.24.21-.21.49,0s.46.41.82.24a1,1,0,0,1,.46,0s0,.1,0,.11.05.23,0,.35l0,0a1.91,1.91,0,0,0,.48,0c.11,0,.11-.14,0-.22s0-.13.07-.13a.39.39,0,0,1,.36.15,2,2,0,0,0,.63.31s0,0,0,0c.14-.28.4-.17.6-.16a2.45,2.45,0,0,1,.68.18.16.16,0,0,1,.08.08c.18.53.67.35,1,.45a4,4,0,0,0,.48.07,2.18,2.18,0,0,0,.56.06,2,2,0,0,1,1.22.25,1.14,1.14,0,0,0,.51.17,1.76,1.76,0,0,1,.37.08,2.44,2.44,0,0,0,.38,0l.17,0a2.54,2.54,0,0,0,.54.09,8.44,8.44,0,0,1,1.88.26,2.87,2.87,0,0,0,.58.07,2.71,2.71,0,0,1,1,.24c.33.13.69.35,1.07.17a1.08,1.08,0,0,1,.77,0l.8.15.09,0a2,2,0,0,0,1.48.16,2.08,2.08,0,0,1,.6.09,1.1,1.1,0,0,1,.26.06,1.5,1.5,0,0,0,.73,0c.18,0,.38.14.57.19a1.75,1.75,0,0,0,.32,0,2.64,2.64,0,0,1,.49.08,1.86,1.86,0,0,0,.47.09,2.54,2.54,0,0,1,1.15.19c.23.14.51.07.77.1s.49.08.73.12l.49.08,1.26.23c.19,0,.36.12.54.17a2,2,0,0,0,.61.16,1.31,1.31,0,0,1,.9.28.8.8,0,0,0,.25.11,7.32,7.32,0,0,0,.94.12,3.36,3.36,0,0,1,1.25.37,4.77,4.77,0,0,0,1,.32,4.24,4.24,0,0,1,1.5.55c.19.11.37.23.55.35s.13.09.11.15-.12.06-.18.06l-.92-.15h0a4.3,4.3,0,0,1-1.79-.48,1,1,0,0,0-.24-.05c-.45,0-.89-.09-1.33-.16a2.48,2.48,0,0,1-.66-.18,3.07,3.07,0,0,0-1.28-.2,2.83,2.83,0,0,1-1.05-.25,5.76,5.76,0,0,0-1.54-.36,7.47,7.47,0,0,1-.76-.17l-.87-.16c-.54-.09-1.08-.19-1.63-.27-.32-.06-.64-.08-1-.14s-.67-.14-1-.23c-.17-.05-.32-.17-.49-.21a2.59,2.59,0,0,0-.55-.07,4.54,4.54,0,0,1-.74,0c-.46-.1-1,0-1.39-.23a.14.14,0,0,0-.11,0,4.17,4.17,0,0,1-1.57-.16,1.87,1.87,0,0,0-.34,0l-.69-.07-.81-.11c-.46-.07-.92-.15-1.39-.19s-.82-.09-1.23-.09a2.76,2.76,0,0,1-1.17-.15s-.07,0-.11,0l-.57-.09h-.11a2.22,2.22,0,0,1-1.25,0,5.74,5.74,0,0,0-.73,0c-.3,0-.61-.08-.92-.1-.16,0-.33,0-.49,0l-1.46-.08a1.42,1.42,0,0,0-.22,0,3.2,3.2,0,0,0-.44,0c-.1,0-.2.09-.28.06a1.33,1.33,0,0,0-.79,0,1.27,1.27,0,0,1-.43,0l-.18,0-.84.09h-.14A4.14,4.14,0,0,0,99,41.9a3.79,3.79,0,0,0-.73.15s-.1,0-.14,0a2.52,2.52,0,0,0-.86-.08,2.2,2.2,0,0,0-.92,0s-.11,0-.16-.06a.81.81,0,0,0-.88-.14c-.06,0-.16,0-.24,0s-.13-.1-.19-.1a4.5,4.5,0,0,0-.84.09,2.83,2.83,0,0,1-1.12.06,5.63,5.63,0,0,0-.71,0l-.83,0h-.07c-.32-.21-.67-.07-1-.1a.56.56,0,0,1-.2-.08c-.06,0-.13-.12-.18-.11-.34.1-.64-.14-1-.12a.38.38,0,0,0-.31.13.5.5,0,0,1-.33.18,1.83,1.83,0,0,1-.66-.06.79.79,0,0,0-.45,0,2.42,2.42,0,0,1-.93,0,4.22,4.22,0,0,0-.71,0,.22.22,0,0,1-.11,0,4.63,4.63,0,0,0-1.7,0,2,2,0,0,0-.91.2,1.44,1.44,0,0,1-.31,0c-.61,0-1.21-.16-1.82-.19l-.74,0-1.62-.11-.2,0-1,.06H77a4,4,0,0,0-1.46,0l-1.87.11c-.2,0-.41-.06-.61-.07a4.93,4.93,0,0,0-.54,0l-.37,0c-.09,0-.17,0-.25,0-.36,0-.72,0-1.07.06a2.13,2.13,0,0,0-.62.12,2.19,2.19,0,0,1-.88.06,1.63,1.63,0,0,0-.31,0l-.76.11a2.13,2.13,0,0,0-.33.11,4,4,0,0,1-.58.21c-.28.06-.57.08-.85.13a7,7,0,0,1-1.37.08,2.4,2.4,0,0,0-.75.12,6.8,6.8,0,0,1-1.18.3c-.33,0-.68.13-1,.17s-.7.07-1,.14a3.26,3.26,0,0,0-1.2.36,4.07,4.07,0,0,1-1.06.31c-.46.12-.92.21-1.38.34s-.85.28-1.27.41a.35.35,0,0,1-.2,0c-.36-.22-.74,0-1.11-.06a5.55,5.55,0,0,1-1.08,0,3,3,0,0,1-.76-.39c-.41-.22-.82-.45-1.24-.66a.64.64,0,0,1-.37-.52,3.9,3.9,0,0,1,.22-1.52.28.28,0,0,1,.23-.22c.27-.05.34-.23.2-.46a.76.76,0,0,0-.11-.14.32.32,0,0,1-.08-.41A.61.61,0,0,0,52,40a.29.29,0,0,1,.22-.34l.16,0c.6-.09,1.2-.17,1.79-.28a2.59,2.59,0,0,0,.6-.24c.05,0,.06-.11.07-.17a.33.33,0,0,1,.33-.29,1.9,1.9,0,0,0,.25,0l.84-.15c.17,0,.35,0,.45-.2a.28.28,0,0,1,.18-.09,5.8,5.8,0,0,1,1.61-.23s.08,0,.11,0a3.16,3.16,0,0,1,1-.3l.08,0,1.56-.22.17,0,1.05-.13a.83.83,0,0,1,.22,0,2,2,0,0,1,.55.08,1.52,1.52,0,0,0,1,0c.09,0,.2,0,.29,0s.14-.06.14-.12-.1-.08-.15-.11,0,0,0,0-.31,0-.31-.08.19-.07.3-.09a.41.41,0,0,1,.47.17.5.5,0,0,0,.83-.18.23.23,0,0,1,.26-.19,10.19,10.19,0,0,0,2-.22.75.75,0,0,1,.55,0,.67.67,0,0,0,.48,0c.24-.07.43-.12.63.11a.54.54,0,0,0,.33.1,2.93,2.93,0,0,0,.41,0l.56,0a3,3,0,0,0,.9-.15l.14,0c.06,0,.16,0,.17-.05s-.11-.09-.17-.13-.13,0-.14-.06.08-.07.12-.08a1.45,1.45,0,0,1,.35,0c.25,0,.5,0,.74.07a.56.56,0,0,1,.17.09c.18.1.31.21.57.12a3.44,3.44,0,0,1,.91,0s.07,0,.09,0a1.22,1.22,0,0,1,.68-.08,1.37,1.37,0,0,0,.35,0c.11,0,.21,0,.32-.06l.26,0s.11,0,.13,0,0-.11-.06-.15-.18-.06-.17-.13.15,0,.22,0a5.93,5.93,0,0,1,.59-.07s.15.07.15.11.13.2.25.21a8.7,8.7,0,0,0,1,0A3.59,3.59,0,0,0,79.3,36c.12,0,.16-.08,0-.18s-.08-.05-.07-.08.09,0,.12,0l.33.11a4.9,4.9,0,0,0,.55.13l.53,0h.29s.1-.06.1-.12-.07-.05-.1-.07h0c-.09,0-.25,0-.24-.1s.17-.08.26-.09l1.08-.08c.1,0,.24-.05.31,0S82.49,35.54,82.49,35.55Zm11,3.89c0,.08,0,.18,0,.22s.16,0,.23-.06l.31-.11s.09,0,.12.08,0,.07,0,.1-.13.14-.18.22a.21.21,0,0,0,0,.17.22.22,0,0,0,.35,0s.1-.12.09-.14,0-.26,0-.39a.22.22,0,0,1,.36-.09,2.33,2.33,0,0,0,.34.2s.07,0,.07,0,0-.26-.06-.32-.24-.31-.47-.18c0,0-.06,0-.09,0a.69.69,0,0,0-.47.06c-.08.05-.16.12-.24.16s-.14,0-.16,0S93.53,39.28,93.52,39.44Zm3.53.07s-.07.07-.06.09,0,.11,0,.13.3.1.26.32l0,0h.28c.16,0,.31-.14.24-.22a.75.75,0,0,0-.38-.23A2.53,2.53,0,0,0,97.05,39.51Zm-9.28-1.17a.06.06,0,0,0,0-.07c0-.1-.13-.15-.21-.21s-.08,0-.08,0a1.62,1.62,0,0,0,.11.28A.2.2,0,0,0,87.77,38.34Zm.37.59a.09.09,0,0,0,.11,0c0-.05,0-.09-.09-.13a.09.09,0,0,0-.09,0A.13.13,0,0,0,88.14,38.93Zm1.49-.08a.11.11,0,0,0-.11.09s0,.08.06.07.14,0,.15,0S89.69,38.86,89.63,38.85Zm3.59.69a.07.07,0,0,0-.07-.08s-.06.06-.08.09,0,.08,0,.09A.1.1,0,0,0,93.22,39.54Zm5-.15c0-.07-.09-.08-.12-.1s-.07,0-.07,0,0,.07.08.09S98.18,39.45,98.2,39.39Zm-8.36-.31s-.07,0-.08.06,0,.06,0,.07.07,0,.09,0S89.89,39.09,89.84,39.08Zm6.61,1.13s0-.05-.07-.06,0,0,0,0,0,0,0,.06S96.44,40.24,96.45,40.21Zm-.36-.7s0,.05,0,.07l0,0s.06,0,.06,0S96.12,39.5,96.09,39.51Zm-1.2.12s0,0,0,0h0S94.9,39.63,94.89,39.63ZM91.1,39.2a0,0,0,0,0,0,0s0,0,0,0h0S91.11,39.2,91.1,39.2Zm1.67.43v0h0a0,0,0,0,0,0,0S92.77,39.64,92.77,39.63Zm4,.34a0,0,0,0,0,0,0h0s0,0,0,0Zm-.81,0s0,0,0,0v0S95.91,40,95.91,40Z"/><path class="cls-2" d="M75.81,35.93s-.07,0-.1,0a2.86,2.86,0,0,1-1.27,0h-.11c-.07,0-.2.07-.22,0s.15-.07.22-.08a2.43,2.43,0,0,1,.27,0l1.07,0s.11,0,.14,0A.06.06,0,0,1,75.81,35.93Z"/><path class="cls-2" d="M110.35,37.07c-.08,0-.23,0-.22-.13s.18,0,.27,0l.4.06s.07,0,.07.05-.06,0-.08,0A1.3,1.3,0,0,1,110.35,37.07Z"/><path class="cls-2" d="M97.06,35.45s.12,0,.11.07-.07,0-.11,0h-.22s-.13,0-.14,0,.1,0,.15,0A.52.52,0,0,1,97.06,35.45Z"/><path class="cls-2" d="M70.7,36.29c0,.11-.17.05-.22,0s-.11,0-.11,0,.09-.06.14-.07S70.71,36.19,70.7,36.29Z"/><path class="cls-2" d="M78.59,35.73s.08,0,.07.06-.15,0-.23,0-.07,0-.07,0S78.51,35.71,78.59,35.73Z"/><path class="cls-2" d="M77.92,35.71s0,0,0,0h0l0,0Z"/><path class="cls-1" d="M7.18,7.09a3.25,3.25,0,0,1-.4-.79c-.25-.54-.32-.79-.21-.79a3.32,3.32,0,0,0,.54-.4A14.43,14.43,0,0,1,11.46,2.7a16.92,16.92,0,0,1,3.89-1.29c2.37-.47,3.53-.44,4.93.1,1.94.8,3.1,1.8,4.9,4.4a15.79,15.79,0,0,1,1.36,2.73,9.56,9.56,0,0,1-.25,5.11c-.14.44-.36,1-.43,1.3a9.34,9.34,0,0,1-1,2c-.5.83-.93,1.62-1,1.73a1.26,1.26,0,0,1-.25.4,2.82,2.82,0,0,0-.58.86,6.86,6.86,0,0,1-.72,1.19,2,2,0,0,0-.39.47,13.36,13.36,0,0,1-1.52,1.73,8.55,8.55,0,0,0-.9.9s0,.07-.1.14a3.48,3.48,0,0,0-.62.68,1.39,1.39,0,0,1-.25.36c-.07.08-.36.33-.65.65A36.42,36.42,0,0,1,15,28.83a3.05,3.05,0,0,0-.47.47.15.15,0,0,1-.1.07,1.59,1.59,0,0,0-.44.29,12.92,12.92,0,0,1-1.8,1.3,4.71,4.71,0,0,0-.53.39.09.09,0,0,1-.08.08,4.1,4.1,0,0,0-.75.39,4.47,4.47,0,0,1-.72.43,2.45,2.45,0,0,0-.54.26,4.84,4.84,0,0,1-1.15.43l-1.16.36a6.55,6.55,0,0,1-2.77-.11,11.27,11.27,0,0,1-1.33-.65A6.2,6.2,0,0,1,.66,29.77,4.23,4.23,0,0,1,.09,28s0-.11,0-.14-.07-.07,0-.11.14-.07.18,0,.07.07.07,0-.07-.14-.15-.18-.25-.25-.1-.25.43.4.36.54,0,.11,0,.07.11,0,.07.15-.07.14,0,.1A.18.18,0,0,1,.66,28c.07,0,.18.32.15.47a.08.08,0,0,0,.07.07.85.85,0,0,1,.32.28,6.35,6.35,0,0,0,2.56,1.44c.25,0,.25,0,.25-.18s-.25-.61-.36-.46-.07-.11-.07-.33-.07-.39-.18-.39a.36.36,0,0,1-.15-.54l.62-1.88L6,19.94a2.07,2.07,0,0,1,.36-.75A2.61,2.61,0,0,0,6.82,18c0-.18,0-.22.07-.15s.73-2.43,1-3,1.12-2.29,1.26-2.75a1.33,1.33,0,0,0,.11-.4c0-.07,0-.11,0-.07s.1-.07.1-.18a6,6,0,0,1,.33-.94c.18-.43.43-1.15.54-1.54l.57-1.77c.19-.5.33-1,.33-1s-.33.11-.65.29a3.26,3.26,0,0,1-.75.36s-.11,0-.11.07-.07.11-.18.11A2.54,2.54,0,0,0,9,7.42l-.36.32s-.51.63-.74.59S7.21,7.13,7.18,7.09ZM5.41,25.27,6,23.58c.75-2.16,1-2.77,1.47-3.92C8.51,17.14,8.94,16,8.91,16s-.08.07-.11.21-.11.26-.18.26-.08,0,0,.07,0,.07,0,.11a1.24,1.24,0,0,1-.07.25c0,.11-.07.25-.14.29l-.14.28a3.24,3.24,0,0,1-.62,1.19c-.07,0-.14-.07-.1-.11s0-.07.07,0,0-.07,0-.18,0-.22.08-.11.61-1,.64-1.48c0-.18.08-.25.15-.21s0,0,0,0a.78.78,0,0,1,.14-.36A5,5,0,0,0,9,15c.11-.43.25-.82.29-.93l.32-.76a4.9,4.9,0,0,1,.32-.76,3.11,3.11,0,0,0,.15-.46,8.74,8.74,0,0,1,.32-.94A8.37,8.37,0,0,0,10.74,10L11,9.36c0-.11,0-.14,0-.14a12.93,12.93,0,0,0-.69,1.62.51.51,0,0,1-.1.29,7.17,7.17,0,0,0-.36,1c-.37,1-1.12,3-1.7,4.32a11.57,11.57,0,0,0-.72,2.19.27.27,0,0,0,.18.07c.11,0,.11.08,0,.18s-.18.15-.22.11-.07,0,0,.15-.29,1.22-.36,1a3.29,3.29,0,0,1,.14-.54c.18-.4.18-.68,0-.43a2.26,2.26,0,0,0-.21,1.08,7.13,7.13,0,0,1-.29,1.08,8.46,8.46,0,0,0-.43,1.19l-.08.25-.07-.29,0-.32-.15.46a2.44,2.44,0,0,1-.21.58,2.72,2.72,0,0,0-.22.68L5,25.23l-.43,1.62a5.6,5.6,0,0,1-.36,1c-.11.18-.08.21.1.21s0,0,0,.08,0,.07-.11,0a.17.17,0,0,0-.18,0s0,.07.07.07.11.07.08.32-.08.29,0,.29A2.77,2.77,0,0,0,4.59,28l.46-1.41a2.21,2.21,0,0,0,.18-.72ZM24.67,10.15c.15-.72.11-1-.07-.75,0,.14-.07.14,0,0a8.3,8.3,0,0,0,0-1.19,3.4,3.4,0,0,0-1.48-3.09,5.73,5.73,0,0,0-1.51-.87c-1.26-.5-1.62-.5-3.6-.21l-1.91.32c-.22,0-.43.07-.47.15s-.07.07-.11,0a1.75,1.75,0,0,0-.93.36,1.68,1.68,0,0,0,.11.43,1.05,1.05,0,0,1-.08.9,11.83,11.83,0,0,1-.72,2.06.29.29,0,0,0-.1.21A12.41,12.41,0,0,1,13,10.69a2.6,2.6,0,0,0-.25.62,7,7,0,0,1-.61,1.51l-.25.64c-.11.29-.22.58-.25.62l-.11.21a5.46,5.46,0,0,1-.22.72,12.64,12.64,0,0,0-.61,1.66l-.18.36c0,.07-.07.14,0,.14s0,.15-.11.29a9.68,9.68,0,0,0-.32.94,1.93,1.93,0,0,1-.32.75.33.33,0,0,0-.15.25,4.8,4.8,0,0,1-.32,1,11.84,11.84,0,0,0-.4,1.15,1.53,1.53,0,0,1-.14.43c-.07,0-.11.18-.15.32l-.28.87c-.43,1.11-1.23,3.53-1.51,4.5-.18.54-.4,1.33-.54,1.72-.33,1-.33.94.21.8L7.14,30A6.65,6.65,0,0,0,9,29.19l.47-.28,1.94-1.26,1.19-1a9,9,0,0,1,1-.8s0,0,0,0a4.36,4.36,0,0,1,.54-.58L15.6,24l.54-.58.61-.68a6.5,6.5,0,0,1,.61-.69c1.8-2.05,2.45-2.81,2.81-3.27.51-.69,1.44-2.13,2-3,.33-.5.58-.93.61-.93s.08-.11.11-.18a.35.35,0,0,1,.07-.22.21.21,0,0,0,.11-.21c0-.11.07-.15.11-.11s.07,0,0-.08,0-.18.1-.21a.21.21,0,0,0,.08-.25c0-.08,0-.11,0-.08s.22-.32.36-.79.29-.79.33-.72.07.07.18-.5a1,1,0,0,1,.14-.36A3.51,3.51,0,0,0,24.67,10.15Zm-3.2,9a.07.07,0,0,0-.07.07s-.29.43-.65.86L19.7,21.46a10.44,10.44,0,0,1-.79.86,2.09,2.09,0,0,0-.32.36,1.34,1.34,0,0,1-.36.43l-.4.43a2.17,2.17,0,0,1-.43.54c-.83,1-1.69,1.88-2,2.2l-.9.83c-.54.5-1.72,1.54-2.84,2.45A4.48,4.48,0,0,1,11,30a.18.18,0,0,0-.18.1c0,.08-.07.15-.11.11s-.47.25-.47.36.25-.07.36-.18l.32-.21a13.49,13.49,0,0,0,2-1.44c0-.11.54-.58.65-.54a9.76,9.76,0,0,0,1.19-1.08,8.27,8.27,0,0,1,.68-.62c.29-.25.54-.43.51-.46s.11-.18.32-.36a9,9,0,0,0,.76-.76l.57-.61.29-.32a1.42,1.42,0,0,1,.33-.36,3.35,3.35,0,0,0,.39-.47c.58-.69.94-1,1.05-1a.3.3,0,0,0,.18-.18,1.15,1.15,0,0,1,.28-.36,1,1,0,0,0,.26-.43.84.84,0,0,1,.21-.36.29.29,0,0,0,.15-.21.11.11,0,0,1,.1-.11s.08-.07.08-.18.07-.25.1-.25S21.54,19.22,21.47,19.19Zm2.45-3.57a.09.09,0,0,0-.08-.07.8.8,0,0,0-.21.29c-.07.18-.18.29-.25.29s-.11,0-.08,0a1.09,1.09,0,0,1-.1.36c-.22.4-.22.51,0,.33s.14-.15.11-.18,0-.11,0-.11A4.78,4.78,0,0,0,23.92,15.62Z"/><path class="cls-1" d="M35,23.22c0-.11.07-.18.14-.14s.22,0,.4-.11.11-.36.29-.4.07-.07.07-.14,0-.15.11-.07.25.07.25-.11,0,0-.11,0-.07.11-.07,0,.11-.18.36-.29m.76,0c0,.07,0,.07-.11,0s-.07,0,0,0,0,.11-.14.11-.22.07-.22.14,0,.14.07.14.11,0,.11-.07.07-.11.15-.11a1,1,0,0,0,.39-.28c.33-.36.62-.12.91-.23-1,.9-5.73,7-9.62,6.56a6.56,6.56,0,0,1-1-.22c-1.36-.43-2.26-1.43-2.88-3.27a4.22,4.22,0,0,1-.25-1.55c0-.47,0-.72-.11-.68s-.07-.54.11-1.15a13.47,13.47,0,0,1,2.13-4.07,11.5,11.5,0,0,1,2-2.09,8.58,8.58,0,0,0,.72-.54l.54-.43a7.93,7.93,0,0,1,1.65-.83,3.17,3.17,0,0,1,.87,0c.1,0,.72,0,1,.32,0,.08.29,0,.39.15l.51.36A2.61,2.61,0,0,1,35.16,16a3.74,3.74,0,0,1-.46,2,10.74,10.74,0,0,1-1.91,2.16l-.51.47a14.71,14.71,0,0,1-2.15,1.15,2.27,2.27,0,0,0-.58.32,1.09,1.09,0,0,1-.5.08,1.49,1.49,0,0,1-1.37-.76c-.22-.4-.29-.32-.65.36l-.29.5a11.34,11.34,0,0,0-.54,1.3,2.71,2.71,0,0,0-.11,1.55,2.58,2.58,0,0,0,1.55.61,6.56,6.56,0,0,0,3.89-1.08,14.19,14.19,0,0,1,1.8-.9c.07,0,.07,0,0,0a1.15,1.15,0,0,1,.37-.32,3.15,3.15,0,0,0,.71-.5c.18-.15.36-.26.36-.22s.08,0,.08,0,.1-.1.21-.1a.27.27,0,0,0,.25-.18.19.19,0,0,1,.15-.11.52.52,0,0,0,.25,0h.11c0,.11,0,.18-.07.18H35.7s0,0-.1,0-.11,0-.11,0a.89.89,0,0,1-.33.29.64.64,0,0,0-.28.25m-6.77-3c0,.11.07.11.76-.11a2.33,2.33,0,0,0,.72-.36,1,1,0,0,1,.21-.14,2.77,2.77,0,0,0,.47-.29,1.81,1.81,0,0,1,.43-.29,10.24,10.24,0,0,0,1.15-1,4.87,4.87,0,0,1,.4-.43,3.38,3.38,0,0,0,.54-.65l.29-.43h-.36a3,3,0,0,0-1.77.76c-.54.5-.57.54-.61.54A12.89,12.89,0,0,0,28.11,20.05Zm5-2.63c0,.08,0,.15-.11.15-.29.07-.5.21-.5.36s0,.11-.08.11-.11,0-.14.18-.11.25-.14.25a5,5,0,0,0-1.05.9c0,.11.15.07.36-.15a1.65,1.65,0,0,1,.29-.18,2.07,2.07,0,0,0,.54-.46c.68-.72.9-.9,1-.9s.11,0,.11-.08a2,2,0,0,1,.29-.43l.32-.43a1.56,1.56,0,0,1,.07-.32c.11-.29.11-.33,0-.26a.42.42,0,0,0-.18.29c0,.25-.51.83-.65.83S33.08,17.35,33.08,17.42Z"/><path class="cls-1" d="M47.62,29.81a9,9,0,0,0,.32-1.59c.07,0,.07,0,0-.07s0-.11.07-.14a.15.15,0,0,0,.11-.22,38.77,38.77,0,0,1,.65-5.33,15.85,15.85,0,0,0,.54-3s-.14,0-.29,0-.47.15-.68.22l-.58.18a3.93,3.93,0,0,1-.83.29c-.1,0-1,.39-1.47.64a6.64,6.64,0,0,1-1.08.47c-1.37.54-1.69.72-2,1.08,0,0-.34.56-.87,1.26l-.18.25c-.07,0-.21.29-1,1.44l-.61.8c-.18.21-4.72,7.34-5,7.59a32.67,32.67,0,0,1-2.12,2.77,12.22,12.22,0,0,0-.83.9,4.12,4.12,0,0,1-.76.43,4,4,0,0,1-1.87,0l-.43-.22a1.59,1.59,0,0,1-.65-.5,2,2,0,0,1-.47-.69c0-.1.36-.32.62-.39a7.5,7.5,0,0,0,1.87-1.59,3.9,3.9,0,0,1,.54-.57A16.73,16.73,0,0,0,32,32.43l5-7.27.76-1,.25-.39-.72,0a1.87,1.87,0,0,1-1-.11c-.15-.1-.33-.21-.33-.25a.21.21,0,0,0-.18-.11c-.07,0-.18-.1-.29-.14L35.13,23c-.22-.11-.44-.32-.61-.18s-.11.07-.08,0a.15.15,0,0,0-.14-.11c-.18,0-.22-.32,0-.36s0,0,0-.11.72-.39,1.34-.43a11.51,11.51,0,0,0,1.69-.29,2.53,2.53,0,0,1,.68-.28,9.51,9.51,0,0,0,1.15-.44,3.13,3.13,0,0,1,.47-.18c.11,0,.18,0,.18-.07a.08.08,0,0,1,.07-.07,3.09,3.09,0,0,0,.58-.22,1.64,1.64,0,0,0,.72-.57,26.68,26.68,0,0,1,1.73-2.38l.28-.43c.08-.11.18-.22.22-.22s.14-.1.18-.21.11-.15.11,0-.11.18-.15.25l-.57.76-.72,1c-.15.18-.29.36-.22.36a3.16,3.16,0,0,0,.61-.75L43.44,17a19.89,19.89,0,0,0,1.23-1.62c.1-.25,0-.14-.33.22a1.28,1.28,0,0,1-.54.57A5.67,5.67,0,0,1,44.56,15c.14-.11.21-.21.21-.25a27.57,27.57,0,0,1,1.73-2.48c.33-.4.47-.65.43-.76s0-.14.11,0,.22.18.15,0,0-.11.07-.07.36-.18.39-.36a.79.79,0,0,1,.08-.25c0-.11,0,0-.11.07a.66.66,0,0,1-.18.22s0-.19.11-.29l.39-.54a.51.51,0,0,1,.25-.25.36.36,0,0,1-.1.18c-.11.1-.15.32,0,.32s.11-.11.18-.22.11-.14.11-.07a5.52,5.52,0,0,1-.83,1.33,4.6,4.6,0,0,0-.76,1.19s.15,0,.29-.14.22-.22.22,0,0,.07.14-.14a7.39,7.39,0,0,1,.83-1.05l.29-.39.72-1a6.88,6.88,0,0,0,.57-.9l.36-.47c.22-.25,1.12-1.65,1.44-2.19a.47.47,0,0,1,.22-.22.14.14,0,0,0,0-.1.88.88,0,0,1,.29-.4c.11-.18.18-.36.15-.4s0,0,.07,0,.11,0,.11-.07a3.68,3.68,0,0,1,.43-.69,3.81,3.81,0,0,0,.83-1.76l.1-.65-.21.36A2.31,2.31,0,0,1,53.3,3a1.22,1.22,0,0,0-.28.47c-.11.18-.22.32-.26.32s-.14.11-.18.25-.14.26-.18.26L52,4.83a13.27,13.27,0,0,1-1.22,1.83l-.58.79-.39.65c0,.07-.36.58-.72,1.08-.65.94-.94,1.22-.43.4A1.37,1.37,0,0,0,49,8.93c0-.18,0-.22.14-.22s.18,0,.18-.11,0-.14-.07-.14-.07,0,0,.11,0,.07-.08,0a.13.13,0,0,1,0-.18,2.25,2.25,0,0,0,.33-.47c.18-.29.28-.39.39-.39a.25.25,0,0,0,.29-.15l.22-.21c.11-.11.21-.44.11-.44s-.08,0,0-.1a.5.5,0,0,0,.15-.26,3.81,3.81,0,0,1,.46-.9A2.47,2.47,0,0,0,51.36,5a1,1,0,0,1,.33-.43.41.41,0,0,0,.14-.32c0-.11,0-.15.07-.11s.14,0,.11-.07S52,4,52.08,4a.09.09,0,0,0,.07-.14c0-.07,0-.15.15-.22s.21,0,0,.25a.68.68,0,0,0-.18.26c0,.1.08,0,.25-.18l.26-.4a.11.11,0,0,1,.1-.11.08.08,0,0,0,.08-.07c0-.07,0-.07-.08,0s-.1-.1,0-.32.07-.18,0-.11,0-.18.39-.83a3,3,0,0,0,.4-.61.08.08,0,0,1,.07-.07c.07,0,.14-.14.18-.32a1.94,1.94,0,0,1,.36-.58c.29-.29.79-.58.83-.43s.07.07.14,0,.18.11,0,.18,0,0,.22,0c.57-.07.9-.07.83,0s.07.11.21.11a.54.54,0,0,1,.51.65,9.22,9.22,0,0,0-.18,1.22,22.92,22.92,0,0,1-1,4.36c-.29.86-.51,1.76-.58,2-.14.72-.93,3.49-1,3.56s-.11.11-.11.22c-.11.4-.47,2-.72,2.77l-.36,1.26-.11.43h.8c.5,0,.79,0,.79-.1s.11-.08.32,0l.33,0-.26-.11a2.93,2.93,0,0,0-1-.15c-.58,0-.72,0-.72-.14s0-.11.21-.07.47.07.79.07c1,.11,1.73.25,1.7.36s.18.14.43.22c1.44.43,2,.64,2.37,1.47l.15.69c.21.07-.07.21-.25.14a3.65,3.65,0,0,0-1.48-.83,19.5,19.5,0,0,0-3.82,0,2.4,2.4,0,0,1-.5.07.27.27,0,0,0-.29.18,21.17,21.17,0,0,0-.82,3.42,5.1,5.1,0,0,1-.15.76,6,6,0,0,0-.14.65c-.69,4.39-1,6.76-.83,8.38.11,2.38.11,2.38-.11,2.38a.27.27,0,0,0-.25.11c0,.07-.54.07-.54,0s-.11-.07-.22-.07a.41.41,0,0,1-.39-.25c-.15-.15-.25-.22-.29-.22s-.18-.07-.25-.25A1.63,1.63,0,0,0,48,33c-.15-.11-.29-.25-.29-.29s0-.07-.07-.11-.11-.07-.11-.1l0-.29c0-.18,0-.18-.08-.11s-.18-.11-.36-.58S47.45,30.22,47.62,29.81Zm3-19.15a5.67,5.67,0,0,1-.58.93,21.2,21.2,0,0,0-1.4,1.95l-.26.43c0,.07,0,.14-.07.14a10.45,10.45,0,0,0-.68.94,3,3,0,0,1-.47.61c-.11.11-.29.4-.47.61a4.58,4.58,0,0,1-.43.65,4.56,4.56,0,0,0-.76,1.26,0,0,0,0,0,.08,0s.07,0,.07,0a.18.18,0,0,1-.15.07,1.49,1.49,0,0,0-.61.51c0,.07,0,.18-.14.25-.29.25,0,.25.61,0L46,18.9c.69-.18.9-.22,1-.14l.29,0c.11,0,.11,0,0,.07s-.47.11-.39,0,0-.07-.11,0l-.54.18c-.43.11-.65.25-.69.43s0,.14.65-.07a3.82,3.82,0,0,0,.72-.25l.25-.08a1.74,1.74,0,0,0,.4-.14,1.37,1.37,0,0,1,.47-.14,4.71,4.71,0,0,0,1.4-.58c0-.07,0-.11.11-.07s.11,0,.14-.07-.43,0-1.62.39c-.86.29-.86.29-.86.18s.14-.11.29-.14.46-.15.68-.22a5.62,5.62,0,0,1,1-.36c.54-.18.65-.25.69-.39s0-.22-.18-.15-.15,0,0-.11.29-.14.26-.18a6.65,6.65,0,0,0-1.7.33c-.36.18-1.15.43-1.11.32s.07-.07.18-.07a.4.4,0,0,0,.21-.07A12.27,12.27,0,0,1,49.09,17a3.19,3.19,0,0,1,.65-.11A.23.23,0,0,0,50,16.7a6.07,6.07,0,0,1,.36-1.33l.39-1.55.4-1.4.29-.86a3.4,3.4,0,0,1,.18-.72l.18-.72.47-1.66a2.8,2.8,0,0,0,.1-.4s-.14.19-.36.47l-.54.9Z"/><path class="cls-1" d="M61.28,22.9s-.07,0-.07.1a.44.44,0,0,1-.15.26.22.22,0,0,0-.14.17c0,.11.32-.21.54-.57.11-.18.18-.36.14-.4a1.13,1.13,0,0,0-.14.22C61.39,22.79,61.32,22.9,61.28,22.9Z"/><path class="cls-1" d="M61.42,18.65c.11-.22.11-.22,0,0a.48.48,0,0,0-.15.25C61.24,19,61.28,18.9,61.42,18.65Z"/><path class="cls-1" d="M62.83,16.74c.14-.18.14-.25.07-.22a.47.47,0,0,0-.22.22c-.14.22-.28.32-.32.18s-.07,0-.14,0,0,.14,0,.14-.54.86-1,1.33c0,.07,0,.11,0,.11A14.85,14.85,0,0,0,62.83,16.74Z"/><path class="cls-1" d="M61.75,22.25l-.11.07s0,0,.11,0a.09.09,0,0,0,.07-.08C61.82,22.21,61.78,22.21,61.75,22.25Z"/><path class="cls-1" d="M61.93,22c-.07.07-.11.1-.07.1A.19.19,0,0,0,62,22c.07-.08.11-.15.07-.15Z"/><path class="cls-1" d="M62.72,20.81a.63.63,0,0,0-.07.21s0,0,.07,0a.41.41,0,0,0,.11-.22S62.79,20.74,62.72,20.81Z"/><path class="cls-1" d="M63.3,20.12c-.11.22-.11.22,0,0a.4.4,0,0,0,.14-.25C63.44,19.8,63.4,19.87,63.3,20.12Z"/><path class="cls-1" d="M63.73,19.48c-.11.25-.11.25.07.07s.25-.29.11-.29S63.8,19.37,63.73,19.48Z"/><path class="cls-1" d="M64.48,18.68a3.85,3.85,0,0,1,.47-.57.28.28,0,0,0,.11-.22c0-.14-.25.11-.54.58a4.8,4.8,0,0,0-.36.47c-.11.1-.14.21-.11.21A1.68,1.68,0,0,0,64.48,18.68Z"/><path class="cls-1" d="M69,23.58c-.07,0-.14.11-.18.22l.22-.18Z"/><path class="cls-1" d="M69.2,24.16l.36-.29c.11-.07.07-.07-.14,0a1.67,1.67,0,0,0-.36.26C68.91,24.34,69,24.3,69.2,24.16Z"/><path class="cls-1" d="M69.27,24.26s0,0,0,.11a.08.08,0,0,0,.08.07c.07,0,.07,0,0-.07A.14.14,0,0,0,69.27,24.26Z"/><path class="cls-1" d="M88.29,19.91c-.47.07-.65.29-.43.54,0,0,.11,0,.18-.07s.11-.15,0,.1-.15.36-.26.22-.07-.11,0,0-.22,0-.32,0-.19.58-.47,1l0,.07-.08-.09a.5.5,0,0,0-.66,0l-1.28,1.53c-.31.36-.61.72-.92,1.07a.38.38,0,0,1,0-.28c0-.07,0-.07-.07,0s-.18.11-.18.08,0,0-.07,0-.11.11-.08,0a.21.21,0,0,1,.15-.11c.07,0,.11,0,.11-.07s0-.14,0-.21l-.33.32c-.83.83-1.83,1.4-1.91,1.26a5.64,5.64,0,0,1,.29-1.44l.33-1.19.36-1.29.32-1.08a4.78,4.78,0,0,1,.22-.83,13.91,13.91,0,0,0,.5-2.09,5.22,5.22,0,0,0,0-2.38,1.58,1.58,0,0,0-1.19-.75c-.18,0-.29,0-.36-.11s-.11-.14-.14-.11-.15,0-.18,0a2.67,2.67,0,0,0-1.62.21.33.33,0,0,1-.29.11c-.22,0-.43.14-1,.72a7.85,7.85,0,0,0-.8.79l-.28.4c-.33.39,0,.21.54-.4s.64-.5.25,0c-.29.32-.36.54-.15.46s0,.15-.21.4A6,6,0,0,0,77.31,18a.62.62,0,0,1-.18.26c-.11.1-.18.21-.14.28s0,.08,0,0-.22.18-.44.47l-.64,1-.36.54a2.31,2.31,0,0,0-.33.46,8.42,8.42,0,0,1-.68,1.08l-.18.26c-.18.32.14-.87.5-1.34a1.37,1.37,0,0,0,.22-.32.61.61,0,0,1,.18-.25,6.23,6.23,0,0,0,.86-1.55c-.07,0-1.65,2.38-1.87,2.77l-.18.43a1.28,1.28,0,0,1-.07.26c-.11.14-.69,1.33-1.12,2.26-.14.29-.28.54-.32.51s0-.18.11-.33a4.06,4.06,0,0,0,.21-.75c0-.29.07-.54.11-.54a3,3,0,0,0,.32-1.08c0-.07,0-.15,0-.11l0-.14,0-.11.27-.72c.33-.79.49-1.26,1-2.92.83-2.37.9-2.73.72-3.17s-.54-.93-.65-.93a1.63,1.63,0,0,1-.47-.22C74,14,73.89,14,73.75,14s-.18.07-.29,0a.22.22,0,0,0-.29-.07l-.36.18q-.21.11-.21.21A6.9,6.9,0,0,1,72.13,16c-.07.18-.07.26,0,.33s.1.14-.44,1.55c-.26.71-.84,2.66-1.34,4.48l-.75.77-.58.51a1,1,0,0,0,0,.18l-.1.18.18-.18c.36-.37,1.18-.44.9-.69l.23-.16c-.12.43-.23.86-.33,1.24,0,.11,0,.21-.08.31s0,0,0,0a2.93,2.93,0,0,1-1,.79c-.07,0,0-.15.21-.33s.33-.39.25-.43a.12.12,0,0,0-.17.07s-.11.07-.18.07-.11,0,0-.07.11-.14,0-.25a.36.36,0,0,1,0-.29c0-.07,0-.07-.07,0s-.18.11-.18.08,0,0-.08,0-.1.11-.07,0a.21.21,0,0,1,.15-.11c.07,0,.1,0,.1-.07s0-.14,0-.21l-.32.32c-.83.83-1.84,1.4-1.91,1.26a5.64,5.64,0,0,1,.29-1.44l.32-1.19.36-1.29.33-1.08a4.79,4.79,0,0,1,.21-.83,12.14,12.14,0,0,0,.51-2.09,5.22,5.22,0,0,0,0-2.38,1.62,1.62,0,0,0-1.19-.75c-.18,0-.29,0-.36-.11s-.11-.14-.14-.11-.15,0-.18,0a2.67,2.67,0,0,0-1.62.21.33.33,0,0,1-.29.11c-.22,0-.43.14-1.05.72a8.4,8.4,0,0,0-.79.79l-.29.4c-.32.39,0,.21.54-.4s.65-.5.26,0c-.29.32-.36.54-.15.46s0,.15-.21.4A5.48,5.48,0,0,0,62.29,18a.62.62,0,0,1-.18.26c-.11.1-.18.21-.15.28s0,.08,0,0-.21.18-.43.47l-.65,1-.36.54a2.08,2.08,0,0,0-.32.46,8.42,8.42,0,0,1-.68,1.08l-.18.26c-.18.32-.36.57-.44.54A6.41,6.41,0,0,1,59.84,21a1.37,1.37,0,0,0,.22-.32.61.61,0,0,1,.18-.25,6.23,6.23,0,0,0,.86-1.55c-.07,0-1.66,2.38-1.87,2.77l-.18.43a1.28,1.28,0,0,1-.07.26c-.11.14-.69,1.33-1.12,2.26-.14.29-.29.54-.32.51s0-.18.11-.33a4.06,4.06,0,0,0,.21-.75c0-.29.07-.54.11-.54a3,3,0,0,0,.32-1.08c0-.07,0-.15,0-.11s.11,0,.18-.07.14-.07,0,.11-.07.28.19,0a2.82,2.82,0,0,0,.43-1s0,0-.11.11-.11.1-.15.07-.14,0-.28.29-.26.36-.22.25l.33-.87c.32-.79.43-1.11,1-2.77.82-2.37.9-2.73.72-3.17s-.54-.93-.65-.93a1.63,1.63,0,0,1-.47-.22C59,14,58.87,14,58.73,14s-.19.07-.29,0a.22.22,0,0,0-.29-.07l-.36.18c-.14.07-.22.14-.22.21A6.26,6.26,0,0,1,57.11,16c-.08.18-.08.26,0,.33s.1.14-.44,1.55c-.36,1-1.29,4.21-1.83,6.33-.69,2.77-.79,3.67-.36,4.14a.68.68,0,0,1,.18.25A5.42,5.42,0,0,0,56,29.81a.67.67,0,0,1,.4.14.84.84,0,0,0,.43.14c.32,0,.43,0,.54-.32a12.87,12.87,0,0,1,.83-1.84,3.17,3.17,0,0,1,.32-.46,8.39,8.39,0,0,0,.9-1.48c0-.14.14-.25.18-.25a.08.08,0,0,0,.07-.07,2.54,2.54,0,0,1,.29-.51c.18-.21.36-.54.47-.68a4.47,4.47,0,0,1,.32-.61c.11-.15.14-.29.11-.29a.12.12,0,0,0-.11.11c0,.07,0,.07,0,0s0-.14.15-.29a1,1,0,0,0,.18-.35,8.8,8.8,0,0,1,.61-1,14.21,14.21,0,0,0,.83-1.29c.11-.18.21-.33.29-.29s.07,0,.07,0a.85.85,0,0,1,.29-.54s.07,0,.07-.1a1.94,1.94,0,0,1,.36-.51l.43-.5.47-.61.61-.72c.29-.4.54-.69.65-.69s-.07.33-.33.61-.32.54-.1.33a.52.52,0,0,0,.14-.22.1.1,0,0,1,.11-.11c.07,0,.07.11,0,.29a1.28,1.28,0,0,0-.1.47l-.69,2.56a12.92,12.92,0,0,0-.68,4.1c.07.93.21,1.33.61,1.62a1.81,1.81,0,0,1,.36.43,1.55,1.55,0,0,0,.86.79l.54.11a3.74,3.74,0,0,0,2.16-1.11,1.46,1.46,0,0,1,.47-.33.08.08,0,0,0,.07-.07,1.82,1.82,0,0,1,.29-.32c-.29,1.43-.27,2,0,2.37a.68.68,0,0,1,.18.25A5.42,5.42,0,0,0,71,29.81a.67.67,0,0,1,.4.14.88.88,0,0,0,.43.14c.32,0,.43,0,.54-.32a12.87,12.87,0,0,1,.83-1.84,3.17,3.17,0,0,1,.32-.46,7.83,7.83,0,0,0,.9-1.48c0-.14.14-.25.18-.25a.08.08,0,0,0,.07-.07,3.22,3.22,0,0,1,.29-.51c.18-.21.36-.54.47-.68a4.47,4.47,0,0,1,.32-.61c.11-.15.15-.29.11-.29a.12.12,0,0,0-.11.11c0,.07,0,.07,0,0s0-.14.14-.29a1,1,0,0,0,.18-.35,8.8,8.8,0,0,1,.61-1,14.21,14.21,0,0,0,.83-1.29c.11-.18.22-.33.29-.29s.07,0,.07,0a.89.89,0,0,1,.29-.54s.07,0,.07-.1a1.94,1.94,0,0,1,.36-.51l.43-.5.47-.61.61-.72c.29-.4.54-.69.65-.69s-.07.33-.32.61-.33.54-.11.33a.52.52,0,0,0,.14-.22.1.1,0,0,1,.11-.11c.07,0,.07.11,0,.29a1.13,1.13,0,0,0-.11.47l-.69,2.56a12.92,12.92,0,0,0-.68,4.1c.07.93.22,1.33.61,1.62a1.43,1.43,0,0,1,.36.43,1.54,1.54,0,0,0,.87.79l.54.11a3.77,3.77,0,0,0,2.16-1.11,1.35,1.35,0,0,1,.46-.33.09.09,0,0,0,.08-.07,2.18,2.18,0,0,1,.36-.4l.57-.68a4.94,4.94,0,0,1,.43-.51,3.21,3.21,0,0,0,.36-.57c.11-.22.22-.43.26-.43s1.15-1.62,1.15-1.66a6.5,6.5,0,0,1,.36-.61c.75-1.19.82-1.33.82-1.51S88.47,19.73,88.29,19.91ZM55.7,22.39a14,14,0,0,1,.9-2.45,1.88,1.88,0,0,1-.14.51c-.07.14-.11.32-.07.36s0,.11,0,.14-.11.18-.18.4a5.75,5.75,0,0,1-.25.86C55.7,22.79,55.63,22.86,55.7,22.39Zm-.54,4.25c.18-.79.29-1.19.32-1.08a3.14,3.14,0,0,1-.14.75C55.2,27,55.05,27.22,55.16,26.64Zm.32,1.55c0,.07,0,.07,0,0s0-.14,0-.11S55.52,28.11,55.48,28.19Zm.22-.9a.7.7,0,0,1-.14.36c-.08.07.07-.54.18-.62S55.77,27.07,55.7,27.29Zm.47-1.8L56,26.1c0,.36-.28.93-.28.68a5.29,5.29,0,0,1,.43-1.44S56.2,25.38,56.17,25.49Zm.18,1.08c-.15.32-.18.28-.07,0,0-.14.11-.25.14-.22Zm.07-1.8c-.07.18-.11.14-.11-.08s0-.14.08-.1A.16.16,0,0,1,56.42,24.77Zm.29-1.23-.11.54c0,.29-.21.47-.18.22a2,2,0,0,1,.18-.58C56.71,23.47,56.74,23.4,56.71,23.54Zm.22-2.77L56.53,22l-.4,1.44-.32,1.15c-.14.4-.25.76-.25.76s0-.29.29-1.4a10.06,10.06,0,0,0,.39-1.55.83.83,0,0,1,.15-.36.48.48,0,0,0,.07-.22,6.29,6.29,0,0,1,.5-1.44C57.07,20.3,57,20.48,56.93,20.77Z"/><path class="cls-1" d="M146.13,22.9s-.07,0-.07.1a.5.5,0,0,1-.15.26.22.22,0,0,0-.14.17c0,.11.32-.21.54-.57.11-.18.18-.36.14-.4a1.13,1.13,0,0,0-.14.22C146.24,22.79,146.16,22.9,146.13,22.9Z"/><path class="cls-1" d="M146.27,18.65c.11-.22.11-.22,0,0a.42.42,0,0,0-.15.25C146.09,19,146.13,18.9,146.27,18.65Z"/><path class="cls-1" d="M147.68,16.74c.14-.18.14-.25.07-.22a.47.47,0,0,0-.22.22c-.14.22-.29.32-.32.18s-.07,0-.15,0,0,.14,0,.14-.54.86-1,1.33c0,.07,0,.11,0,.11A15.8,15.8,0,0,0,147.68,16.74Z"/><path class="cls-1" d="M146.6,22.25l-.11.07s0,0,.11,0a.09.09,0,0,0,.07-.08C146.67,22.21,146.63,22.21,146.6,22.25Z"/><path class="cls-1" d="M146.78,22c-.08.07-.11.1-.08.1a.19.19,0,0,0,.15-.1c.07-.08.11-.15.07-.15Z"/><path class="cls-1" d="M147.57,20.81a.63.63,0,0,0-.07.21s0,0,.07,0a.41.41,0,0,0,.11-.22S147.64,20.74,147.57,20.81Z"/><path class="cls-1" d="M148.14,20.12c-.1.22-.1.22,0,0a.38.38,0,0,0,.15-.25C148.29,19.8,148.25,19.87,148.14,20.12Z"/><path class="cls-1" d="M148.58,19.48c-.11.25-.11.25.07.07s.25-.29.11-.29S148.65,19.37,148.58,19.48Z"/><path class="cls-1" d="M149.33,18.68a3.85,3.85,0,0,1,.47-.57.28.28,0,0,0,.11-.22c0-.14-.25.11-.54.58a4.8,4.8,0,0,0-.36.47c-.11.1-.15.21-.11.21A1.68,1.68,0,0,0,149.33,18.68Z"/><path class="cls-1" d="M153.83,23.58c-.07,0-.14.11-.18.22l.22-.18Z"/><path class="cls-1" d="M154.05,24.16l.36-.29c.11-.07.07-.07-.15,0a2.44,2.44,0,0,0-.36.26C153.76,24.34,153.87,24.3,154.05,24.16Z"/><path class="cls-1" d="M154.12,24.26s0,0,0,.11a.08.08,0,0,0,.08.07c.07,0,.07,0,0-.07A.14.14,0,0,0,154.12,24.26Z"/><path class="cls-1" d="M168.91,23.58c-.07,0-.15.11-.18.22l.21-.18Z"/><path class="cls-1" d="M168.8,24l.18-.18c.36-.37,1.19-.44.9-.69l.25-.18c.07-.11,1.44-1.8,1.44-1.83s-.07,0-.18.1l-1.87,1.91-.58.51a1.3,1.3,0,0,0,0,.18Z"/><path class="cls-1" d="M169.34,23.9a2,2,0,0,0-.36.26c-.14.18,0,.14.14,0l.36-.29C169.59,23.8,169.56,23.8,169.34,23.9Z"/><path class="cls-1" d="M169.19,24.26s0,0,0,.11a.07.07,0,0,0,.07.07c.07,0,.07,0,0-.07S169.19,24.26,169.19,24.26Z"/><path class="cls-1" d="M171.46,21.64a10.71,10.71,0,0,0-1.4,1.65s.39-.11.47-.21.57-.9.68-1S171.5,21.64,171.46,21.64Z"/><path class="cls-1" d="M170.45,23.69s0,.07.11,0a.23.23,0,0,0,.08-.14,0,0,0,0,0-.08,0S170.45,23.65,170.45,23.69Z"/><path class="cls-1" d="M171.57,21.31a.33.33,0,0,0,.07-.21s-.07,0-.11.1S171.5,21.38,171.57,21.31Z"/><path class="cls-1" d="M171.79,21.46a.43.43,0,0,0,.14-.26c-.07,0-.32.26-.32.36S171.68,21.56,171.79,21.46Z"/><path class="cls-1" d="M172.36,20.38c.11,0,.25.07.11-.22.07,0,.07-.07.07-.11s-.14,0-.25.18a3.09,3.09,0,0,1-.36.47.65.65,0,0,0-.18.29C171.82,21.17,172.54,20.7,172.36,20.38Z"/><path class="cls-1" d="M172.83,19.66s-.11.07-.14.14,0,.11.07,0S172.94,19.66,172.83,19.66Z"/><path class="cls-1" d="M173.19,19.91c-.47.07-.65.29-.43.54,0,0,.11,0,.18-.07s.11-.15,0,.1-.15.36-.25.22-.08-.11,0,0-.21,0-.32,0a9.8,9.8,0,0,1-.47,1c-.29.36-1.08,1.52-1.15,1.52s0,.07,0,.17-.22.55-.32.44-.08,0,0,0a.65.65,0,0,1-.18.29.84.84,0,0,0-.21.29c0,.07,0,0-.08,0s-.07-.11-.14,0a3.09,3.09,0,0,1-1,.79c-.07,0,0-.15.22-.33s.32-.39.25-.43a.14.14,0,0,0-.18.07s-.11.07-.18.07-.11,0,0-.07.1-.14,0-.25a.48.48,0,0,1,0-.29c0-.07,0-.07-.07,0s-.18.11-.18.08,0,0-.07,0-.11.11-.07,0a.18.18,0,0,1,.14-.11c.07,0,.11,0,.11-.07s0-.14,0-.21l-.33.32c-.82.83-1.83,1.4-1.9,1.26a5.08,5.08,0,0,1,.28-1.44l.33-1.19.36-1.29.32-1.08a5.88,5.88,0,0,1,.22-.83,13.91,13.91,0,0,0,.5-2.09,5.22,5.22,0,0,0,0-2.38,1.58,1.58,0,0,0-1.19-.75c-.18,0-.28,0-.36-.11s-.1-.14-.14-.11a.32.32,0,0,1-.18,0,2.67,2.67,0,0,0-1.62.21c0,.07-.14.11-.29.11s-.43.14-1,.72a8.4,8.4,0,0,0-.79.79l-.29.4c-.33.39,0,.21.54-.4s.65-.5.25,0c-.29.32-.36.54-.14.46s0,.15-.22.4a6,6,0,0,0-.83,1.22.62.62,0,0,1-.18.26c-.11.1-.18.21-.14.28s0,.08,0,0-.22.18-.43.47l-.65,1-.36.54a2.31,2.31,0,0,0-.33.46,8.42,8.42,0,0,1-.68,1.08l-.18.26c-.18.32-.36.57-.43.54a6.32,6.32,0,0,1,.93-1.88,1.37,1.37,0,0,0,.22-.32.61.61,0,0,1,.18-.25A6.23,6.23,0,0,0,161,18.9c-.07,0-1.65,2.38-1.87,2.77l-.18.43a.85.85,0,0,1-.07.26c-.11.14-.68,1.33-1.12,2.26-.14.29-.28.54-.32.51s0-.18.11-.33a4.06,4.06,0,0,0,.21-.75,1.8,1.8,0,0,1,.11-.54,3,3,0,0,0,.33-1.08c0-.07,0-.15,0-.11l.07-.25.33-.87c.32-.79.43-1.11,1-2.77.83-2.37.9-2.73.72-3.17s-.54-.93-.65-.93a1.63,1.63,0,0,1-.47-.22c-.32-.14-.43-.14-.57-.07s-.18.07-.29,0a.22.22,0,0,0-.29-.07l-.36.18q-.21.11-.21.21A6.9,6.9,0,0,1,157,16c-.07.18-.07.26,0,.33s.11.14-.43,1.55c-.26.7-.82,2.59-1.32,4.38l-.84.87-.57.51a1,1,0,0,0,0,.18l-.11.18.18-.18c.36-.37,1.19-.44.9-.69l.26-.18.06-.11c-.13.48-.25.95-.36,1.37,0,.08,0,.14,0,.21s-.05,0-.09.12a3,3,0,0,1-1,.79c-.08,0,0-.15.21-.33s.33-.39.25-.43a.14.14,0,0,0-.18.07s-.1.07-.18.07-.1,0,0-.07.11-.14,0-.25a.36.36,0,0,1,0-.29c0-.07,0-.07-.08,0s-.18.11-.18.08,0,0-.07,0-.11.11-.07,0a.22.22,0,0,1,.14-.11c.08,0,.11,0,.11-.07s0-.14,0-.21l-.32.32c-.83.83-1.84,1.4-1.91,1.26a5.22,5.22,0,0,1,.29-1.44l.32-1.19.36-1.29.33-1.08a4.79,4.79,0,0,1,.21-.83,12.14,12.14,0,0,0,.51-2.09,5.22,5.22,0,0,0,0-2.38,1.62,1.62,0,0,0-1.19-.75c-.18,0-.29,0-.36-.11s-.11-.14-.15-.11a.32.32,0,0,1-.18,0,2.68,2.68,0,0,0-1.62.21c0,.07-.14.11-.28.11s-.44.14-1,.72a8.4,8.4,0,0,0-.79.79l-.29.4c-.32.39,0,.21.54-.4s.65-.5.25,0c-.28.32-.36.54-.14.46.07,0,0,.15-.22.4a5.61,5.61,0,0,0-.82,1.22.74.74,0,0,1-.18.26c-.11.1-.18.21-.15.28s0,.08,0,0-.21.18-.43.47l-.65,1-.36.54a2.08,2.08,0,0,0-.32.46,7.53,7.53,0,0,1-.69,1.08l-.18.26c-.18.32-.35.57-.43.54a6.41,6.41,0,0,1,.94-1.88,1.22,1.22,0,0,0,.21-.32.73.73,0,0,1,.18-.25A6.32,6.32,0,0,0,146,18.9c-.07,0-1.66,2.38-1.87,2.77l-.18.43a1.28,1.28,0,0,1-.07.26c-.11.14-.69,1.33-1.12,2.26-.15.29-.29.54-.33.51s0-.18.11-.33a3.92,3.92,0,0,0,.22-.75c0-.29.07-.54.11-.54a3.2,3.2,0,0,0,.32-1.08c0-.07,0-.15,0-.11s.11,0,.18-.07.14-.07,0,.11-.07.28.18,0a2.63,2.63,0,0,0,.43-1s0,0-.1.11-.11.1-.15.07-.14,0-.29.29-.25.36-.21.25l.32-.87c.33-.79.43-1.11,1-2.77.83-2.37.9-2.73.72-3.17s-.54-.93-.64-.93a1.52,1.52,0,0,1-.47-.22c-.32-.14-.43-.14-.58-.07s-.18.07-.28,0A.23.23,0,0,0,143,14l-.36.18c-.15.07-.22.14-.22.21A6.42,6.42,0,0,1,142,16c-.07.18-.07.26,0,.33s.11.14-.43,1.55c-.36,1-1.29,4.21-1.83,6.33a1.13,1.13,0,0,0,0,.15c-.1,0-.17.06-.14.14s0,.11,0,.07a.33.33,0,0,0-.18.11,12,12,0,0,1-2.66,2c-.62.18-.65.11-.58-1.15a12.76,12.76,0,0,1,1-4.61,39.72,39.72,0,0,1,1.76-4.43c.54-1.15.61-1.4.54-1.94s-.11-.51-.36-.65a.72.72,0,0,0-.5-.14c-.18,0-.22,0-.22-.11a.11.11,0,0,0-.07-.15c-.07,0-.11,0-.11,0s-.07.11-.18.11-.18,0-.07-.15.07-.14,0-.18a.29.29,0,0,0-.28,0,1.45,1.45,0,0,1-.44.07c-.25,0-.5.22-.43.29s0,.14-.14.25a.85.85,0,0,0-.15.33,2.24,2.24,0,0,1-.39.82s0,0,0-.1,0-.15-.07-.22a1.59,1.59,0,0,1-.22-.43,3,3,0,0,0-1.44-1.12c-.43-.25-.47-.25-1.58-.18a3.54,3.54,0,0,0-1.26.18.72.72,0,0,1-.4.15c-.22,0-.43.1-1,.61a11,11,0,0,0-1.08,1l-.61.72A13.15,13.15,0,0,0,126.22,19a13.93,13.93,0,0,0-1.29,5.33c0,1.18.36,2.34.72,2.19.07,0,.18.11.25.36a3,3,0,0,0,1.22,1.19A2.16,2.16,0,0,0,128.6,28c.5-.21.9-.58,2.12-2l.43-.47a13.39,13.39,0,0,0,2.16-2.67l.29-.43-.07.4a11.39,11.39,0,0,0,0,2.19,2.54,2.54,0,0,0,.36.94c.18.25.36.61.47.79a.87.87,0,0,0,.36.36c.11,0,.18.11.18.15,0,.21.68.75,1.37,1.07a1.18,1.18,0,0,0,.79.15,2.13,2.13,0,0,0,1.51-.58,5.66,5.66,0,0,0,.5-.41,1.2,1.2,0,0,0,.26.88.74.74,0,0,1,.17.25,5.47,5.47,0,0,0,1.34,1.23.62.62,0,0,1,.39.14.91.91,0,0,0,.43.14c.33,0,.44,0,.54-.32a16.08,16.08,0,0,1,.83-1.84,4.07,4.07,0,0,1,.33-.46,8.39,8.39,0,0,0,.9-1.48c0-.14.14-.25.18-.25a.08.08,0,0,0,.07-.07,2.54,2.54,0,0,1,.29-.51c.18-.21.36-.54.46-.68a6.08,6.08,0,0,1,.33-.61c.11-.15.14-.29.11-.29a.12.12,0,0,0-.11.11c0,.07,0,.07,0,0s0-.14.15-.29a1.25,1.25,0,0,0,.18-.35,7.37,7.37,0,0,1,.61-1,14.21,14.21,0,0,0,.83-1.29c.1-.18.21-.33.28-.29s.08,0,.08,0a.88.88,0,0,1,.28-.54s.08,0,.08-.1a1.94,1.94,0,0,1,.36-.51l.43-.5.47-.61.61-.72c.29-.4.54-.69.65-.69s-.08.33-.33.61-.32.54-.11.33a.47.47,0,0,0,.15-.22.1.1,0,0,1,.11-.11c.07,0,.07.11,0,.29a1.32,1.32,0,0,0-.11.47l-.68,2.56a12.92,12.92,0,0,0-.68,4.1c.07.93.21,1.33.61,1.62a1.81,1.81,0,0,1,.36.43,1.52,1.52,0,0,0,.86.79l.54.11a3.74,3.74,0,0,0,2.16-1.11,1.46,1.46,0,0,1,.47-.33.08.08,0,0,0,.07-.07,2.27,2.27,0,0,1,.36-.39c-.31,1.48-.3,2.09,0,2.44a.68.68,0,0,1,.18.25,5.42,5.42,0,0,0,1.33,1.23.67.67,0,0,1,.4.14.91.91,0,0,0,.43.14c.32,0,.43,0,.54-.32a16.08,16.08,0,0,1,.83-1.84,4.23,4.23,0,0,1,.32-.46,7.83,7.83,0,0,0,.9-1.48.41.41,0,0,1,.18-.25.08.08,0,0,0,.07-.07,3.22,3.22,0,0,1,.29-.51c.18-.21.36-.54.47-.68a6,6,0,0,1,.32-.61c.11-.15.15-.29.11-.29a.13.13,0,0,0-.11.11c0,.07,0,.07,0,0s0-.14.14-.29a1,1,0,0,0,.18-.35,8.8,8.8,0,0,1,.61-1,14.21,14.21,0,0,0,.83-1.29c.11-.18.22-.33.29-.29s.07,0,.07,0a1,1,0,0,1,.29-.54s.07,0,.07-.1a2.27,2.27,0,0,1,.36-.51l.43-.5.47-.61.61-.72c.29-.4.54-.69.65-.69s-.07.33-.32.61-.33.54-.11.33a.52.52,0,0,0,.14-.22.1.1,0,0,1,.11-.11c.07,0,.07.11,0,.29a1.32,1.32,0,0,0-.11.47l-.68,2.56a13.29,13.29,0,0,0-.69,4.1c.07.93.22,1.33.61,1.62a1.43,1.43,0,0,1,.36.43,1.57,1.57,0,0,0,.87.79l.54.11a3.77,3.77,0,0,0,2.16-1.11,1.27,1.27,0,0,1,.47-.33.08.08,0,0,0,.07-.07,2.18,2.18,0,0,1,.36-.4l.57-.68a4.94,4.94,0,0,1,.43-.51,3.21,3.21,0,0,0,.36-.57c.11-.22.22-.43.26-.43s1.15-1.62,1.15-1.66a6.5,6.5,0,0,1,.36-.61c.75-1.19.83-1.33.83-1.51S173.37,19.73,173.19,19.91Zm-46.5.57c-.14.33-.61,1.73-.75,2.16s-.11.47-.22,1.26l-.18.9,0,.36-.14-.47a1.64,1.64,0,0,1,0-.68,1.69,1.69,0,0,0,.08-.39,12.25,12.25,0,0,1,.61-2.13c.1-.29.32-.79.39-1.08a2.5,2.5,0,0,1,.33-.65c0-.07.1-.14.1-.18a5.43,5.43,0,0,1,.36-.68c.44-.65.65-.86.54-.54,0,.14-.1.25-.14.25l-.43.83Zm7.7-1.11c0,.14-.21.61-.32,1a3.58,3.58,0,0,1-.5,1,3.62,3.62,0,0,0-.4.5c-.18.26-.72,1-.83,1.08a3.17,3.17,0,0,0-.5.58c-.43.54-.58.68-.61.68a4.56,4.56,0,0,0-.83.87s-.07.07-.18.07-.15-.22.14-.51a19.33,19.33,0,0,0,2.38-2.91,1.36,1.36,0,0,1,.29-.4.13.13,0,0,0,0-.1s-.11-.08-.11,0a22,22,0,0,1-3.49,4c-.57.54-.68.54-.1,0a2,2,0,0,0,.39-.58c0-.07,0-.07,0-.07a7.11,7.11,0,0,0,2-2.27c0-.07,0-.07.07-.07s.08,0,0-.14,0-.25,0-.25.07,0,.07.1,0,.18,0,.18.11-.07.11-.1a.41.41,0,0,1,.18-.29,1.56,1.56,0,0,0,.39-.72s-.18.14-.32.32-.25.36-.25.33a2.13,2.13,0,0,1,.39-.65,1.07,1.07,0,0,0,.22-.4c0-.11.11-.21.18-.21s.07-.08.07-.11a3.45,3.45,0,0,1,.29-.54,1.58,1.58,0,0,0,.32-.54s-.07,0-.18.14l-1,1.48-.39.5-.47.65-.65.86a35.31,35.31,0,0,1-2.84,2.92c-.69.65-.76.61-.69-.47a10,10,0,0,1,.62-2.84,3.53,3.53,0,0,0,.39-1.15c0-.15,0-.22.07-.22s.15-.18.22-.4a9.84,9.84,0,0,1,.54-1,5.06,5.06,0,0,0,.4-.61s.07-.11.18-.18.18-.14.18-.22a18,18,0,0,1,3.2-3.6c.18-.1.32-.21.32-.28s.08-.08.18-.11.22.07.18,0,.18,0,.22,0a1,1,0,0,1,.72.93l.11.8v.5l-.22.36a.82.82,0,0,0-.18.5c0,.08-.07.33-.21.54l-.47.83c-.11.22-.4.65-.61,1a3.93,3.93,0,0,0-.4.72,3.89,3.89,0,0,0,.5-.64l.9-1.48.15-.25a3.16,3.16,0,0,0,.57-1.08c0-.07,0,0,0,0s0,.15-.11.15,0-.07,0-.22.1-.18.18-.11l.07.26A16.34,16.34,0,0,1,134.39,19.37Zm6.16,3a14,14,0,0,1,.9-2.45,1.64,1.64,0,0,1-.15.51.55.55,0,0,0-.07.36s0,.11,0,.14-.11.18-.18.4a5.75,5.75,0,0,1-.25.86C140.55,22.79,140.48,22.86,140.55,22.39ZM140,26.64c.18-.79.29-1.19.32-1.08a3.14,3.14,0,0,1-.14.75C140,27,139.9,27.22,140,26.64Zm.32,1.55c0,.07,0,.07,0,0s0-.14,0-.11S140.37,28.11,140.33,28.19Zm.22-.9a.8.8,0,0,1-.14.36c-.08.07.07-.54.17-.62S140.62,27.07,140.55,27.29Zm.47-1.8-.15.61c0,.36-.29.93-.29.68a5.29,5.29,0,0,1,.44-1.44S141.05,25.38,141,25.49Zm.18,1.08c-.15.32-.18.28-.08,0,0-.14.11-.25.15-.22A2,2,0,0,0,141.2,26.57Zm.07-1.8c-.07.18-.11.14-.11-.08s0-.14.07-.1A.16.16,0,0,1,141.27,24.77Zm.29-1.23-.11.54c0,.29-.22.47-.18.22a2,2,0,0,1,.18-.58C141.56,23.47,141.59,23.4,141.56,23.54Zm.21-2.77L141.38,22l-.4,1.44-.32,1.15c-.15.4-.25.76-.25.76s0-.29.28-1.4a9.34,9.34,0,0,0,.4-1.55.86.86,0,0,1,.14-.36.38.38,0,0,0,.07-.22,6.31,6.31,0,0,1,.51-1.44C141.92,20.3,141.88,20.48,141.77,20.77Zm14.75-.83a1.88,1.88,0,0,1-.14.51c-.07.14-.11.32-.07.36s0,.11,0,.14-.11.18-.18.4a4.07,4.07,0,0,1-.25.86c-.22.58-.29.65-.22.18A14,14,0,0,1,156.52,19.94Zm-1.25,6.37c-.15.65-.29.91-.19.33.19-.79.29-1.19.33-1.08A3.8,3.8,0,0,1,155.27,26.31Zm.82-.82-.14.61c0,.36-.29.93-.29.68a5.29,5.29,0,0,1,.43-1.44S156.13,25.38,156.09,25.49Zm.26-.72c-.08.18-.11.14-.11-.08s0-.14.07-.1A.16.16,0,0,1,156.35,24.77Zm.28-1.23-.11.54c0,.29-.21.47-.17.22a2.17,2.17,0,0,1,.17-.58C156.63,23.47,156.67,23.4,156.63,23.54Zm.22-2.77-.4,1.26-.39,1.44-.33,1.15c-.14.4-.25.76-.25.76s0-.29.29-1.4a10.06,10.06,0,0,0,.39-1.55.83.83,0,0,1,.15-.36.38.38,0,0,0,.07-.22,6.81,6.81,0,0,1,.5-1.44C157,20.3,157,20.48,156.85,20.77Z"/></g></g></svg>