<?xml version="1.0" encoding="UTF-8"?>
<svg width="264px" height="114px" viewBox="0 0 264 114" version="1.1" xmlns="http://www.w3.org/2000/svg" xmlns:xlink="http://www.w3.org/1999/xlink">
    <!-- Generator: Sketch 63.1 (92452) - https://sketch.com -->
    <title>Group 22</title>
    <desc>Created with Sketch.</desc>
    <defs>
        <polygon id="path-1" points="0 0.0485007254 263.701563 0.0485007254 263.701563 113.399982 0 113.399982"></polygon>
        <polygon id="path-3" points="0 118.866533 263.701667 118.866533 263.701667 0 0 0"></polygon>
    </defs>
    <g id="Page-1" stroke="none" stroke-width="1" fill="none" fill-rule="evenodd">
        <g id="Group-22" transform="translate(0.000000, -5.000000)">
            <g id="Group-3" transform="translate(0.000000, 5.466533)">
                <mask id="mask-2" fill="white">
                    <use xlink:href="#path-1"></use>
                </mask>
                <g id="Clip-2"></g>
                <path d="M262.1892,50.4265533 C255.4104,44.0392867 246.914733,50.0849533 240.588133,53.8971533 C236.323267,56.46662 232.058867,59.0365533 227.794,61.6064867 C229.004533,54.5644867 229.559867,47.4109533 229.432,40.26442 C229.354533,35.94962 224.164267,33.8920867 221.067,36.79942 C211.869,45.43322 202.9888,54.39462 194.4362,63.6616867 C197.268867,57.4349533 200.7796,51.4807533 204.602533,45.5895533 C212.791133,32.9699533 221.002133,20.56222 225.828867,6.18235333 C227.409933,1.47275333 220.953133,-1.98618 217.638867,1.41535333 C199.8066,19.7161533 181.760133,37.8064867 163.817733,55.99902 C167.4666,47.64662 171.115933,39.2946867 174.7648,30.9422867 C175.742933,28.7036867 175.607133,26.1939533 173.502467,24.6212867 C171.582133,23.1862867 168.811067,23.22642 167.069,25.00442 C163.968467,28.1674867 160.868867,31.3305533 157.7688,34.4931533 C160.3896,26.13842 162.620733,17.6618867 164.4468,9.08688667 C165.634933,3.50835333 158.7068,0.800286667 155.490533,5.31108667 C147.474133,16.55542 139.516067,27.8417533 131.610733,39.1649533 C133.560467,34.3447533 135.2736,29.4167533 136.654,24.3356867 C137.9462,19.5789533 131.957,16.1643533 128.464,19.56822 C113.6142,34.04142 98.7205333,48.4693533 83.8044667,62.8739533 C85.6823333,58.79762 87.9797333,54.8864867 90.3457333,51.1078867 C95.9914667,42.09142 102.315267,33.45342 106.693533,23.7089533 C107.694533,21.48202 107.520933,18.9489533 105.431667,17.3879533 C103.572,15.99822 100.659067,15.92682 98.9982,17.7710867 C92.4882,24.9992867 86.1826,32.4080867 80.0725333,39.9750867 C81.2583333,34.9448867 82.1823333,29.84002 82.8384667,24.6660867 C83.1044667,22.57262 81.1272,20.4595533 79.2414,19.9410867 C76.993,19.3236867 75.0171333,20.4273533 73.7076667,22.19322 C63.4928,35.9640867 53.1659333,49.6523533 42.7364,63.26082 C43.8746,55.5351533 44.3571333,47.71242 44.1644,39.9022867 C44.1112,37.7434867 42.6794667,35.7573533 40.5673333,35.1772867 C38.6563333,34.6522867 35.8773333,35.4703533 35.0336,37.4289533 C30.5937333,47.73342 25.3250667,57.6724867 19.2672667,67.1056867 C21.6463333,59.1074867 24.2634,51.18022 27.1212667,43.33462 C29.0948,37.91522 21.0532,35.08722 18.165,39.55882 C11.5117333,49.86002 5.6364,60.62742 0.574,71.7961533 C-0.517533333,74.2055533 -0.116666667,77.0680867 2.33193333,78.5007533 C3.3082,79.0714867 4.5864,79.25022 5.7862,79.0406867 C4.90233333,82.4622867 4.0516,85.89322 3.25453333,89.3376867 C2.23533333,93.7439533 8.099,98.09142 11.4440667,94.1051533 C19.4124,84.61082 26.5407333,74.4766867 32.7240667,63.7834867 C31.6801333,70.1735533 30.1546,76.49082 28.1456,82.70682 C26.7166667,87.1289533 33.2766,91.40922 36.3351333,87.4742867 C47.2238667,73.46822 57.9982667,59.37442 68.6658,45.19942 C66.5812,52.14202 63.9188667,58.9119533 60.7273333,65.39302 C57.9128667,71.1087533 65.5307333,75.4473533 69.1894,70.33922 C70.1334667,69.0208867 71.0929333,67.71422 72.0496,66.4056867 C70.8068667,70.2869533 69.9561333,74.3329533 69.6607333,78.6150867 C69.3574,83.0152867 75.1384667,84.8604867 78.0257333,82.0800867 C92.0612,68.56122 106.057933,55.0017533 120.035067,41.4226867 C110.092267,63.5851533 95.4552667,83.65602 85.8881333,106.035487 C84.8488667,108.46682 85.1629333,111.287353 87.6460667,112.73962 C90.0522,114.14662 92.8741333,113.186687 94.3502,110.98122 C111.9594,84.68082 129.864933,58.5782867 148.070533,32.6866867 C145.946267,39.38802 143.568133,46.01002 140.9408,52.5400867 C139.047533,57.2454867 145.922933,60.5802867 149.130333,57.3075533 C151.2308,55.1641533 153.331267,53.02122 155.431733,50.87782 C151.788,59.21902 148.143333,67.56022 144.4996,75.90142 C143.521467,78.14002 143.6568,80.6497533 145.761467,82.22242 C147.678067,83.65462 150.458467,83.6219533 152.1954,81.8392867 C168.859133,64.7373533 185.7086,47.8183533 202.486667,30.8293533 C200.1636,34.4828867 197.774267,38.1032867 195.426,41.7479533 C187.411467,54.18602 180.705933,67.3520867 178.689467,82.18182 C178.391267,84.3793533 178.8906,86.5152867 180.9416,87.7155533 C182.710733,88.75062 185.488333,88.58822 186.879467,86.9492867 C197.115333,74.89342 207.893933,63.3144867 219.167667,52.22882 C218.579667,58.3617533 217.4536,64.4265533 215.778733,70.4171533 C214.637267,74.4976867 219.303933,78.1642867 222.9766,75.9508867 C229.1996,72.2016867 235.4226,68.45202 241.645133,64.7023533 C244.755467,62.8286867 247.8406,60.9036867 250.9794,59.0785533 C251.916467,58.5334867 252.825067,58.0047533 253.861067,57.6813533 C254.297867,57.5450867 254.712733,57.3873533 255.144867,57.3915533 C255.206933,57.39202 255.257333,57.3924867 255.3026,57.3929533 C259.890867,61.63402 266.777,54.7492867 262.1892,50.4265533" id="Fill-1" fill="#9ED9E1" mask="url(#mask-2)"></path>
            </g>
            <path d="M248.959387,41.2213667 C247.565453,39.4713667 244.64272,38.5021 242.638387,39.9595 C238.793987,42.7548333 234.94912,45.5501667 231.104253,48.3455 C233.12212,45.5086333 235.112453,42.6517 237.06872,39.7714333 C238.83132,37.1758333 237.14292,33.9395 234.648587,32.7672333 C234.537053,29.1510333 229.78592,26.0892333 226.238787,29.2658333 C218.208387,36.4590333 210.177987,43.6522333 202.147587,50.8454333 C201.777053,49.5653667 200.872187,48.3781667 199.833853,47.7710333 C197.808987,46.5866333 195.62452,47.1699667 193.895987,48.5373 C185.599587,55.1005 177.303653,61.6637 169.007253,68.2273667 C175.163053,60.5283 181.31932,52.8292333 187.474653,45.1301667 C190.878053,40.8737 186.94452,35.8547 182.62832,37.0932333 C185.546387,33.4499667 188.464453,29.8062333 191.382053,26.1629667 C195.273587,21.3045 189.263387,14.9653 184.45252,19.2334333 L159.657587,41.2321 C162.759987,36.0619 166.09152,31.0275 169.652653,26.1466333 C172.95012,21.6274333 165.719587,16.2038333 161.956853,20.2087667 C150.257053,32.6613 138.557253,45.1138333 126.857453,57.5668333 C129.830587,52.9753 132.91572,48.4551667 136.11752,44.0148333 C139.47472,39.3598333 132.32492,34.4024333 128.42172,38.0769667 C123.565587,42.6493667 118.77292,47.2866333 114.030653,51.9747667 C117.730387,45.7186333 121.35312,39.4167667 124.87552,33.0570333 C127.54392,28.2387 121.184187,23.1161 117.17972,27.1191667 L95.3756533,48.9153 C100.06752,40.9740333 105.004387,33.1765 110.184387,25.5371667 C113.285387,20.9633667 106.164987,15.4128333 102.48812,19.5993 C95.2155867,27.8803 87.9430533,36.1617667 80.67052,44.4427667 C82.1078533,41.5811667 83.5666533,38.7293667 85.0557867,35.8934333 C86.1860533,33.7407 85.79312,31.0662333 83.79392,29.5724333 C82.1297867,28.3287667 79.4926533,28.1122333 77.8177867,29.5117667 C75.9417867,27.9857667 72.94672,28.0067667 71.23452,29.8230333 C67.39572,33.8951667 63.55692,37.9673 59.71812,42.0394333 C58.87812,39.1694333 55.7313867,37.0218333 52.6877867,39.0527667 C52.2383867,39.3523667 51.79412,39.6580333 51.35312,39.9665 C55.1494533,34.0188333 59.0451867,28.1341667 63.04592,22.3190333 C64.54672,20.1378333 63.4528533,16.8809667 61.2879867,15.6144333 C58.85852,14.1934333 56.0883867,15.1860333 54.5838533,17.3728333 C40.5203867,37.8142333 27.70712,59.0919 16.21732,81.0835667 C13.29132,86.6840333 21.2521867,91.3371667 24.6793867,86.0297667 C28.8009867,79.6467 32.9986533,73.1348333 37.67232,67.0322333 C37.5607867,69.0967667 38.8114533,71.0012333 40.5180533,71.9065667 C39.5193867,73.4419 38.5216533,74.9777 37.54072,76.5251667 C34.6100533,81.1489 41.57552,86.7358333 45.2369867,82.4625667 C50.24152,76.6217667 55.24652,70.7809667 60.2510533,64.9401667 C59.4273867,66.8199 58.61212,68.7029 57.80992,70.5924333 C56.8546533,72.8431667 56.9521867,75.3295667 59.0722533,76.9139 C60.91372,78.2901 63.86912,78.3941667 65.50572,76.5307667 C68.5651867,73.0471 71.6246533,69.5634333 74.68412,66.0797667 C73.3872533,68.5895 72.1118533,71.1109 70.8630533,73.6458333 C68.48352,78.4749 74.4470533,83.6936333 78.5588533,79.5837 C84.7197867,73.4246333 90.8811867,67.2655667 97.04212,61.1069667 C91.1392533,70.6181 85.03852,80.0060333 78.7254533,89.2530333 C75.6015867,93.8301 82.7154533,99.3330333 86.42172,95.1913667 C92.54672,88.3463 98.7902533,81.6095 105.14112,74.9758333 C102.839987,79.2346333 100.631253,83.5443 98.51912,87.9039 C97.4569867,90.0967667 97.7341867,92.6951667 99.7814533,94.2253667 C101.671453,95.6375 104.512987,95.6533667 106.21492,93.8417667 C117.446187,81.8885667 128.67652,69.9353667 139.90732,57.9817 C139.643187,58.5757667 139.37812,59.1689 139.11912,59.7657667 C138.146587,62.0076333 138.27212,64.5117667 140.380987,66.0872333 C142.402587,67.5973667 144.942653,67.3649667 146.81492,65.7036333 C147.33152,65.2458333 147.847187,64.7875667 148.36332,64.3297667 C145.506387,68.5069 149.373653,73.1913 153.57272,71.9350333 C147.404787,79.6481 141.23732,87.3621 135.069853,95.0751667 C131.103653,100.0363 137.034053,105.932633 141.999853,102.0047 C153.420587,92.9695667 164.842253,83.9339667 176.263453,74.8988333 C174.927387,79.0311667 180.469987,83.3982333 184.473053,79.8133 C186.41672,78.0717 188.360387,76.3305667 190.30452,74.5894333 C192.02512,76.0697 194.611853,76.4453667 196.69272,74.3085 C199.897787,71.0166333 203.185453,67.8120333 206.549187,64.6909667 C205.532787,65.9575 204.511253,67.2193667 203.48132,68.4751667 C201.93432,70.3605 201.481187,72.8786333 203.098187,74.9091 C204.49212,76.6591 207.41532,77.6279 209.419187,76.1709667 C211.79172,74.4461667 214.164253,72.7209 216.536787,70.9956333 C217.434187,73.7830333 220.483853,75.8629667 223.504587,73.8045 C228.156787,70.6344333 232.808987,67.4639 237.461187,64.2938333 C239.645187,62.8051667 240.62052,59.9860333 239.21912,57.5897 C239.21072,57.5752333 239.199987,57.5621667 239.191587,57.5481667 C242.319653,54.2502333 245.448187,50.9527667 248.57672,47.6553 C250.24692,45.8945667 250.49332,43.1463667 248.959387,41.2213667" id="Fill-4" fill="#C7E8F1"></path>
            <path d="M89.5728867,28.5477733 C95.8784867,28.5477733 95.88922,18.7477733 89.5728867,18.7477733 C83.26682,18.7477733 83.2565533,28.5477733 89.5728867,28.5477733" id="Fill-6" fill="#FEFEFE"></path>
            <mask id="mask-4" fill="white">
                <use xlink:href="#path-3"></use>
            </mask>
            <g id="Clip-9"></g>
            <polygon id="Fill-8" fill="#CC3266" mask="url(#mask-4)" points="14.6864667 74.8216 232.380867 74.8216 232.380867 34.6924667 14.6864667 34.6924667"></polygon>
            <path d="M31.6547,43.0764133 C30.6243,43.0764133 29.9523,43.2668133 29.6387,43.6476133 C29.3251,44.0284133 29.1683,44.8012133 29.1683,45.9655467 L29.1683,62.7655467 C29.1683,63.9308133 29.3307,64.7036133 29.6555,65.0844133 C29.9798333,65.46568 30.6574333,65.6556133 31.6883,65.6556133 C34.1299,65.6556133 36.0227,65.21368 37.3667,64.3284133 C38.7107,63.44408 39.6515,62.1500133 40.1891,60.4476133 C40.7267,58.7452133 40.9959667,56.6732133 40.9959667,54.2311467 C40.9959667,50.4684133 40.3067,47.6684133 38.9291,45.8311467 C37.5515,43.99528 35.1262333,43.0764133 31.6547,43.0764133 M32.4947,42.4716133 C36.5043,42.4716133 39.4835,43.47448 41.4323,45.4783467 C43.3811,47.4836133 44.3555,50.3564133 44.3555,54.0967467 C44.3555,56.5388133 43.8790333,58.6724133 42.9275,60.4980133 C41.9750333,62.3236133 40.5923,63.7399467 38.7779,64.7479467 C36.9635,65.7564133 34.7678333,66.2604133 32.1923,66.2604133 C31.6995,66.2604133 30.9710333,66.2436133 30.0083,66.2095467 C29.0451,66.1764133 28.2046333,66.1596133 27.4883,66.1596133 C26.7043,66.1596133 25.9310333,66.1652133 25.1699,66.1764133 C24.4083,66.1876133 23.7923,66.2156133 23.3223667,66.2604133 L23.3223667,65.5879467 C24.0830333,65.54408 24.6603,65.4540133 25.0527667,65.3196133 C25.4438333,65.1852133 25.7075,64.9164133 25.8419,64.5132133 C25.9763,64.1095467 26.0439667,63.5047467 26.0439667,62.6988133 L26.0439667,46.0332133 C26.0439667,45.20488 25.9763,44.5940133 25.8419,44.2020133 C25.7075,43.8100133 25.4438333,43.5412133 25.0527667,43.3956133 C24.6603,43.2500133 24.0830333,43.1660133 23.3223667,43.1436133 L23.3223667,42.4716133 C23.7923,42.4940133 24.4083,42.5220133 25.1699,42.5556133 C25.9310333,42.5892133 26.6819,42.5948133 27.4211,42.5724133 C28.2046333,42.5500133 29.0894333,42.5276133 30.0755,42.5047467 C31.0611,42.48328 31.8675,42.4716133 32.4947,42.4716133" id="Fill-10" fill="#FEFEFE" mask="url(#mask-4)"></path>
            <path d="M31.6547,43.0764133 C30.6243,43.0764133 29.9523,43.2668133 29.6387,43.6476133 C29.3251,44.0284133 29.1683,44.8012133 29.1683,45.9655467 L29.1683,62.7655467 C29.1683,63.9308133 29.3307,64.7036133 29.6555,65.0844133 C29.9798333,65.46568 30.6574333,65.6556133 31.6883,65.6556133 C34.1299,65.6556133 36.0227,65.21368 37.3667,64.3284133 C38.7107,63.44408 39.6515,62.1500133 40.1891,60.4476133 C40.7267,58.7452133 40.9959667,56.6732133 40.9959667,54.2311467 C40.9959667,50.4684133 40.3067,47.6684133 38.9291,45.8311467 C37.5515,43.99528 35.1262333,43.0764133 31.6547,43.0764133 Z M32.4947,42.4716133 C36.5043,42.4716133 39.4835,43.47448 41.4323,45.4783467 C43.3811,47.4836133 44.3555,50.3564133 44.3555,54.0967467 C44.3555,56.5388133 43.8790333,58.6724133 42.9275,60.4980133 C41.9750333,62.3236133 40.5923,63.7399467 38.7779,64.7479467 C36.9635,65.7564133 34.7678333,66.2604133 32.1923,66.2604133 C31.6995,66.2604133 30.9710333,66.2436133 30.0083,66.2095467 C29.0451,66.1764133 28.2046333,66.1596133 27.4883,66.1596133 C26.7043,66.1596133 25.9310333,66.1652133 25.1699,66.1764133 C24.4083,66.1876133 23.7923,66.2156133 23.3223667,66.2604133 L23.3223667,65.5879467 C24.0830333,65.54408 24.6603,65.4540133 25.0527667,65.3196133 C25.4438333,65.1852133 25.7075,64.9164133 25.8419,64.5132133 C25.9763,64.1095467 26.0439667,63.5047467 26.0439667,62.6988133 L26.0439667,46.0332133 C26.0439667,45.20488 25.9763,44.5940133 25.8419,44.2020133 C25.7075,43.8100133 25.4438333,43.5412133 25.0527667,43.3956133 C24.6603,43.2500133 24.0830333,43.1660133 23.3223667,43.1436133 L23.3223667,42.4716133 C23.7923,42.4940133 24.4083,42.5220133 25.1699,42.5556133 C25.9310333,42.5892133 26.6819,42.5948133 27.4211,42.5724133 C28.2046333,42.5500133 29.0894333,42.5276133 30.0755,42.5047467 C31.0611,42.48328 31.8675,42.4716133 32.4947,42.4716133 Z" id="Stroke-11" stroke="#FEFEFE" stroke-width="0.25" mask="url(#mask-4)"></path>
            <path d="M57.4938933,52.2976533 C56.9712267,53.31872 56.2614267,54.18952 55.3654267,54.9109867 C54.6938933,55.4336533 53.79136,55.9250533 52.6592267,56.3856533 C51.9228267,56.6847867 51.12576,56.9871867 50.28016,57.2914533 C50.34876,57.03292 50.4122267,56.7743867 50.4938933,56.51632 C51.0286933,54.8241867 51.7072267,53.2748533 52.5280933,51.86832 C53.3498933,50.4622533 54.2206933,49.3422533 55.1418933,48.50832 C56.0626267,47.6748533 56.9086933,47.2576533 57.6800933,47.2576533 C57.87936,47.2576533 58.0286933,47.35752 58.1280933,47.55632 C58.2274933,47.7560533 58.2778933,48.2161867 58.2778933,48.9376533 C58.2778933,50.15752 58.01656,51.2770533 57.4938933,52.2976533 M60.4614267,47.16432 C59.92616,46.7536533 59.2732933,46.54832 58.5018933,46.54832 C57.0832267,46.54832 55.75136,46.88432 54.5072267,47.55632 C53.2626267,48.22832 52.1300267,49.12432 51.1094267,50.24432 C50.0888267,51.36432 49.2114933,52.5902533 48.4778933,53.9211867 C47.74336,55.25352 47.1772933,56.5853867 46.7792267,57.91632 C46.38116,59.2481867 46.1818933,60.4493867 46.1818933,61.5189867 C46.1818933,63.26152 46.62336,64.57472 47.5072267,65.4576533 C48.39016,66.3410533 49.59136,66.7829867 51.1094267,66.7829867 C52.1794933,66.7829867 53.1940267,66.54032 54.15256,66.05452 C55.1106267,65.5691867 55.97536,64.94152 56.74676,64.1691867 C57.5186267,63.3982533 58.1406933,62.6016533 58.6134267,61.78032 L58.01656,61.4816533 C57.0706267,62.8755867 56.09996,63.8462533 55.10456,64.3936533 C54.1086933,64.94152 53.1632267,65.2149867 52.2672267,65.2149867 C51.49536,65.2149867 50.8728267,64.9349867 50.40056,64.3749867 C49.92736,63.8149867 49.6912267,62.90032 49.6912267,61.6309867 C49.6912267,60.41812 49.83216,59.21132 50.0986267,58.0110533 C50.5890933,57.8439867 51.11176,57.65732 51.6698933,57.4496533 C52.7394933,57.0520533 53.8352267,56.5788533 54.9552267,56.0309867 C56.0752267,55.4835867 57.1144933,54.85452 58.07256,54.1456533 C59.03016,53.4358533 59.8020267,52.65232 60.3872267,51.7936533 C60.9714933,50.9349867 61.26456,50.0081867 61.26456,49.01232 C61.26456,48.1909867 60.9966933,47.5749867 60.4614267,47.16432" id="Fill-12" fill="#FEFEFE" mask="url(#mask-4)"></path>
            <path d="M64.85024,56.5832867 L68.71144,46.55322 L72.46484,56.5832867 L64.85024,56.5832867 Z M79.51664,65.1344867 C79.0905733,64.8549533 78.71024,64.2893533 78.37424,63.4376867 L70.17584,42.3032867 L69.9065733,42.3032867 L69.6377733,42.3032867 L61.7417733,62.6648867 C61.3609733,63.6728867 60.93584,64.3845533 60.46544,64.7984867 C59.99504,65.2133533 59.53584,65.4765533 59.08784,65.5880867 L59.08784,66.2600867 C59.42384,66.2157533 59.78784,66.1877533 60.17984,66.1765533 C60.5713733,66.1648867 61.0473733,66.1592867 61.60784,66.1592867 C62.1897733,66.1592867 62.8225733,66.1648867 63.50624,66.1765533 C64.1889733,66.1877533 64.84464,66.2157533 65.47184,66.2600867 L65.47184,65.5880867 C64.53104,65.5661533 63.8137733,65.4093533 63.32144,65.1176867 C62.8281733,64.8269533 62.5705733,64.3397533 62.54864,63.6560867 C62.5257733,62.9728867 62.75024,62.0264867 63.2201733,60.8168867 L64.59124,57.2552867 L72.7163733,57.2552867 L74.77904,62.7656867 C75.22704,63.9080867 75.2937733,64.6533533 74.98064,65.0000867 C74.6665733,65.3477533 73.93904,65.5437533 72.79664,65.5880867 L72.79664,66.2600867 C73.26704,66.2157533 73.8825733,66.1877533 74.64464,66.1765533 C75.4057733,66.1648867 76.22384,66.1592867 77.09744,66.1592867 C77.7465733,66.1592867 78.3961733,66.1648867 79.0457733,66.1765533 C79.6953733,66.1877533 80.2441733,66.2157533 80.69264,66.2600867 L80.69264,65.5880867 C80.3337733,65.5661533 79.9417733,65.4149533 79.51664,65.1344867 L79.51664,65.1344867 Z" id="Fill-13" fill="#FEFEFE" mask="url(#mask-4)"></path>
            <path d="M64.85024,56.5832867 L68.71144,46.55322 L72.46484,56.5832867 L64.85024,56.5832867 Z M79.51664,65.1344867 C79.0905733,64.8549533 78.71024,64.2893533 78.37424,63.4376867 L70.17584,42.3032867 L69.9065733,42.3032867 L69.6377733,42.3032867 L61.7417733,62.6648867 C61.3609733,63.6728867 60.93584,64.3845533 60.46544,64.7984867 C59.99504,65.2133533 59.53584,65.4765533 59.08784,65.5880867 L59.08784,66.2600867 C59.42384,66.2157533 59.78784,66.1877533 60.17984,66.1765533 C60.5713733,66.1648867 61.0473733,66.1592867 61.60784,66.1592867 C62.1897733,66.1592867 62.8225733,66.1648867 63.50624,66.1765533 C64.1889733,66.1877533 64.84464,66.2157533 65.47184,66.2600867 L65.47184,65.5880867 C64.53104,65.5661533 63.8137733,65.4093533 63.32144,65.1176867 C62.8281733,64.8269533 62.5705733,64.3397533 62.54864,63.6560867 C62.5257733,62.9728867 62.75024,62.0264867 63.2201733,60.8168867 L64.59124,57.2552867 L72.7163733,57.2552867 L74.77904,62.7656867 C75.22704,63.9080867 75.2937733,64.6533533 74.98064,65.0000867 C74.6665733,65.3477533 73.93904,65.5437533 72.79664,65.5880867 L72.79664,66.2600867 C73.26704,66.2157533 73.8825733,66.1877533 74.64464,66.1765533 C75.4057733,66.1648867 76.22384,66.1592867 77.09744,66.1592867 C77.7465733,66.1592867 78.3961733,66.1648867 79.0457733,66.1765533 C79.6953733,66.1877533 80.2441733,66.2157533 80.69264,66.2600867 L80.69264,65.5880867 C80.3337733,65.5661533 79.9417733,65.4149533 79.51664,65.1344867 Z" id="Stroke-14" stroke="#FEFEFE" stroke-width="0.25" mask="url(#mask-4)"></path>
            <path d="M94.1174267,46.5108 C95.0628933,46.5108 95.8534267,46.6358667 96.4880933,46.8846 C97.1222933,47.1333333 97.6510267,47.4814667 98.0742933,47.9294667 C98.5470267,48.4274 98.8830267,49.0494667 99.08276,49.7961333 C99.28156,50.5432667 99.3814267,51.5512667 99.3814267,52.8206 L99.3814267,62.7881333 C99.3814267,63.8334667 99.5988933,64.5432667 100.03476,64.9161333 C100.469693,65.2894667 101.197693,65.4766 102.218293,65.4766 L102.218293,66.2601333 C101.795027,66.2358667 101.148227,66.2041333 100.277427,66.1668 C99.4056933,66.1294667 98.5600933,66.1108 97.73876,66.1108 C96.9174267,66.1108 96.11476,66.1294667 95.33076,66.1668 C94.54676,66.2041333 93.9550267,66.2358667 93.5574267,66.2601333 L93.5574267,65.4766 C94.4534267,65.4766 95.0880933,65.2894667 95.4614267,64.9161333 C95.83476,64.5432667 96.0214267,63.8334667 96.0214267,62.7881333 L96.0214267,51.9992667 C96.0214267,51.2274 95.9588933,50.5185333 95.83476,49.8708 C95.7096933,49.224 95.43016,48.7013333 94.99476,48.3028 C94.5588933,47.9052 93.8934267,47.7059333 92.9974267,47.7059333 C91.4294267,47.7059333 90.1656933,48.3588 89.2076267,49.6659333 C88.24956,50.9726 87.7702933,52.584 87.7702933,54.5001333 L87.7702933,62.7881333 C87.7702933,63.8334667 87.9574267,64.5432667 88.33076,64.9161333 C88.7036267,65.2894667 89.33876,65.4766 90.23476,65.4766 L90.23476,66.2601333 C89.8362267,66.2358667 89.2454267,66.2041333 88.4614267,66.1668 C87.6774267,66.1294667 86.8742933,66.1108 86.0534267,66.1108 C85.2320933,66.1108 84.38556,66.1294667 83.51476,66.1668 C82.6430267,66.2041333 81.9962267,66.2358667 81.5734267,66.2601333 L81.5734267,65.4766 C82.59356,65.4766 83.32156,65.2894667 83.7574267,64.9161333 C84.19236,64.5432667 84.41076,63.8334667 84.41076,62.7881333 L84.41076,51.1028 C84.41076,49.9828 84.2110267,49.1558667 83.8134267,48.6206 C83.4148933,48.0853333 82.6682267,47.8179333 81.5734267,47.8179333 L81.5734267,47.0334667 C82.36956,47.1081333 83.14096,47.1454667 83.8880933,47.1454667 C84.60956,47.1454667 85.3002267,47.1025333 85.9600933,47.0148 C86.6194933,46.9284667 87.2228933,46.7973333 87.7702933,46.6228 L87.7702933,51.0286 C88.41756,49.336 89.3200933,48.16 90.4774267,47.5001333 C91.63476,46.8412 92.8480933,46.5108 94.1174267,46.5108" id="Fill-15" fill="#FEFEFE" mask="url(#mask-4)"></path>
            <path d="M116.75482,46.5108 C117.700287,46.5108 118.49082,46.6358667 119.125487,46.8846 C119.759687,47.1333333 120.28842,47.4814667 120.711687,47.9294667 C121.18442,48.4274 121.52042,49.0494667 121.720153,49.7961333 C121.918953,50.5432667 122.01882,51.5512667 122.01882,52.8206 L122.01882,62.7881333 C122.01882,63.8334667 122.236287,64.5432667 122.672153,64.9161333 C123.107087,65.2894667 123.835087,65.4766 124.855687,65.4766 L124.855687,66.2601333 C124.43242,66.2358667 123.78562,66.2041333 122.91482,66.1668 C122.043087,66.1294667 121.197487,66.1108 120.376153,66.1108 C119.55482,66.1108 118.752153,66.1294667 117.968153,66.1668 C117.184153,66.2041333 116.59242,66.2358667 116.19482,66.2601333 L116.19482,65.4766 C117.09082,65.4766 117.725487,65.2894667 118.09882,64.9161333 C118.472153,64.5432667 118.65882,63.8334667 118.65882,62.7881333 L118.65882,51.9992667 C118.65882,51.2274 118.596287,50.5185333 118.472153,49.8708 C118.347087,49.224 118.067553,48.7013333 117.632153,48.3028 C117.196287,47.9052 116.53082,47.7059333 115.63482,47.7059333 C114.06682,47.7059333 112.803087,48.3588 111.84502,49.6659333 C110.886953,50.9726 110.407687,52.584 110.407687,54.5001333 L110.407687,62.7881333 C110.407687,63.8334667 110.59482,64.5432667 110.968153,64.9161333 C111.34102,65.2894667 111.976153,65.4766 112.872153,65.4766 L112.872153,66.2601333 C112.47362,66.2358667 111.88282,66.2041333 111.09882,66.1668 C110.31482,66.1294667 109.511687,66.1108 108.69082,66.1108 C107.869487,66.1108 107.022953,66.1294667 106.152153,66.1668 C105.28042,66.2041333 104.63362,66.2358667 104.21082,66.2601333 L104.21082,65.4766 C105.230953,65.4766 105.958953,65.2894667 106.39482,64.9161333 C106.829753,64.5432667 107.048153,63.8334667 107.048153,62.7881333 L107.048153,51.1028 C107.048153,49.9828 106.84842,49.1558667 106.45082,48.6206 C106.052287,48.0853333 105.30562,47.8179333 104.21082,47.8179333 L104.21082,47.0334667 C105.006953,47.1081333 105.778353,47.1454667 106.525487,47.1454667 C107.246953,47.1454667 107.93762,47.1025333 108.597487,47.0148 C109.256887,46.9284667 109.860287,46.7973333 110.407687,46.6228 L110.407687,51.0286 C111.054953,49.336 111.957487,48.16 113.11482,47.5001333 C114.272153,46.8412 115.485487,46.5108 116.75482,46.5108" id="Fill-16" fill="#FEFEFE" mask="url(#mask-4)"></path>
            <path d="M160.52148,42.47166 L160.52148,43.1431933 C159.759413,43.16606 159.182613,43.25006 158.79108,43.3951933 C158.398613,43.54126 158.13588,43.81006 158.00148,44.20206 C157.86708,44.59406 157.79988,45.20446 157.79988,46.03326 L157.79988,62.69886 C157.79988,63.5047933 157.86708,64.1095933 158.00148,64.5127933 C158.13588,64.91646 158.398613,65.18526 158.79108,65.31966 C159.182613,65.45406 159.759413,65.54366 160.52148,65.5879933 L160.52148,66.26046 C160.005813,66.21566 159.36228,66.18766 158.589013,66.17646 C157.816213,66.1647933 157.037813,66.15966 156.253813,66.15966 C155.380213,66.15966 154.562147,66.1647933 153.80148,66.17646 C153.039413,66.18766 152.423413,66.21566 151.95348,66.26046 L151.95348,65.5879933 C152.714613,65.54366 153.291413,65.45406 153.68388,65.31966 C154.075413,65.18526 154.33908,64.91646 154.473013,64.5127933 C154.607413,64.1095933 154.67508,63.5047933 154.67508,62.69886 L154.67508,44.2183933 L154.80948,44.31966 L146.577013,66.42846 L146.03988,66.42846 L137.572213,44.6215933 L137.572213,62.36286 C137.572213,63.16926 137.645013,63.80206 137.79108,64.2607933 C137.93668,64.72046 138.22788,65.04526 138.664213,65.2351933 C139.10148,65.4255933 139.75668,65.54366 140.63028,65.5879933 L140.63028,66.26046 C140.22708,66.21566 139.700213,66.18766 139.050613,66.17646 C138.401013,66.1647933 137.785013,66.15966 137.202613,66.15966 C136.642613,66.15966 136.077013,66.1647933 135.50628,66.17646 C134.93508,66.18766 134.458613,66.21566 134.07828,66.26046 L134.07828,65.5879933 C134.839413,65.54366 135.416213,65.4255933 135.80868,65.2351933 C136.200213,65.04526 136.463413,64.72046 136.597813,64.2607933 C136.732213,63.80206 136.79988,63.16926 136.79988,62.36286 L136.79988,46.03326 C136.79988,45.20446 136.732213,44.59406 136.597813,44.20206 C136.463413,43.81006 136.200213,43.54126 135.80868,43.3951933 C135.416213,43.25006 134.839413,43.16606 134.07828,43.1431933 L134.07828,42.47166 C134.458613,42.49406 134.93508,42.5169267 135.50628,42.53886 C136.077013,42.56126 136.642613,42.57246 137.202613,42.57246 C137.695413,42.57246 138.205013,42.56126 138.73188,42.53886 C139.257813,42.5169267 139.700213,42.49406 140.058613,42.47166 L147.685813,62.56446 L147.114613,62.83326 L154.67508,42.57246 L155.464213,42.57246 L156.253813,42.57246 C157.037813,42.57246 157.816213,42.56126 158.589013,42.53886 C159.36228,42.5169267 160.005813,42.49406 160.52148,42.47166" id="Fill-17" fill="#FEFEFE" mask="url(#mask-4)"></path>
            <path d="M160.52148,42.47166 L160.52148,43.1431933 C159.759413,43.16606 159.182613,43.25006 158.79108,43.3951933 C158.398613,43.54126 158.13588,43.81006 158.00148,44.20206 C157.86708,44.59406 157.79988,45.20446 157.79988,46.03326 L157.79988,62.69886 C157.79988,63.5047933 157.86708,64.1095933 158.00148,64.5127933 C158.13588,64.91646 158.398613,65.18526 158.79108,65.31966 C159.182613,65.45406 159.759413,65.54366 160.52148,65.5879933 L160.52148,66.26046 C160.005813,66.21566 159.36228,66.18766 158.589013,66.17646 C157.816213,66.1647933 157.037813,66.15966 156.253813,66.15966 C155.380213,66.15966 154.562147,66.1647933 153.80148,66.17646 C153.039413,66.18766 152.423413,66.21566 151.95348,66.26046 L151.95348,65.5879933 C152.714613,65.54366 153.291413,65.45406 153.68388,65.31966 C154.075413,65.18526 154.33908,64.91646 154.473013,64.5127933 C154.607413,64.1095933 154.67508,63.5047933 154.67508,62.69886 L154.67508,44.2183933 L154.80948,44.31966 L146.577013,66.42846 L146.03988,66.42846 L137.572213,44.6215933 L137.572213,62.36286 C137.572213,63.16926 137.645013,63.80206 137.79108,64.2607933 C137.93668,64.72046 138.22788,65.04526 138.664213,65.2351933 C139.10148,65.4255933 139.75668,65.54366 140.63028,65.5879933 L140.63028,66.26046 C140.22708,66.21566 139.700213,66.18766 139.050613,66.17646 C138.401013,66.1647933 137.785013,66.15966 137.202613,66.15966 C136.642613,66.15966 136.077013,66.1647933 135.50628,66.17646 C134.93508,66.18766 134.458613,66.21566 134.07828,66.26046 L134.07828,65.5879933 C134.839413,65.54366 135.416213,65.4255933 135.80868,65.2351933 C136.200213,65.04526 136.463413,64.72046 136.597813,64.2607933 C136.732213,63.80206 136.79988,63.16926 136.79988,62.36286 L136.79988,46.03326 C136.79988,45.20446 136.732213,44.59406 136.597813,44.20206 C136.463413,43.81006 136.200213,43.54126 135.80868,43.3951933 C135.416213,43.25006 134.839413,43.16606 134.07828,43.1431933 L134.07828,42.47166 C134.458613,42.49406 134.93508,42.5169267 135.50628,42.53886 C136.077013,42.56126 136.642613,42.57246 137.202613,42.57246 C137.695413,42.57246 138.205013,42.56126 138.73188,42.53886 C139.257813,42.5169267 139.700213,42.49406 140.058613,42.47166 L147.685813,62.56446 L147.114613,62.83326 L154.67508,42.57246 L155.464213,42.57246 L156.253813,42.57246 C157.037813,42.57246 157.816213,42.56126 158.589013,42.53886 C159.36228,42.5169267 160.005813,42.49406 160.52148,42.47166 Z" id="Stroke-18" stroke="#FEFEFE" stroke-width="0.25" mask="url(#mask-4)"></path>
            <path d="M172.59508,62.1910333 C171.973013,63.2121 171.301013,63.9396333 170.579547,64.3750333 C169.857147,64.8104333 169.123547,65.0283667 168.376413,65.0283667 C167.52988,65.0283667 166.821013,64.7479 166.248413,64.1879 C165.675813,63.6283667 165.390213,62.7762333 165.390213,61.6310333 C165.390213,60.4116333 165.688413,59.4722333 166.285747,58.8123667 C166.883547,58.1534333 167.59848,57.6307667 168.432413,57.2439 C169.26588,56.8584333 170.075547,56.5037667 170.85908,56.1803667 C171.64308,55.8569667 172.221747,55.4211 172.59508,54.8732333 L172.59508,62.1910333 Z M178.792413,64.5057 C178.54368,64.7292333 178.288413,64.9163667 178.027547,65.0657 C177.765747,65.2145667 177.461013,65.2897 177.11288,65.2897 C176.68868,65.2897 176.39048,65.1464333 176.21688,64.8603667 C176.042347,64.5743 175.95508,64.1323667 175.95508,63.5350333 L175.95508,53.1563667 C175.95508,51.9617 175.855213,50.9350333 175.65688,50.0763667 C175.457147,49.2177 175.034347,48.4897 174.387547,47.8919 C173.91388,47.4439 173.317013,47.1023 172.59508,46.8657 C171.873147,46.6291 171.002347,46.5105667 169.981747,46.5105667 C168.836547,46.5105667 167.810347,46.6543 166.902213,46.9399 C165.993147,47.2269 165.253013,47.5689667 164.680413,47.9670333 C164.18248,48.3161 163.771813,48.6889667 163.448413,49.0870333 C163.125013,49.4851 162.96308,50.0082333 162.96308,50.6545667 C162.96308,51.2276333 163.131547,51.7437667 163.46708,52.2043667 C163.80308,52.6649667 164.331813,52.8950333 165.054213,52.8950333 C165.675813,52.8950333 166.186347,52.7144333 166.584413,52.3537 C166.98248,51.9929667 167.181747,51.5015667 167.181747,50.8790333 C167.181747,50.2569667 167.007213,49.7464333 166.65908,49.3483667 C166.31048,48.9503 165.899813,48.7015667 165.427547,48.6017 C165.850347,48.0543 166.41688,47.6935667 167.125747,47.5190333 C167.835547,47.3454333 168.501013,47.2577 169.123547,47.2577 C169.76988,47.2577 170.35508,47.3510333 170.877747,47.5377 C171.400413,47.7243667 171.817147,48.0916333 172.128413,48.6390333 C172.43968,49.1869 172.59508,49.9830333 172.59508,51.0283667 L172.59508,53.3430333 C172.59508,53.9161 172.339813,54.3879 171.829747,54.7617 C171.31968,55.1350333 170.66588,55.4710333 169.869747,55.7692333 C169.073147,56.0683667 168.233147,56.3731 167.350213,56.6843667 C166.46588,56.9956333 165.62588,57.3689667 164.829747,57.8043667 C164.033147,58.2397667 163.379813,58.7997667 162.869747,59.4843667 C162.359213,60.1689667 162.10488,61.0337 162.10488,62.0790333 C162.10488,63.4230333 162.47168,64.4996333 163.206213,65.3083667 C163.939813,66.1171 165.115813,66.5212333 166.733747,66.5212333 C167.829013,66.5212333 168.880413,66.2977 169.888413,65.8497 C170.896413,65.4017 171.79848,64.5183 172.59508,63.1990333 C172.59508,64.0703 172.80648,64.8417 173.229747,65.5137 C173.653013,66.1857 174.511213,66.5212333 175.806213,66.5212333 C176.602347,66.5212333 177.236547,66.3910333 177.709747,66.1292333 C178.18248,65.8683667 178.680413,65.5389 179.20308,65.1399 L178.792413,64.5057 Z" id="Fill-19" fill="#FEFEFE" mask="url(#mask-4)"></path>
            <path d="M192.866847,46.5108 C193.812313,46.5108 194.602847,46.6358667 195.237513,46.8846 C195.871713,47.1333333 196.400447,47.4814667 196.823713,47.9294667 C197.296447,48.4274 197.632447,49.0494667 197.83218,49.7961333 C198.03098,50.5432667 198.130847,51.5512667 198.130847,52.8206 L198.130847,62.7881333 C198.130847,63.8334667 198.348313,64.5432667 198.78418,64.9161333 C199.219113,65.2894667 199.947113,65.4766 200.967713,65.4766 L200.967713,66.2601333 C200.544447,66.2358667 199.897647,66.2041333 199.026847,66.1668 C198.155113,66.1294667 197.309513,66.1108 196.48818,66.1108 C195.666847,66.1108 194.86418,66.1294667 194.08018,66.1668 C193.29618,66.2041333 192.704447,66.2358667 192.306847,66.2601333 L192.306847,65.4766 C193.202847,65.4766 193.837513,65.2894667 194.210847,64.9161333 C194.58418,64.5432667 194.770847,63.8334667 194.770847,62.7881333 L194.770847,51.9992667 C194.770847,51.2274 194.708313,50.5185333 194.58418,49.8708 C194.459113,49.224 194.17958,48.7013333 193.74418,48.3028 C193.308313,47.9052 192.642847,47.7059333 191.746847,47.7059333 C190.178847,47.7059333 188.915113,48.3588 187.957047,49.6659333 C186.99898,50.9726 186.519713,52.584 186.519713,54.5001333 L186.519713,62.7881333 C186.519713,63.8334667 186.706847,64.5432667 187.08018,64.9161333 C187.453047,65.2894667 188.08818,65.4766 188.98418,65.4766 L188.98418,66.2601333 C188.585647,66.2358667 187.994847,66.2041333 187.210847,66.1668 C186.426847,66.1294667 185.623713,66.1108 184.802847,66.1108 C183.981513,66.1108 183.13498,66.1294667 182.26418,66.1668 C181.392447,66.2041333 180.745647,66.2358667 180.322847,66.2601333 L180.322847,65.4766 C181.34298,65.4766 182.07098,65.2894667 182.506847,64.9161333 C182.94178,64.5432667 183.16018,63.8334667 183.16018,62.7881333 L183.16018,51.1028 C183.16018,49.9828 182.960447,49.1558667 182.562847,48.6206 C182.164313,48.0853333 181.417647,47.8179333 180.322847,47.8179333 L180.322847,47.0334667 C181.11898,47.1081333 181.89038,47.1454667 182.637513,47.1454667 C183.35898,47.1454667 184.049647,47.1025333 184.709513,47.0148 C185.368913,46.9284667 185.972313,46.7973333 186.519713,46.6228 L186.519713,51.0286 C187.16698,49.336 188.069513,48.16 189.226847,47.5001333 C190.38418,46.8412 191.597513,46.5108 192.866847,46.5108" id="Fill-20" fill="#FEFEFE" mask="url(#mask-4)"></path>
            <path d="M215.154287,46.5108 C216.099753,46.5108 216.890287,46.6358667 217.524953,46.8846 C218.159153,47.1333333 218.687887,47.4814667 219.111153,47.9294667 C219.583887,48.4274 219.919887,49.0494667 220.11962,49.7961333 C220.31842,50.5432667 220.418287,51.5512667 220.418287,52.8206 L220.418287,62.7881333 C220.418287,63.8334667 220.635753,64.5432667 221.07162,64.9161333 C221.506553,65.2894667 222.234553,65.4766 223.255153,65.4766 L223.255153,66.2601333 C222.831887,66.2358667 222.185087,66.2041333 221.314287,66.1668 C220.442553,66.1294667 219.596953,66.1108 218.77562,66.1108 C217.954287,66.1108 217.15162,66.1294667 216.36762,66.1668 C215.58362,66.2041333 214.991887,66.2358667 214.594287,66.2601333 L214.594287,65.4766 C215.490287,65.4766 216.124953,65.2894667 216.498287,64.9161333 C216.87162,64.5432667 217.058287,63.8334667 217.058287,62.7881333 L217.058287,51.9992667 C217.058287,51.2274 216.995753,50.5185333 216.87162,49.8708 C216.746553,49.224 216.46702,48.7013333 216.03162,48.3028 C215.595753,47.9052 214.930287,47.7059333 214.034287,47.7059333 C212.466287,47.7059333 211.202553,48.3588 210.244487,49.6659333 C209.28642,50.9726 208.807153,52.584 208.807153,54.5001333 L208.807153,62.7881333 C208.807153,63.8334667 208.994287,64.5432667 209.36762,64.9161333 C209.740487,65.2894667 210.37562,65.4766 211.27162,65.4766 L211.27162,66.2601333 C210.873087,66.2358667 210.282287,66.2041333 209.498287,66.1668 C208.714287,66.1294667 207.911153,66.1108 207.090287,66.1108 C206.268953,66.1108 205.42242,66.1294667 204.55162,66.1668 C203.679887,66.2041333 203.033087,66.2358667 202.610287,66.2601333 L202.610287,65.4766 C203.63042,65.4766 204.35842,65.2894667 204.794287,64.9161333 C205.22922,64.5432667 205.44762,63.8334667 205.44762,62.7881333 L205.44762,51.1028 C205.44762,49.9828 205.247887,49.1558667 204.850287,48.6206 C204.451753,48.0853333 203.705087,47.8179333 202.610287,47.8179333 L202.610287,47.0334667 C203.40642,47.1081333 204.17782,47.1454667 204.924953,47.1454667 C205.64642,47.1454667 206.337087,47.1025333 206.996953,47.0148 C207.656353,46.9284667 208.259753,46.7973333 208.807153,46.6228 L208.807153,51.0286 C209.45442,49.336 210.356953,48.16 211.514287,47.5001333 C212.67162,46.8412 213.884953,46.5108 215.154287,46.5108" id="Fill-21" fill="#FEFEFE" mask="url(#mask-4)"></path>
        </g>
    </g>
</svg>