<svg id="Layer_1" data-name="Layer 1" xmlns="http://www.w3.org/2000/svg" viewBox="0 0 240.64 33.21"><defs><style>.cls-1{fill:#231f20;}.cls-2{fill:#9cc;}</style></defs><path class="cls-1" d="M48.65,27.72H40.48V4.51h8.17c9.28,0,13.19,5.22,13.19,11.6S57.93,27.72,48.65,27.72ZM48.41,8.29H45.19V23.93h3.22c6.35,0,8.59-3.17,8.59-7.82S54.76,8.29,48.41,8.29Z" transform="translate(0.04 -0.01)"/><path class="cls-1" d="M79.54,19.48H68.4c-.12,2.55,1.2,5.45,5.69,5.45a8.94,8.94,0,0,0,5.42-2v3.22a11.24,11.24,0,0,1-6.82,2c-5.15,0-8.74-3.75-8.74-8.94a8.44,8.44,0,0,1,8.17-8.7h.26c4.26,0,7.43,2.67,7.43,6.61A10,10,0,0,1,79.54,19.48Zm-7-6.07c-1.9,0-3.52,1.08-3.91,3.67h7.16A3,3,0,0,0,72.5,13.41Z" transform="translate(0.04 -0.01)"/><path class="cls-1" d="M99.65,27.72,97.3,22H87.89l-2.36,5.73H81L90.83,4.51h3.68l9.83,23.21Zm-7-17.45L89.16,18.7H96Z" transform="translate(0.04 -0.01)"/><path class="cls-1" d="M118.51,27.72V18.48c0-3.23-1.12-4.34-3.16-4.34a4.66,4.66,0,0,0-4.45,4.26v9.32h-4.49V11h4.1l.19,3.1a7.13,7.13,0,0,1,6.19-3.56c4.45,0,6.11,3.1,6.11,7.26v9.92Z" transform="translate(0.04 -0.01)"/><path class="cls-1" d="M138.47,27.72V18.48c0-3.23-1.12-4.34-3.18-4.34a4.65,4.65,0,0,0-4.45,4.26v9.32h-4.49V11h4.1l.2,3.1a7.15,7.15,0,0,1,6.19-3.56c4.45,0,6.12,3.1,6.12,7.26v9.92Z" transform="translate(0.04 -0.01)"/><path class="cls-1" d="M175,27.72V13.48c0-.54.12-2.05.16-2.2l-.85,2.2-6.23,14.24h-2.9l-6.24-14.24c-.23-.54-.73-2-.8-2.2,0,.11.12,1.66.12,2.2V27.72h-4.14V4.51h5l7.66,17,7.63-17h4.86V27.72Z" transform="translate(0.04 -0.01)"/><path class="cls-1" d="M196.61,27.72l-.17-2.67a7.51,7.51,0,0,1-6.22,3.16c-4.53,0-7.68-3.82-7.68-8.86s3.13-8.82,7.66-8.82a7.56,7.56,0,0,1,6.24,3.17l.17-2.66h4V27.72Zm-5-13.86c-2.63,0-4.76,2.06-4.76,5.5s2.13,5.5,4.76,5.5,4.76-2.06,4.76-5.5S194.24,13.86,191.61,13.86Z" transform="translate(0.04 -0.01)"/><path class="cls-1" d="M216.18,27.72V18.48c0-3.23-1.12-4.34-3.18-4.34a4.66,4.66,0,0,0-4.45,4.26v9.32h-4.49V11h4.11l.19,3.1a7.13,7.13,0,0,1,6.19-3.56c4.45,0,6.12,3.1,6.12,7.26v9.92Z" transform="translate(0.04 -0.01)"/><path class="cls-1" d="M236.13,27.72V18.48c0-3.23-1.13-4.34-3.17-4.34s-4.47,1.93-4.47,4.26v9.32H224V11h4.1l.2,3.1a7.1,7.1,0,0,1,6.19-3.56c4.45,0,6.11,3.1,6.11,7.26v9.92Z" transform="translate(0.04 -0.01)"/><path class="cls-1" d="M24.87,2.46A1.64,1.64,0,0,0,24.43.3a1.5,1.5,0,0,0-2.1.32v0A10.58,10.58,0,0,0,20.7,5.29c-.25,1.25-.44,2.52-.58,3.81a9.24,9.24,0,0,0-.19,2.16v.37A.67.67,0,0,0,20,12v.19c.13,1,1.62,1,1.49,0a4.78,4.78,0,0,1-.06-.53c.05-.83.13-1.65.22-2.46C22.28,6.78,23.91,4.7,24.87,2.46Z" transform="translate(0.04 -0.01)"/><path class="cls-1" d="M14.71,17.24c-4.26-.47-8.69-.87-12.24.92-.65.33-1.65.78-1.86,1.54a.76.76,0,0,0,0,.3.38.38,0,0,0-.13.09,1.1,1.1,0,0,0,0,1.56l.14.12a3,3,0,0,0,2.06.58,22.67,22.67,0,0,0,5-.35,19.3,19.3,0,0,0,4.5-1.42,15.43,15.43,0,0,0,2-1.08,1.7,1.7,0,0,0,.73-.79H15C16,18.84,15.68,17.35,14.71,17.24Z" transform="translate(0.04 -0.01)"/><path class="cls-1" d="M15.56,19.27a10.44,10.44,0,0,1-5.54,3,4.5,4.5,0,0,0-1.45.24.76.76,0,0,0-.23.24.59.59,0,0,0-.62.2,5.4,5.4,0,0,0-1.11,4.51A1.35,1.35,0,0,0,8.2,28.51a1.17,1.17,0,0,0,.33-.11,23.38,23.38,0,0,0,2.16-1.53c2.47-1.77,5.41-3.52,6.23-6.69C17.12,19.39,16.1,18.73,15.56,19.27Z" transform="translate(0.04 -0.01)"/><path class="cls-1" d="M16.84,21.49v.13a.51.51,0,0,0-.4.23c-1.89,2.66-3.84,5.58-3.32,9.36a2,2,0,0,0,1.28,1.91,2.12,2.12,0,0,0,2.23-.6,4.61,4.61,0,0,0,.85-2.13c.2-.85.39-1.71.54-2.59a21.89,21.89,0,0,0,.29-6.31C18.23,20.54,16.74,20.55,16.84,21.49Z" transform="translate(0.04 -0.01)"/><path class="cls-1" d="M21.34,22.37a.76.76,0,0,0-.11-.14c-.06-.19-.12-.38-.19-.57-.36-.95-2.23-1-1.86,0,.1.28.19.55.26.82a6.09,6.09,0,0,0,0,2.94v.13a4.33,4.33,0,0,0,0,.72c.13,1.13.91,3.05,2.62,3.51,2.1.56,1.64-1.76,1.44-2.7A14.93,14.93,0,0,0,21.34,22.37Z" transform="translate(0.04 -0.01)"/><path class="cls-1" d="M26.26,20.33c-1.12-1.17-2.67-2.26-4.14-1.92-.41.1-.48.51-.32.88a.54.54,0,0,0-.18.36c-.09.76.54,1.49,1.07,2.12a14.38,14.38,0,0,0,1.76,1.73c1,.82,3.19,2.46,3.65.73C28.4,23.05,27.15,21.27,26.26,20.33Z" transform="translate(0.04 -0.01)"/><path class="cls-1" d="M14.5,15.41,13,15.23a20.58,20.58,0,0,0-6-.64l-1-.08C4,14.39.85,13.91,0,16c-.22.57.49,1.24,1.08,1.09a29.14,29.14,0,0,1,6.22-1c1.86.14,3.73.36,5.6.59l.81.23a.58.58,0,0,0,.57-.06l.49.06C15.79,17,15.46,15.52,14.5,15.41Z" transform="translate(0.04 -0.01)"/><path class="cls-1" d="M14.54,13.36,14,13.27l-.82-.21c-1.68-.49-3.32-1.36-5-1.69-2-.39-4.34-.41-5.83.72a.82.82,0,0,0,0,1.16.93.93,0,0,0,.41.2c3.87.59,7.69.2,11.58,1.39a.69.69,0,0,0,.45,0h0C15.83,15,15.5,13.48,14.54,13.36Z" transform="translate(0.04 -0.01)"/><path class="cls-1" d="M16.9,13.13c-.79-2-1.63-4-2.54-5.89a18.94,18.94,0,0,0-2.77-4.92C11,1.72,10.21.93,9.43,1.07S8.58,2.26,8.55,3a7.11,7.11,0,0,0,1.76,5.08c1.62,2,3.42,3.83,5.12,5.73a.84.84,0,0,0,1,.27.64.64,0,0,0,.56-.7A.58.58,0,0,0,16.9,13.13Z" transform="translate(0.04 -0.01)"/><path class="cls-1" d="M16.82.29a.58.58,0,0,0-.74.32c-1,0-1.12,1.1-1.16,1.91A19.27,19.27,0,0,0,15,5.83a22.93,22.93,0,0,0,2,6.78,1,1,0,0,0,.1.33.79.79,0,0,0,.59.53v.06a.72.72,0,0,0,1,.24.68.68,0,0,0,.32-.42,18.55,18.55,0,0,0-.33-6.6q.06-.39.09-.78C18.9,4.28,19.35,1.1,16.82.29Z" transform="translate(0.04 -0.01)"/><path class="cls-1" d="M29.74,2.43c-1-.45-2,.35-2.65.79A12.48,12.48,0,0,0,23.32,7.4c-.93,1.6-2.05,3.6-1.58,5.69a.91.91,0,0,0,1.08.7l.08,0a.67.67,0,0,0,.88-.1l.06-.07a4.48,4.48,0,0,0,1.42-.93A10.66,10.66,0,0,0,27.14,11c.11-.14.22-.27.32-.41a.67.67,0,0,0,.76-.14A9.47,9.47,0,0,0,30.58,5.2C30.68,4.37,30.9,3,29.74,2.43Z" transform="translate(0.04 -0.01)"/><path class="cls-1" d="M31.44,15.34a11.89,11.89,0,0,0-3.07.52,44.66,44.66,0,0,1-5.78,1.62.61.61,0,0,0-.61.59.77.77,0,0,0,0,.15,1,1,0,0,0,.9.75,5.17,5.17,0,0,0,1.11-.2l.1.14A4.07,4.07,0,0,0,26.93,20a16,16,0,0,0,3.24.14A2.72,2.72,0,0,0,32.44,19c.27-.38.52-.79.77-1.19a1.47,1.47,0,0,0,.28-1.07A2,2,0,0,0,31.44,15.34Z" transform="translate(0.04 -0.01)"/><path class="cls-1" d="M35,11.69a7.56,7.56,0,0,0-5.42-.15,12.33,12.33,0,0,0-2.38.72,17,17,0,0,0-4.58,2.94.85.85,0,0,0,.86,1.36l.62-.2a.63.63,0,0,0,.3-.1h0a44.4,44.4,0,0,1,5.75-1.66c1.85-.36,4.12-.18,5.24-1.73a.83.83,0,0,0-.32-1.14Z" transform="translate(0.04 -0.01)"/><path class="cls-2" d="M21.73,15.13a1.26,1.26,0,0,0-.56-.56,1,1,0,0,0-1-.41,4.28,4.28,0,0,0-3.61,2.59,1.65,1.65,0,0,0,.8,2.08A2.73,2.73,0,0,0,20,18.74a3.47,3.47,0,0,0,1.57-1.53A2.35,2.35,0,0,0,21.73,15.13Z" transform="translate(0.04 -0.01)"/></svg>