<svg xmlns="http://www.w3.org/2000/svg" viewBox="0 0 289.04 33.23"><defs><style>.cls-1{fill:#231f20;}.cls-2{fill:#9cc;}</style></defs><g id="Layer_2" data-name="Layer 2"><g id="Layer_1-2" data-name="Layer 1"><path class="cls-1" d="M50.91,31.39H40.78V2.59H50.91c11.52,0,16.37,6.48,16.37,14.4S62.43,31.39,50.91,31.39Zm-.29-24.1h-4V26.68h4c7.87,0,10.65-3.93,10.65-9.69S58.49,7.29,50.62,7.29Z"/><path class="cls-1" d="M89.23,21.16H75.41c-.15,3.17,1.49,6.77,7.06,6.77a11.11,11.11,0,0,0,6.72-2.45v4A14,14,0,0,1,80.74,32c-6.39,0-10.85-4.66-10.85-11.09a10.47,10.47,0,0,1,10.46-10.8c5.28,0,9.22,3.31,9.22,8.2A12.64,12.64,0,0,1,89.23,21.16ZM80.5,13.63c-2.36,0-4.37,1.34-4.85,4.56h8.88C85,15.69,83.38,13.63,80.5,13.63Z"/><path class="cls-1" d="M114.18,31.39l-2.92-7.11H99.59l-2.93,7.11H91l12.24-28.8h4.56L120,31.39ZM105.45,9.74,101.17,20.2h8.5Z"/><path class="cls-1" d="M137.58,31.39V19.92c0-4-1.39-5.38-3.93-5.38s-5.52,2.4-5.52,5.28V31.39h-5.57V10.65h5.09l.24,3.84a8.82,8.82,0,0,1,7.68-4.41c5.52,0,7.58,3.84,7.58,9V31.39Z"/><path class="cls-1" d="M162.33,31.39V19.92c0-4-1.39-5.38-3.94-5.38s-5.52,2.4-5.52,5.28V31.39H147.3V10.65h5.09l.24,3.84a8.85,8.85,0,0,1,7.68-4.41c5.52,0,7.59,3.84,7.59,9V31.39Z"/><path class="cls-1" d="M207.64,31.39V13.72c0-.67.14-2.54.19-2.73l-1.05,2.73-7.73,17.67h-3.6l-7.73-17.67c-.29-.67-.91-2.44-1-2.73,0,.14.15,2.06.15,2.73V31.39h-5.14V2.59H188l9.5,21.07,9.46-21.07H213v28.8Z"/><path class="cls-1" d="M234.45,31.39l-.2-3.31A9.4,9.4,0,0,1,226.53,32C220.91,32,217,27.26,217,21s3.88-10.94,9.5-10.94A9.39,9.39,0,0,1,234.25,14l.2-3.31h5V31.39Zm-6.2-17.19c-3.26,0-5.9,2.55-5.9,6.82s2.64,6.82,5.9,6.82,5.91-2.55,5.91-6.82S231.52,14.2,228.25,14.2Z"/><path class="cls-1" d="M258.73,31.39V19.92c0-4-1.39-5.38-3.94-5.38s-5.52,2.4-5.52,5.28V31.39H243.7V10.65h5.09l.24,3.84a8.82,8.82,0,0,1,7.68-4.41c5.52,0,7.59,3.84,7.59,9V31.39Z"/><path class="cls-1" d="M283.48,31.39V19.92c0-4-1.4-5.38-3.94-5.38S274,16.94,274,19.82V31.39h-5.57V10.65h5.09l.24,3.84a8.82,8.82,0,0,1,7.68-4.41c5.52,0,7.58,3.84,7.58,9V31.39Z"/><path class="cls-1" d="M24.87,2.46A1.65,1.65,0,0,0,24.43.3a1.5,1.5,0,0,0-2.11.34A10.55,10.55,0,0,0,20.7,5.29c-.25,1.25-.44,2.52-.58,3.81a9.5,9.5,0,0,0-.19,2.16c0,.13,0,.25,0,.37A.68.68,0,0,0,20,12a1.37,1.37,0,0,0,0,.19c.13.95,1.62.95,1.49,0a5.06,5.06,0,0,1-.06-.53c.05-.83.13-1.65.22-2.46C22.28,6.78,23.91,4.7,24.87,2.46Z"/><path class="cls-1" d="M14.71,17.24c-4.26-.47-8.69-.87-12.24.92-.65.33-1.65.78-1.86,1.54a1,1,0,0,0,0,.3.38.38,0,0,0-.13.09,1.1,1.1,0,0,0,.1,1.68,3,3,0,0,0,2.06.58,23.08,23.08,0,0,0,5-.35,19.2,19.2,0,0,0,4.5-1.42,16.27,16.27,0,0,0,2-1.08,1.68,1.68,0,0,0,.73-.79l.16,0C16,18.84,15.68,17.35,14.71,17.24Z"/><path class="cls-1" d="M15.56,19.27a10.43,10.43,0,0,1-5.54,3,4.5,4.5,0,0,0-1.45.24.75.75,0,0,0-.23.24.59.59,0,0,0-.62.2,5.4,5.4,0,0,0-1.11,4.51,1.35,1.35,0,0,0,1.92.94,23.38,23.38,0,0,0,2.16-1.53c2.47-1.77,5.41-3.52,6.23-6.69C17.12,19.39,16.1,18.73,15.56,19.27Z"/><path class="cls-1" d="M16.84,21.49s0,.09,0,.13a.5.5,0,0,0-.4.23c-1.89,2.66-3.84,5.58-3.32,9.36a2,2,0,0,0,1.28,1.91,2.12,2.12,0,0,0,2.23-.6,4.57,4.57,0,0,0,.85-2.13c.2-.85.39-1.71.54-2.59a22.06,22.06,0,0,0,.29-6.31C18.23,20.54,16.74,20.55,16.84,21.49Z"/><path class="cls-1" d="M21.34,22.37a.76.76,0,0,0-.11-.14c-.06-.19-.12-.38-.19-.57-.36-.95-2.23-1-1.86,0,.1.28.19.55.26.82a6.09,6.09,0,0,0,0,2.94v.13a4.33,4.33,0,0,0,0,.72c.13,1.13.91,3.05,2.62,3.51,2.1.56,1.64-1.76,1.44-2.7A15.15,15.15,0,0,0,21.34,22.37Z"/><path class="cls-1" d="M26.26,20.33c-1.12-1.17-2.67-2.26-4.14-1.92-.41.1-.48.51-.32.88a.56.56,0,0,0-.18.36c-.09.76.54,1.49,1.07,2.12a14.38,14.38,0,0,0,1.76,1.73c1,.82,3.19,2.46,3.65.73C28.4,23.05,27.15,21.27,26.26,20.33Z"/><path class="cls-1" d="M14.5,15.41,13,15.23a20.5,20.5,0,0,0-6-.64l-1-.08C4,14.39.85,13.91,0,16c-.22.57.49,1.24,1.08,1.09a28.93,28.93,0,0,1,6.22-1c1.86.14,3.73.36,5.6.59l.81.23a.6.6,0,0,0,.57-.06l.49.06C15.79,17,15.46,15.52,14.5,15.41Z"/><path class="cls-1" d="M14.54,13.36,14,13.27l-.82-.21c-1.68-.49-3.32-1.36-5-1.69-2-.39-4.34-.41-5.83.72a.82.82,0,0,0,.46,1.36c3.87.59,7.69.2,11.58,1.39a.69.69,0,0,0,.45,0h0C15.83,15,15.5,13.48,14.54,13.36Z"/><path class="cls-1" d="M16.9,13.13q-1.18-3-2.54-5.89a18.88,18.88,0,0,0-2.77-4.92C11,1.72,10.21.93,9.43,1.07S8.58,2.26,8.55,3a7.13,7.13,0,0,0,1.76,5.08c1.62,2,3.42,3.83,5.12,5.73a.83.83,0,0,0,1,.27A.63.63,0,0,0,16.9,13.13Z"/><path class="cls-1" d="M16.82.29a.58.58,0,0,0-.74.32c-1,0-1.12,1.1-1.16,1.91A19.44,19.44,0,0,0,15,5.83,22.88,22.88,0,0,0,17,12.61c0,.11.06.22.1.33a.78.78,0,0,0,.59.53l0,.06A.72.72,0,0,0,19,13.35a18.51,18.51,0,0,0-.33-6.6q.06-.39.09-.78C18.9,4.28,19.35,1.1,16.82.29Z"/><path class="cls-1" d="M29.74,2.43c-1-.45-2,.35-2.65.79A12.38,12.38,0,0,0,23.32,7.4C22.39,9,21.27,11,21.74,13.09a.91.91,0,0,0,1.16.68.67.67,0,0,0,.88-.1l.06-.07a4.6,4.6,0,0,0,1.42-.93A11.19,11.19,0,0,0,27.14,11c.11-.14.22-.27.32-.41a.68.68,0,0,0,.76-.14A9.48,9.48,0,0,0,30.58,5.2C30.68,4.37,30.9,3,29.74,2.43Z"/><path class="cls-1" d="M31.44,15.34a11.88,11.88,0,0,0-3.07.52,44.47,44.47,0,0,1-5.78,1.62.6.6,0,0,0-.59.74,1,1,0,0,0,.9.75c.38,0,.75-.12,1.11-.2l.1.14A4.06,4.06,0,0,0,26.93,20a16.08,16.08,0,0,0,3.24.14A2.73,2.73,0,0,0,32.44,19c.27-.38.52-.79.77-1.19a1.46,1.46,0,0,0,.28-1.07A2,2,0,0,0,31.44,15.34Z"/><path class="cls-1" d="M35,11.69a7.59,7.59,0,0,0-5.42-.15,11.92,11.92,0,0,0-2.38.72,16.84,16.84,0,0,0-4.58,2.94.85.85,0,0,0,.86,1.36l.62-.2a.71.71,0,0,0,.3-.1h0a44.16,44.16,0,0,1,5.75-1.66c1.85-.36,4.12-.18,5.24-1.73A.84.84,0,0,0,35,11.69Z"/><path class="cls-2" d="M21.73,15.13a1.2,1.2,0,0,0-.56-.56,1,1,0,0,0-1-.41,4.29,4.29,0,0,0-3.61,2.59,1.65,1.65,0,0,0,.8,2.08A2.72,2.72,0,0,0,20,18.74a3.47,3.47,0,0,0,1.57-1.53A2.35,2.35,0,0,0,21.73,15.13Z"/></g></g></svg>