<svg xmlns="http://www.w3.org/2000/svg" viewBox="0 0 248.27 78.26"><defs><style>.cls-1{fill:#231f20;}.cls-2{fill:#9cc;}</style></defs><g id="Layer_2" data-name="Layer 2"><g id="Layer_1-2" data-name="Layer 1"><path class="cls-1" d="M10.13,77.68H0V48.88H10.13c11.52,0,16.37,6.48,16.37,14.4S21.65,77.68,10.13,77.68Zm-.29-24.1h-4V73h4C17.71,73,20.5,69,20.5,63.28S17.71,53.58,9.84,53.58Z"/><path class="cls-1" d="M48.46,67.46H34.63c-.14,3.17,1.49,6.77,7.06,6.77a11.18,11.18,0,0,0,6.72-2.45v4A13.88,13.88,0,0,1,40,78.26c-6.38,0-10.85-4.66-10.85-11.09a10.47,10.47,0,0,1,10.47-10.8c5.28,0,9.21,3.31,9.21,8.21A13.33,13.33,0,0,1,48.46,67.46Zm-8.74-7.54c-2.35,0-4.37,1.35-4.85,4.56h8.88C44.23,62,42.6,59.92,39.72,59.92Z"/><path class="cls-1" d="M73.41,77.68l-2.93-7.1H58.81l-2.93,7.1H50.22l12.24-28.8H67l12.24,28.8ZM64.67,56,60.4,66.5h8.49Z"/><path class="cls-1" d="M96.81,77.68V66.21c0-4-1.4-5.38-3.94-5.38s-5.52,2.4-5.52,5.28V77.68H81.78V56.94h5.09l.24,3.85a8.81,8.81,0,0,1,7.68-4.42c5.52,0,7.58,3.84,7.58,9V77.68Z"/><path class="cls-1" d="M121.55,77.68V66.21c0-4-1.39-5.38-3.93-5.38s-5.52,2.4-5.52,5.28V77.68h-5.57V56.94h5.09l.24,3.85a8.81,8.81,0,0,1,7.68-4.42c5.52,0,7.58,3.84,7.58,9V77.68Z"/><path class="cls-1" d="M166.86,77.68V60c0-.68.15-2.55.2-2.74L166,60l-7.73,17.66h-3.6L146.94,60c-.29-.68-.91-2.45-1-2.74,0,.14.15,2.06.15,2.74V77.68h-5.14V48.88h6.24L156.69,70l9.45-21.07h6.05v28.8Z"/><path class="cls-1" d="M193.67,77.68l-.19-3.31a9.41,9.41,0,0,1-7.73,3.89c-5.62,0-9.75-4.71-9.75-11s4.13-10.94,9.75-10.94a9.39,9.39,0,0,1,7.73,3.89l.19-3.32h5V77.68ZM187.48,60.5c-3.27,0-5.91,2.54-5.91,6.81s2.64,6.82,5.91,6.82,5.9-2.54,5.9-6.82S190.74,60.5,187.48,60.5Z"/><path class="cls-1" d="M218,77.68V66.21c0-4-1.39-5.38-3.94-5.38s-5.52,2.4-5.52,5.28V77.68h-5.56V56.94H208l.24,3.85a8.84,8.84,0,0,1,7.68-4.42c5.53,0,7.59,3.84,7.59,9V77.68Z"/><path class="cls-1" d="M242.7,77.68V66.21c0-4-1.39-5.38-3.94-5.38s-5.52,2.4-5.52,5.28V77.68h-5.57V56.94h5.09l.24,3.85a8.81,8.81,0,0,1,7.68-4.42c5.52,0,7.59,3.84,7.59,9V77.68Z"/><path class="cls-1" d="M139,3.57a2.39,2.39,0,0,0-.64-3.13,2.15,2.15,0,0,0-3.05.48c-1.46,1.83-1.91,4.4-2.36,6.75-.36,1.82-.63,3.67-.84,5.54a12.93,12.93,0,0,0-.27,3.15c0,.17,0,.34,0,.52a1.14,1.14,0,0,0,.13.59l0,.26c.2,1.39,2.36,1.39,2.16,0,0-.25-.06-.51-.08-.76.08-1.2.18-2.39.32-3.57C135.26,9.84,137.62,6.82,139,3.57Z"/><path class="cls-1" d="M124.27,25c-6.19-.69-12.63-1.28-17.77,1.32-1,.48-2.41,1.14-2.71,2.24a1.28,1.28,0,0,0-.06.43l-.18.13a1.6,1.6,0,0,0,.15,2.45,4.23,4.23,0,0,0,3,.83,31.85,31.85,0,0,0,7.28-.5,27.78,27.78,0,0,0,6.53-2.06,25,25,0,0,0,2.94-1.57,2.44,2.44,0,0,0,1-1.14l.24,0C126.14,27.35,125.67,25.19,124.27,25Z"/><path class="cls-1" d="M125.49,28a15,15,0,0,1-8,4.33,6.42,6.42,0,0,0-2.1.36A1,1,0,0,0,115,33a.82.82,0,0,0-.89.29,7.84,7.84,0,0,0-1.62,6.54,2,2,0,0,0,2.79,1.37A31.3,31.3,0,0,0,118.43,39c3.58-2.56,7.85-5.1,9-9.7C127.76,28.16,126.29,27.19,125.49,28Z"/><path class="cls-1" d="M127.36,31.2c0,.06,0,.13,0,.19a.76.76,0,0,0-.58.34c-2.74,3.86-5.57,8.1-4.82,13.58.16,1.16.52,2.34,1.87,2.78a3.06,3.06,0,0,0,3.23-.88,6.78,6.78,0,0,0,1.24-3.08c.28-1.25.55-2.5.78-3.76a32.12,32.12,0,0,0,.42-9.17C129.37,29.82,127.21,29.83,127.36,31.2Z"/><path class="cls-1" d="M133.89,32.48a1.16,1.16,0,0,0-.16-.21c-.08-.27-.17-.55-.27-.82-.53-1.38-3.24-1.39-2.71,0a11.67,11.67,0,0,1,.38,1.19c-.51,1.25-.17,2.92,0,4.27l0,.19a4.53,4.53,0,0,0,0,1c.18,1.64,1.31,4.43,3.79,5.09,3.05.82,2.39-2.55,2.1-3.91A21.75,21.75,0,0,0,133.89,32.48Z"/><path class="cls-1" d="M141,29.52c-1.62-1.71-3.87-3.28-6-2.79-.59.14-.7.74-.47,1.27a.83.83,0,0,0-.25.53c-.14,1.1.78,2.17,1.55,3.07a19.67,19.67,0,0,0,2.56,2.52c1.44,1.19,4.63,3.58,5.29,1.05C144.15,33.47,142.33,30.88,141,29.52Z"/><path class="cls-1" d="M124,22.37l-2.17-.26a30.2,30.2,0,0,0-8.67-.93l-1.51-.11c-2.91-.18-7.47-.87-8.64,2.09-.33.82.71,1.8,1.56,1.58a42.52,42.52,0,0,1,9-1.4c2.7.21,5.41.54,8.12.86l1.17.34a.87.87,0,0,0,.84-.1l.72.09C125.83,24.7,125.36,22.53,124,22.37Z"/><path class="cls-1" d="M124,19.39c-.26,0-.53-.08-.79-.13L122,19c-2.43-.7-4.82-2-7.28-2.45-3-.57-6.3-.59-8.46,1a1.19,1.19,0,0,0,.68,2c5.61.86,11.15.3,16.8,2a1,1,0,0,0,.65,0h0C125.89,21.73,125.42,19.57,124,19.39Z"/><path class="cls-1" d="M127.44,19.07q-1.71-4.32-3.69-8.56c-1.1-2.37-2.15-5.12-4-7.15-.79-.86-2-2-3.14-1.81s-1.22,1.73-1.27,2.76a10.4,10.4,0,0,0,2.55,7.38c2.35,2.85,5,5.56,7.44,8.31a1.2,1.2,0,0,0,1.47.4A.91.91,0,0,0,127.44,19.07Z"/><path class="cls-1" d="M127.33.43a.86.86,0,0,0-1.08.46c-1.48-.06-1.62,1.59-1.68,2.77a28.89,28.89,0,0,0,.17,4.81,33.08,33.08,0,0,0,2.8,9.84l.15.48a1.1,1.1,0,0,0,.86.77.35.35,0,0,0,0,.08,1,1,0,0,0,1.92-.26A26.73,26.73,0,0,0,130,9.79c.06-.37.1-.74.13-1.12C130.35,6.21,131,1.6,127.33.43Z"/><path class="cls-1" d="M146.09,3.52c-1.43-.64-2.9.52-3.86,1.16a18,18,0,0,0-5.47,6.06c-1.35,2.33-3,5.17-2.29,8.27a1.33,1.33,0,0,0,1.69,1,1,1,0,0,0,1.27-.14l.09-.1a6.76,6.76,0,0,0,2.06-1.35,16.83,16.83,0,0,0,2.73-2.46,6.38,6.38,0,0,0,.46-.6,1,1,0,0,0,1.11-.19,13.74,13.74,0,0,0,3.42-7.61C147.45,6.34,147.77,4.28,146.09,3.52Z"/><path class="cls-1" d="M148.55,22.28a16.33,16.33,0,0,0-4.45.75c-2.8.77-5.43,1.95-8.4,2.35a.87.87,0,0,0-.85,1.08,1.43,1.43,0,0,0,1.31,1.08c.54-.08,1.08-.18,1.61-.29a.9.9,0,0,0,.14.2c1.06,1.29,2.68,1.45,4.09,1.64a22.67,22.67,0,0,0,4.71.2,4,4,0,0,0,3.3-1.66c.39-.56.75-1.15,1.11-1.73a2.12,2.12,0,0,0,.4-1.55A2.93,2.93,0,0,0,148.55,22.28Z"/><path class="cls-1" d="M153.71,17a11.14,11.14,0,0,0-7.88-.23,17.15,17.15,0,0,0-3.44,1.05,24.86,24.86,0,0,0-6.66,4.27A1.24,1.24,0,0,0,137,24l.89-.29a.88.88,0,0,0,.43-.14h0a64.47,64.47,0,0,1,8.34-2.42c2.68-.53,6-.26,7.61-2.51A1.21,1.21,0,0,0,153.71,17Z"/><path class="cls-2" d="M134.46,22a1.84,1.84,0,0,0-.82-.82,1.46,1.46,0,0,0-1.45-.59A6.22,6.22,0,0,0,127,24.32a2.39,2.39,0,0,0,1.16,3,4,4,0,0,0,3.81-.14A5.05,5.05,0,0,0,134.2,25,3.42,3.42,0,0,0,134.46,22Z"/></g></g></svg>